<svg width="906" height="743" viewBox="0 0 906 743" fill="none" xmlns="http://www.w3.org/2000/svg">
<circle cx="673.5" cy="371.5" r="371.5" fill="#DCF4FF"/>
<circle cx="289.5" cy="222.5" r="207.5" fill="#FFC941"/>
<path d="M735.4 458.795C735.4 458.795 631.922 698.627 263.478 592.869C-104.966 487.098 77.3906 250.87 244.094 326.223C410.798 401.589 555.027 291.967 555.027 291.967C555.027 291.967 652.714 228.272 724.535 309.682C724.535 309.695 776.972 362.515 735.4 458.795Z" fill="#FF8200"/>
<path d="M515.06 227.645C515.06 227.645 527.256 299.121 394.376 304.252C261.496 309.382 200.932 211.105 244.278 184.199C282.249 160.635 332.312 195.87 385.793 176.731C454.483 152.149 515.243 184.003 515.06 227.645Z" fill="#FF8200"/>
<path d="M793.825 422.228C793.825 427.907 798.351 432.503 803.947 432.503C809.543 432.503 814.069 427.907 814.069 422.228C814.069 416.549 809.543 411.954 803.947 411.954C798.351 411.954 793.825 416.562 793.825 422.228Z" fill="#FFC941" stroke="#FFC941" stroke-width="2.9564" stroke-miterlimit="10" stroke-linecap="round" stroke-linejoin="round"/>
<path d="M114.448 274.564H65.8981" stroke="#FE0500" stroke-width="2.9564" stroke-miterlimit="10" stroke-linecap="round" stroke-linejoin="round"/>
<path d="M757.458 504.996H667.806" stroke="#26BBFB" stroke-width="2.9564" stroke-miterlimit="10" stroke-linecap="round" stroke-linejoin="round"/>
<path d="M635.078 203.468H743.97C746.54 203.468 748.627 201.379 748.627 198.807C748.627 196.235 746.54 194.146 743.97 194.146H635.065C632.495 194.146 630.408 196.235 630.408 198.807C630.421 201.392 632.508 203.468 635.078 203.468Z" fill="#FFC941"/>
<path d="M18.3014 542.295H66.395C68.9647 542.295 71.0518 540.206 71.0518 537.634C71.0518 535.062 68.9647 532.974 66.395 532.974H18.3014C15.7317 532.974 13.6446 535.062 13.6446 537.634C13.6446 540.206 15.7317 542.295 18.3014 542.295Z" fill="#FE0500"/>
<path d="M376.897 134.956H384.267C386.21 134.956 387.775 133.389 387.775 131.444V124.512C387.775 122.567 386.21 121 384.267 121H376.897C374.953 121 373.388 122.567 373.388 124.512V131.444C373.388 133.376 374.953 134.956 376.897 134.956Z" fill="#334FFB"/>
<path d="M760.889 573.209H768.259C770.202 573.209 771.768 571.642 771.768 569.697V562.765C771.768 560.82 770.202 559.253 768.259 559.253H760.889C758.945 559.253 757.38 560.82 757.38 562.765V569.697C757.38 571.642 758.945 573.209 760.889 573.209Z" fill="#26BBFB"/>
<path d="M79.0861 221.823H173.03C174.686 221.823 176.043 220.479 176.043 218.807V193.181C176.043 191.523 174.699 190.165 173.03 190.165H79.0861C77.4295 190.165 76.0729 191.51 76.0729 193.181V218.807C76.0729 220.465 77.4165 221.823 79.0861 221.823Z" fill="#FF8200"/>
<path d="M161.59 201.026H96.5394" stroke="white" stroke-width="0.9043" stroke-miterlimit="10"/>
<path d="M161.59 209.512H132.619" stroke="white" stroke-width="0.9043" stroke-miterlimit="10"/>
<path d="M164.486 218.377V230.244L149.563 218.377H164.486Z" fill="#FF8200"/>
<path d="M245.073 540.989L232.303 632.204H186.57C189.858 573.261 195.845 479.488 202.51 439.618L235.486 497.334L245.073 540.989Z" fill="#4163BC"/>
<path d="M286.593 440.989C297.902 491.851 308.585 576.734 314.912 632.217H263.727L243.704 541.002L235.499 497.334L202.524 439.618L286.593 440.989Z" fill="#4163BC"/>
<path d="M244.356 544.475L236.386 494.906L223.942 486.694" stroke="#20181F" stroke-width="1.0532" stroke-miterlimit="10" stroke-linecap="round" stroke-linejoin="round"/>
<path d="M269.792 336.68C276.118 328.768 287.454 327.071 295.828 332.763L377.328 382.163C386.615 388.495 389.237 401.053 383.223 410.57C376.727 420.884 368.523 422.986 358.779 415.675C350.131 409.187 274.07 369.369 267.822 364.656C259.083 358.077 262.957 345.204 269.792 336.68Z" fill="#D6D6D6"/>
<path d="M298.58 460.179L356.679 388.442C363.344 381.092 374.784 380.792 381.815 387.803C388.924 394.891 387.111 408.651 379.597 415.296L313.072 472.816L298.58 460.179Z" fill="#D6D6D6"/>
<path d="M263.909 465.283L281.14 455.688L279.275 451.889C278.597 450.505 278.923 448.847 280.071 447.816C281.258 446.758 283.019 446.667 284.31 447.594L301.398 459.735L313.046 472.816C303.863 481.302 297.654 481.432 294.028 479.996C293.611 480.153 293.206 480.322 292.789 480.453L278.349 485.192C277.019 485.832 275.427 485.309 274.723 484.03C274.201 483.09 273.979 481.576 276.732 480.035L273.979 481.563C272.571 482.229 270.888 481.667 270.17 480.283C269.492 479.069 270.21 477.398 271.814 476.262L269.701 477.189C268.175 477.92 266.309 477.228 265.657 475.597C265.096 474.187 265.801 472.581 267.118 471.837L270.157 470.153L266.505 471.184C264.835 471.85 262.905 471.014 262.279 469.252C261.757 467.738 262.514 466.067 263.909 465.283Z" fill="#F9A9A3"/>
<path d="M217.002 336.563C211.524 328.664 201.741 326.993 194.527 332.698L124.298 382.268C116.289 388.613 114.071 401.184 119.276 410.688C124.911 420.989 131.994 423.077 140.381 415.754C147.829 409.252 213.389 369.278 218.763 364.552C226.29 357.947 222.924 345.087 217.002 336.563Z" fill="#D6D6D6"/>
<path d="M192.453 460.127L142.155 388.508C136.39 381.171 126.502 380.897 120.463 387.92C114.345 395.022 115.949 408.769 122.445 415.414L179.996 472.803L192.453 460.127Z" fill="#D6D6D6"/>
<path d="M222.376 465.167L207.48 455.61L209.084 451.811C209.671 450.428 209.384 448.77 208.38 447.751C207.349 446.694 205.836 446.603 204.715 447.529L190.001 459.697L179.97 472.791C187.914 481.263 193.275 481.381 196.405 479.932C196.758 480.088 197.11 480.258 197.475 480.389L209.945 485.088C211.093 485.715 212.463 485.206 213.076 483.913C213.519 482.973 213.715 481.459 211.328 479.932L213.715 481.459C214.928 482.125 216.376 481.564 217.002 480.18C217.576 478.953 216.963 477.295 215.567 476.159L217.393 477.086C218.724 477.817 220.328 477.112 220.876 475.48C221.359 474.07 220.746 472.464 219.598 471.733L216.963 470.049L220.12 471.067C221.568 471.733 223.224 470.885 223.759 469.122C224.242 467.608 223.589 465.937 222.376 465.167Z" fill="#F9A9A3"/>
<path d="M290.728 330.296C290.728 330.296 270.392 322.202 239.765 322.202C209.137 322.202 190.901 335.649 190.901 335.649L202.524 439.618L286.593 440.989L300.485 366.197L290.728 330.296Z" fill="#D6D6D6"/>
<path d="M195.832 379.683L193.94 362.803" stroke="#20181F" stroke-width="1.0532" stroke-miterlimit="10" stroke-linecap="round" stroke-linejoin="round"/>
<path d="M274.854 268.847C274.854 268.847 294.081 239.46 270.928 236.066C257.101 234.042 253.109 229.708 236.204 223.781C216.638 216.928 189.728 238.847 218.751 260.57L264.093 250.701L274.854 268.847Z" fill="#4D2E3C"/>
<path d="M216.153 282.748C212.037 278.628 212.037 271.95 216.153 267.83C220.269 263.711 226.942 263.711 231.058 267.83C235.174 271.95 235.174 278.628 231.058 282.748C226.942 286.867 220.269 286.867 216.153 282.748Z" fill="#E88585"/>
<path d="M233.804 288.312L233.282 324.565C233.204 334.761 240.182 335.519 250.213 335.519C258.77 335.519 263.114 332.424 264.184 323.926L262.775 285.388L233.804 288.312Z" fill="#FCA0A0"/>
<path d="M233.32 320.819L257.126 303.73L233.647 296.98L233.32 320.819Z" fill="#20181F"/>
<path d="M244.696 306.771H242.648C228.703 306.771 217.525 295.217 217.994 281.262L218.829 255.922C219.286 242.045 230.66 231.026 244.539 231.026C258.744 231.026 272.753 242.554 272.753 256.771L271.54 281.222C270.823 295.531 259.018 306.771 244.696 306.771Z" fill="#FCA0A0"/>
<path d="M232.539 272.973L230.843 282.594H234.234" stroke="#20181F" stroke-width="1.2253" stroke-miterlimit="10" stroke-linecap="round" stroke-linejoin="round"/>
<path d="M245.817 261.719C245.817 261.719 240.13 261.053 240 263.416C240 263.416 239.948 265.022 244.917 265.505C249.887 265.988 251.192 265.662 251.687 264.174C252.183 262.685 248.491 261.824 245.817 261.719Z" fill="#20181F"/>
<path d="M224.021 261.589C224.021 261.589 228.743 261.249 229.056 263.482C229.056 263.482 229.225 264.996 225.103 265.192C220.968 265.388 219.651 264.813 219.299 263.586C218.894 262.202 221.777 261.55 224.021 261.589Z" fill="#20181F"/>
<path d="M230.243 287.033H246.169C246.169 287.033 246.209 292.608 236.947 292.621C230.817 292.634 230.243 287.033 230.243 287.033Z" fill="white"/>
<path d="M240.9 272.973C240.9 272.973 243.691 270.936 247.448 272.973" stroke="#20181F" stroke-width="1.2253" stroke-miterlimit="10" stroke-linecap="round" stroke-linejoin="round"/>
<path d="M221.804 272.973C221.804 272.973 223.682 270.936 227.439 272.973" stroke="#20181F" stroke-width="1.2253" stroke-miterlimit="10" stroke-linecap="round" stroke-linejoin="round"/>
<path d="M268.149 275.374C268.149 275.374 251.961 265.074 257.753 250.57C257.753 250.57 231.508 237.894 219.442 251.105L216.207 234.225L236.934 225.831L269.388 238.651L277.762 251.171L274.945 267.333L268.149 275.374Z" fill="#4D2E3C"/>
<path d="M265.099 279.337C262.86 273.959 265.401 267.783 270.774 265.542C276.147 263.302 282.318 265.845 284.557 271.223C286.796 276.6 284.254 282.776 278.881 285.017C273.508 287.257 267.337 284.714 265.099 279.337Z" fill="#FCA0A0"/>
<path d="M271.162 278.416C271.162 278.416 271.162 270.766 278.466 271.967" stroke="#20181F" stroke-width="1.2253" stroke-miterlimit="10" stroke-linecap="round" stroke-linejoin="round"/>
<path d="M257.635 336.249L249.182 344.056L239.803 333.337L249.182 331.862L257.635 336.249Z" fill="#4163BC"/>
<path d="M250.878 342.45L260.101 419.487L248.935 432.189L238.813 419.343L247.774 342.137L250.878 342.45Z" fill="#4163BC"/>
<path d="M264.053 320.361L249.182 331.863L259.109 344.056L273.731 325.596L264.053 320.361Z" fill="#F4EDED"/>
<path d="M233.321 320.818L249.183 331.863L239.269 344.056L224.177 325.596L233.321 320.818Z" fill="#F4EDED"/>
<path d="M545.232 343.103C546.576 335.988 542.232 329.03 535.24 327.137C527.701 325.087 519.966 329.683 518.14 337.281C516.835 342.724 515.922 352.294 515.048 362.49L543.563 371.197L545.232 343.103Z" fill="white"/>
<path d="M543.576 371.197L515.062 362.489L511.292 401.785C510.601 409.004 515.871 415.218 523.045 416.21C523.136 416.223 523.214 416.236 523.306 416.249C531.25 417.476 538.737 412.176 540.237 404.278L543.576 371.197Z" fill="#F9A9A3"/>
<path d="M501.404 512.256L512.504 389.135C512.504 389.135 517.696 390.375 524.701 391.485C531.784 392.62 536.44 399.5 534.862 406.498L516.587 512.504L501.404 512.256Z" fill="#F9A9A3"/>
<path d="M520.514 510.193C517.5 502.53 508.852 498.757 501.182 501.772C493.525 504.788 489.756 513.443 492.769 521.12C495.782 528.783 504.43 532.556 512.1 529.54C519.757 526.524 523.527 517.869 520.514 510.193Z" fill="#F9A9A3"/>
<path d="M498.364 527.073C498.364 527.073 494.386 531.407 490.981 524.37C487.564 517.321 487.694 508.352 501.182 501.772L498.364 527.073Z" fill="#F9A9A3"/>
<path d="M591.355 261.275L532.748 274.565C532.748 274.565 510.965 305.466 522.235 349.67H619.387C619.387 349.67 627.318 331.876 609.761 307.242C598.973 292.111 591.355 261.275 591.355 261.275Z" fill="#EE75AE"/>
<path d="M557.729 559.867L542.976 632.204H492.313C495.235 608.327 499.591 577.165 506.061 538.574C523.24 436.015 534.184 411.367 534.184 411.367L572.312 404.514L576.525 410.663L543.55 411.694L557.729 559.867Z" fill="#5786FF"/>
<path d="M576.525 410.663L591.252 410.206C591.252 410.206 616.375 437.034 617.692 486.656C618.566 519.763 617.666 583.954 616.74 632.205H564.655L557.729 559.867L543.55 411.694L576.525 410.663Z" fill="#5786FF"/>
<path d="M557.729 559.867L551.024 461.969" stroke="#20181F" stroke-width="1.0532" stroke-miterlimit="10" stroke-linecap="round" stroke-linejoin="round"/>
<path d="M551.023 461.969L539.153 452.647" stroke="#20181F" stroke-width="1.0532" stroke-miterlimit="10" stroke-linecap="round" stroke-linejoin="round"/>
<path d="M562.516 323.639L598.778 328.717C602.979 329.304 605.848 333.26 605.118 337.438L592.556 411.368H534.184L518.961 340.362C517.827 334.004 522.301 328.025 528.718 327.32L562.516 323.639Z" fill="white"/>
<path d="M524.31 365.31L520.07 346.968" stroke="#20181F" stroke-width="1.0532" stroke-miterlimit="10" stroke-linecap="round" stroke-linejoin="round"/>
<path d="M630.279 341.563L617.118 378.039C617.118 378.039 657.842 391.76 666.79 397.23C676.886 403.405 684.621 400.598 689.956 390.036C694.887 380.284 691.208 368.378 681.634 363.117L630.279 341.563Z" fill="#F9A9A3"/>
<path d="M604.818 330.871C596.208 326.132 585.395 328.821 580.008 337.046C574.19 345.923 571.633 358.73 580.673 364.279C587.143 368.26 617.105 378.012 617.105 378.012L630.267 341.537L604.818 330.871Z" fill="white"/>
<path d="M599.848 372.124L586.947 366.863" stroke="#20181F" stroke-width="1.0532" stroke-miterlimit="10" stroke-linecap="round" stroke-linejoin="round"/>
<path d="M612.695 445.78L662.25 371.08C668.015 363.351 679.051 362.02 686.486 368.142C694.012 374.33 693.517 387.803 686.864 394.918L627.84 456.655L612.695 445.78Z" fill="#F9A9A3"/>
<path d="M579.655 453.913L595.425 443.051L593.273 439.552C592.49 438.286 592.647 436.641 593.664 435.545C594.721 434.422 596.403 434.161 597.747 434.931L615.382 445.088L627.853 456.654C619.752 465.701 613.765 466.406 610.126 465.349C609.747 465.532 609.369 465.741 608.978 465.91L595.451 471.824C594.225 472.555 592.633 472.216 591.838 471.028C591.251 470.166 590.899 468.717 593.416 466.981L590.899 468.717C589.607 469.5 587.925 469.109 587.103 467.842C586.333 466.72 586.868 465.049 588.316 463.795L586.346 464.879C584.937 465.727 583.072 465.218 582.289 463.704C581.624 462.385 582.146 460.767 583.359 459.944L586.151 458.038L582.72 459.37C581.168 460.166 579.224 459.539 578.455 457.894C577.789 456.472 578.376 454.787 579.655 453.913Z" fill="#F9A9A3"/>
<path d="M541.359 275.375C541.75 281.041 537.485 285.949 531.824 286.341C526.162 286.732 521.258 282.464 520.867 276.798C520.475 271.132 524.741 266.223 530.402 265.832C536.063 265.44 540.968 269.709 541.359 275.375Z" fill="#ED908E"/>
<path d="M556.79 237.893C555.485 235.609 557.155 231.34 557.155 231.34C570.003 231.34 581.091 235.465 587.469 247.215C596.861 264.499 590.039 291.236 567.929 299.369C546.72 307.176 558.016 240.074 558.016 240.074L556.79 237.893Z" fill="#EE75AE"/>
<path d="M544.672 303.625L546.094 325.988C546.576 333.847 551.663 337.737 559.386 337.202C565.973 336.745 571.934 332.907 572.286 326.301L568.36 291.223L544.672 303.625Z" fill="#F9A9A3"/>
<path d="M545.65 322.267L571.765 296.68L544.476 301.34L545.65 322.267Z" fill="#20181F"/>
<path d="M551.468 307.242C538.268 307.281 527.363 296.876 526.971 286.093L526.189 260.636C525.693 247.111 536.011 235.636 549.485 234.696C559.621 233.991 578.039 249.069 578.639 257.803L579.043 278.286C579.369 294.135 567.265 306.145 551.468 307.242Z" fill="#F9A9A3"/>
<path d="M557.221 231.366C557.155 231.353 557.103 231.34 557.037 231.34C557.024 231.34 557.103 231.353 557.221 231.366Z" fill="#F7DE9E"/>
<path d="M526.71 254.552C526.162 241.262 537.785 232.959 546.511 230.831C553.751 229.069 561.368 229.304 568.438 231.667C576.878 234.5 585.996 240.792 579.774 254.63C583.843 256.641 587.47 258.938 587.47 258.938L572.286 277.137C572.286 277.137 571.191 272.124 569.599 261.432C561.682 258.299 561.969 253.664 561.16 248.677C543.55 254.278 526.71 254.552 526.71 254.552Z" fill="#EE75AE"/>
<path d="M591.382 275.375C591.774 281.041 587.508 285.949 581.847 286.341C576.186 286.732 571.281 282.464 570.89 276.798C570.499 271.132 574.764 266.223 580.425 265.832C586.073 265.44 590.991 269.709 591.382 275.375Z" fill="#F9A9A3"/>
<path d="M577.764 279.382C577.764 279.382 577.242 271.941 584.43 272.62" stroke="#20181F" stroke-width="1.1845" stroke-miterlimit="10" stroke-linecap="round" stroke-linejoin="round"/>
<path d="M541.332 276.941L540.523 283.665L543.993 283.795" stroke="#20181F" stroke-width="1.1845" stroke-miterlimit="10" stroke-linecap="round" stroke-linejoin="round"/>
<path d="M556.594 263.129C556.594 263.129 550.672 262.646 550.606 265.061C550.606 265.061 550.606 266.693 555.785 267.02C560.95 267.346 562.294 266.967 562.764 265.427C563.246 263.886 559.372 263.142 556.594 263.129Z" fill="#20181F"/>
<path d="M532.737 263.782C532.737 263.782 537.629 263.273 538.02 265.545C538.02 265.545 538.255 267.085 533.976 267.424C529.698 267.777 528.302 267.229 527.898 265.988C527.441 264.579 530.415 263.821 532.737 263.782Z" fill="#20181F"/>
<path d="M556.986 273.416C557.025 274.643 556.06 275.674 554.834 275.714C553.608 275.753 552.577 274.787 552.538 273.56C552.499 272.332 553.464 271.301 554.69 271.262C555.917 271.223 556.947 272.189 556.986 273.416Z" fill="#20181F"/>
<path d="M536.454 273.416C536.493 274.643 535.528 275.674 534.302 275.714C533.075 275.753 532.045 274.787 532.006 273.56C531.967 272.332 532.932 271.301 534.158 271.262C535.384 271.223 536.415 272.189 536.454 273.416Z" fill="#20181F"/>
<path d="M542.103 289.735C542.103 289.735 549.473 291.797 553.308 286.458" stroke="#20181F" stroke-width="1.1845" stroke-miterlimit="10" stroke-linecap="round" stroke-linejoin="round"/>
<path d="M539.963 272.163H544.933" stroke="white" stroke-width="1.3399" stroke-miterlimit="10"/>
<path d="M565.53 272.163H571.765" stroke="white" stroke-width="1.3399" stroke-miterlimit="10"/>
<path d="M552.925 281.953C547.422 280.648 544.018 275.126 545.321 269.619C546.625 264.111 552.143 260.704 557.645 262.008C563.148 263.313 566.553 268.835 565.249 274.343C563.946 279.85 558.428 283.257 552.925 281.953Z" stroke="white" stroke-width="1.33994" stroke-miterlimit="10"/>
<path d="M523.575 278.157C519.816 274.395 519.816 268.295 523.575 264.532C527.334 260.77 533.43 260.77 537.189 264.532C540.948 268.295 540.948 274.395 537.189 278.157C533.43 281.92 527.334 281.92 523.575 278.157Z" stroke="white" stroke-width="1.32079" stroke-miterlimit="10"/>
<path d="M365.73 446.015L455.957 449.761C465.531 487.725 470.566 572.725 473.031 632.217H414.111L404.211 555.01L390.853 632.217H335.664C345.421 565.754 360.722 464.174 365.73 446.015Z" fill="#4D2E3C"/>
<path d="M404.197 555.01L396.801 498.065L379.192 489.618" stroke="#20181F" stroke-width="1.0532" stroke-miterlimit="10" stroke-linecap="round" stroke-linejoin="round"/>
<path d="M483.193 333.181C483.193 333.181 442.13 317.998 405.854 316.758C405.854 316.758 386.549 315.531 353.782 324.278C352.595 324.591 351.8 325.753 351.943 326.98L365.731 446.002L456.335 449.748L483.193 333.181Z" fill="#B5A2DE"/>
<path d="M442.247 442.15L348.238 401.066L408.215 391.758L443.564 405.309L442.247 442.15Z" fill="#B5A2DE"/>
<path d="M496.498 361.64C491.528 382.946 470.879 429.487 470.879 429.487C466.535 440.975 453.648 446.68 442.234 442.163C431.069 437.737 425.525 425.152 429.79 413.912L455.513 346.105C460.066 334.107 473.879 328.572 485.449 334.094C495.728 339.016 499.094 350.544 496.498 361.64Z" fill="#B5A2DE"/>
<path d="M442.808 379.591L454.157 349.669" stroke="#20181F" stroke-width="1.0532" stroke-miterlimit="10" stroke-linecap="round" stroke-linejoin="round"/>
<path d="M375.057 360.962C361.987 378.495 327.172 407.503 327.172 407.503C318.602 416.302 304.502 416.367 295.853 407.659C287.388 399.134 287.336 388.077 295.723 379.487L343.699 330.335C352.661 321.157 367.544 321.614 375.931 331.314C383.379 339.917 381.866 351.836 375.057 360.962Z" fill="#B5A2DE"/>
<path d="M359.039 373.781C359.039 373.781 356.978 362.606 340.582 358.638L323.063 370.948L329.285 376.432L359.039 373.781Z" fill="#FCA0A0"/>
<path d="M421.259 370.962L442.808 379.591L434.382 401.798L422.655 397.307L421.259 370.962Z" fill="#FCA0A0"/>
<path d="M421.259 370.962L301.879 378.09L309.197 414.03L422.654 397.307L421.259 370.962Z" fill="#B5A2DE"/>
<path d="M421.258 370.962L359.038 373.782L354.746 343.508" stroke="#20181F" stroke-width="1.0532" stroke-miterlimit="10" stroke-linecap="round" stroke-linejoin="round"/>
<path d="M421.259 432.986L361.412 406.771L422.654 397.307" stroke="#20181F" stroke-width="1.0532" stroke-miterlimit="10" stroke-linecap="round" stroke-linejoin="round"/>
<path d="M424.703 223.912C430.925 224.33 452.018 229.304 444.961 250.166C436.43 275.401 432.204 278.625 432.204 278.625L432.921 241.105L424.703 223.912Z" fill="#4D2E3C"/>
<path d="M383.549 225.688C383.549 225.688 358.896 232.907 377.053 260.048L402.059 231.758L383.549 225.688Z" fill="#4D2E3C"/>
<path d="M390.88 268.585C390.971 274.46 386.445 279.33 380.745 279.447C375.058 279.565 370.362 274.891 370.27 269.016C370.179 263.141 374.705 258.272 380.393 258.155C386.093 258.037 390.789 262.711 390.88 268.585Z" fill="#E88585"/>
<path d="M393.006 290.335L391.61 318.051C391.127 327.411 396.502 331.628 405.424 331.98C413.041 332.28 421.585 329.004 421.664 320.74L421.807 278.703L393.006 290.335Z" fill="#FCA0A0"/>
<path d="M391.767 313.73L423.999 292.777C424.925 284.839 393.085 287.607 393.085 287.607L391.767 313.73Z" fill="#20181F"/>
<path d="M402.384 301.706C387.892 301.014 376.518 288.599 376.713 276.353L377.248 250.713C377.47 235.361 389.457 222.919 404.328 222.619C419.55 222.306 434.759 234.734 435.007 250.452L434.355 270.426C433.781 288.403 419.785 301.34 402.384 301.706Z" fill="#FCA0A0"/>
<path d="M407.681 250.322C407.681 250.322 399.854 248.755 399.554 251.04C399.554 251.04 399.385 252.593 404.094 253.416C408.803 254.251 412.52 254.525 413.107 253.116C413.694 251.719 410.224 250.622 407.681 250.322Z" fill="#20181F"/>
<path d="M385.063 253.364C385.063 253.364 378.149 253.572 378.358 255.857C378.358 255.857 377.484 257.424 382.258 257.189C387.032 256.954 389.393 256.484 389.654 254.982C389.915 253.468 387.619 253.089 385.063 253.364Z" fill="#20181F"/>
<path d="M403.833 278.677C403.847 279.095 399.542 282.841 393.594 281.001" stroke="#20181F" stroke-width="1.2504" stroke-miterlimit="10" stroke-linecap="round" stroke-linejoin="round"/>
<path d="M386.197 264.186C386.171 265.505 385.075 266.549 383.744 266.523C382.427 266.497 381.383 265.4 381.41 264.069C381.436 262.75 382.531 261.706 383.862 261.732C385.179 261.771 386.223 262.868 386.197 264.186Z" fill="#20181F"/>
<path d="M408.528 265.413C408.607 266.731 407.602 267.867 406.285 267.945C404.967 268.024 403.833 267.019 403.754 265.7C403.676 264.381 404.68 263.246 405.998 263.167C407.302 263.089 408.437 264.094 408.528 265.413Z" fill="#20181F"/>
<path d="M392.197 267.541L388.884 273.403C388.623 273.807 388.701 274.356 389.066 274.669L391.114 275.792" stroke="#20181F" stroke-width="1.2504" stroke-miterlimit="10" stroke-linecap="round" stroke-linejoin="round"/>
<path d="M427.508 268.69C427.508 268.69 432.034 247.593 422.251 236.888C422.251 236.888 381.866 249.147 375.618 232.698C366.761 209.369 392.341 202.358 406.963 209.316C418.69 214.904 424.69 223.886 424.69 223.886C424.69 223.886 452.226 229.865 437.317 260.23L427.508 268.69Z" fill="#4D2E3C"/>
<path d="M447.7 270.583C447.791 276.405 443.304 281.222 437.669 281.34C432.034 281.457 427.39 276.836 427.299 271.013C427.208 265.191 431.695 260.374 437.33 260.256C442.965 260.139 447.608 264.76 447.7 270.583Z" fill="#FCA0A0"/>
<path d="M434.056 273.402C434.056 273.402 435.008 266.522 441.021 266.81" stroke="#20181F" stroke-width="1.2504" stroke-miterlimit="10" stroke-linecap="round" stroke-linejoin="round"/>
<path d="M421.259 318.025L432.034 319.631C432.034 319.631 419.029 330.44 393.658 337.96L384.944 318.025L399.971 316.093L421.259 318.025Z" fill="#FCA0A0"/>
<path d="M735.414 632.217H61.8687" stroke="#C8EDFF" stroke-width="1.204" stroke-miterlimit="10" stroke-linecap="round" stroke-linejoin="round"/>
</svg>
