<svg width="20" height="20" fill="none" xmlns="http://www.w3.org/2000/svg"><path d="M9.845 4.233c-.272.062-.283.076-1.849 2.424C6.626 8.71 6.49 8.902 6.439 8.858c-.396-.343-3.584-2.855-3.665-2.888a.805.805 0 0 0-.342-.029c-.394.028-.64.23-.685.562-.016.115.168 1.087.836 4.43.471 2.356.883 4.344.915 4.417a.793.793 0 0 0 .156.22c.213.191-.185.18 6.363.18h6.033l.137-.074a.71.71 0 0 0 .342-.383c.019-.061.417-2.03.885-4.376.677-3.393.845-4.291.824-4.384a.837.837 0 0 0-.282-.458c-.227-.209-.474-.249-.733-.118-.071.036-3.378 2.655-3.662 2.901-.052.044-.181-.138-1.496-2.113-.792-1.189-1.479-2.204-1.527-2.256-.171-.185-.489-.302-.693-.256m1.538 4.191c.752 1.131 1.424 2.112 1.493 2.18a.61.61 0 0 0 .29.163c.305.073.354.042 1.827-1.135a72.628 72.628 0 0 1 1.349-1.065c.008 0-.242 1.278-.555 2.841l-.57 2.842H4.783l-.57-2.842C3.9 9.845 3.65 8.567 3.659 8.567c.008 0 .609.474 1.334 1.054.726.58 1.38 1.082 1.455 1.116.258.117.504.048.735-.208.074-.081.734-1.05 1.467-2.154A109.161 109.161 0 0 1 10 6.368c.009 0 .632.926 1.383 2.056" fill-rule="evenodd" fill="#000"/></svg>