<svg width="18" height="18" fill="none" xmlns="http://www.w3.org/2000/svg"><path d="M4.874 1.532A2.287 2.287 0 0 0 3.085 3.12l-.07.225v11.31l.07.225c.231.74.795 1.304 1.535 1.535l.225.07h8.31l.225-.07a2.332 2.332 0 0 0 1.526-1.5l.079-.23v-8.97l-.067-.126a.748.748 0 0 0-.195-.215c-.099-.069-3.276-3.246-3.684-3.684-.184-.197-.07-.19-3.192-.186-1.552.001-2.89.014-2.973.028M9.75 4.224c0 1.326.008 1.406.169 1.724.102.201.432.531.633.633.309.156.43.168 1.741.169H13.5v3.79c0 3.125-.007 3.814-.041 3.927a.762.762 0 0 1-.346.437l-.138.081h-7.95l-.138-.081a.762.762 0 0 1-.346-.437c-.034-.113-.041-1.037-.041-5.466 0-5.995-.018-5.528.228-5.774.231-.232.12-.223 2.719-.225L9.75 3v1.224m2.1.441.584.585H11.25v-.585c0-.322.004-.585.008-.585s.271.263.592.585M6.487 6.028c-.289.072-.458.3-.48.647-.023.36.082.599.324.735.132.074.146.075.794.075.587 0 .672-.006.765-.056.267-.143.343-.294.344-.679.001-.249-.008-.302-.074-.419a.656.656 0 0 0-.223-.225l-.147-.091-.603-.006a6.348 6.348 0 0 0-.7.019m0 3.001a.684.684 0 0 0-.404.309c-.057.106-.068.173-.068.412 0 .248.01.302.075.419a.64.64 0 0 0 .386.301c.148.041 4.9.041 5.048 0a.64.64 0 0 0 .386-.301c.066-.117.075-.17.074-.419-.001-.324-.06-.484-.225-.601-.211-.15-.2-.149-2.771-.146-1.322.002-2.447.014-2.501.026m0 3c-.287.069-.458.299-.48.646-.023.36.082.599.324.735l.134.075H9c2.534 0 2.535 0 2.655-.064.251-.135.328-.293.329-.671.001-.249-.008-.302-.074-.419a.656.656 0 0 0-.223-.225l-.147-.091-2.478-.005c-1.362-.003-2.521.006-2.575.019" fill-rule="evenodd" fill="#000"/></svg>