<svg width="20" height="20" fill="none" xmlns="http://www.w3.org/2000/svg"><path d="M3.883 3.489c-.508.108-.912.338-1.336.759-.321.32-.507.622-.686 1.111l-.13.358.002 4.028c.001 2.499.015 4.155.036 4.362.069.674.31 1.179.794 1.663.479.479.978.72 1.646.794.447.05 11.135.05 11.582 0 .668-.074 1.167-.315 1.646-.794.484-.484.725-.989.794-1.663.021-.207.035-1.863.036-4.362l.002-4.028-.13-.358c-.179-.489-.365-.791-.686-1.111-.305-.302-.564-.484-.884-.618-.495-.207-.163-.197-6.593-.194-5.062.002-5.891.01-6.093.053m12.159 1.558c.176.089.525.408.525.479 0 .016-1.478 1.015-3.284 2.219L10 9.933 6.717 7.745C4.911 6.541 3.433 5.543 3.433 5.527c0-.051.281-.334.417-.421.279-.177-.02-.169 6.2-.162l5.8.006.192.097m-9.55 4.347c1.755 1.17 3.242 2.145 3.305 2.167a.567.567 0 0 0 .454-.024c.074-.033 1.556-1.008 3.292-2.166a395.807 395.807 0 0 1 3.174-2.104c.01 0 .014 1.556.009 3.458l-.009 3.458-.097.191a1.262 1.262 0 0 1-.962.695c-.274.039-11.042.039-11.316 0a1.262 1.262 0 0 1-.962-.695l-.097-.191-.008-3.458c-.005-1.902-.001-3.458.008-3.458.009 0 1.453.957 3.209 2.127" fill-rule="evenodd" fill="#000"/></svg>