<svg width="20" height="20" fill="none" xmlns="http://www.w3.org/2000/svg"><path d="M12.117 1.829a.724.724 0 0 0-.191.126c-.224.253-.224.837 0 1.09.116.131.316.187.785.22 1.131.081 2.032.48 2.788 1.236.755.755 1.16 1.668 1.234 2.783.041.605.111.764.396.891.199.089.541.09.739.001.297-.133.376-.31.37-.834a5.718 5.718 0 0 0-.846-2.857 5.817 5.817 0 0 0-3.459-2.547c-.652-.174-1.556-.228-1.816-.109m-8.572.837a2.53 2.53 0 0 0-1.171.715c-.471.516-.673 1.162-.604 1.933.267 2.986 1.337 5.612 3.213 7.886.337.408 1.409 1.48 1.817 1.817a14.108 14.108 0 0 0 5.708 2.864c.954.233 2.279.401 2.759.35.994-.106 1.784-.788 2.074-1.788.075-.256.076-.285.076-2.193v-1.933l-.079-.16a.698.698 0 0 0-.199-.241c-.156-.106-4.435-1.817-4.599-1.839a.635.635 0 0 0-.516.172c-.065.064-.324.458-.575.875-.251.418-.461.765-.469.773-.019.02-.551-.339-.88-.593-.364-.281-1.123-1.04-1.404-1.404-.12-.156-.307-.416-.414-.578-.159-.239-.187-.3-.147-.323l.815-.492c.901-.544.967-.609.967-.952 0-.191-.062-.358-.879-2.397-.483-1.205-.911-2.239-.95-2.297a.695.695 0 0 0-.218-.184L7.723 2.6l-1.97.002c-1.814.002-1.988.007-2.208.064m4.074 2.982c.45 1.125.602 1.539.572 1.558a141.9 141.9 0 0 1-.806.485c-.421.252-.822.514-.89.582a.606.606 0 0 0-.176.539c.012.076.101.288.196.471.923 1.779 2.451 3.306 4.205 4.202.514.262.749.268 1.001.022.071-.069.335-.47.588-.891.252-.421.47-.785.485-.807.019-.03.431.121 1.558.572l1.531.612.009 1.512c.011 1.699.013 1.683-.231 1.948-.266.287-.524.332-1.354.23a12.703 12.703 0 0 1-5.811-2.253 12.634 12.634 0 0 1-4.609-6.221c-.339-.992-.621-2.453-.62-3.209a.888.888 0 0 1 .533-.831c.145-.066.202-.068 1.678-.06l1.529.008.612 1.531m4.498-.485a.7.7 0 0 0-.191.125c-.224.253-.224.841 0 1.089.099.11.244.163.559.207.168.024.364.073.435.11.291.15.456.425.494.822.024.25.105.467.207.558.25.221.845.221 1.09 0 .234-.213.265-.786.073-1.359a2.42 2.42 0 0 0-1.676-1.551c-.336-.085-.806-.086-.991-.001" fill-rule="evenodd" fill="#000"/></svg>