<svg width="899" height="743" viewBox="0 0 899 743" fill="none" xmlns="http://www.w3.org/2000/svg">
<circle cx="239.5" cy="254.5" r="180.5" fill="#EF7A00"/>
<circle cx="348" cy="536" r="207" fill="#FFC941"/>
<circle cx="585" cy="268" r="268" fill="#334FFB"/>
<path d="M898.754 638.667C898.754 638.847 697.547 639 449.396 639C201.169 639 0 638.859 0 638.667C0 638.475 201.169 638.334 449.396 638.334C697.547 638.334 898.754 638.488 898.754 638.667Z" fill="#263238"/>
<path d="M444.56 170.521H436.003V199.15H444.56V170.521Z" fill="#FFC941"/>
<path d="M373.099 166.37H364.542V199.137H373.099V166.37Z" fill="#FFC941"/>
<path d="M390.958 159.54H382.401V199.137H390.958V159.54Z" fill="#FFC941"/>
<path d="M408.83 161.717H400.272V199.149H408.83V161.717Z" fill="#FFC941"/>
<path d="M426.689 149.058H418.131V199.15H426.689V149.058Z" fill="#FFC941"/>
<path d="M462.42 149.301H453.862V199.15H462.42V149.301Z" fill="#FFC941"/>
<path d="M480.291 165.665H471.734V199.137H480.291V165.665Z" fill="#FFC941"/>
<path d="M498.15 151.492H489.592V199.15H498.15V151.492Z" fill="#FFC941"/>
<path d="M516.009 140.754H507.451V199.138H516.009V140.754Z" fill="#FFC941"/>
<path d="M533.88 151.248H525.323V199.149H533.88V151.248Z" fill="#FFC941"/>
<path d="M759.296 196.495L830.051 185.693C835.978 224.457 808.921 261.235 770.111 267.156C731.302 273.076 694.481 246.05 688.553 207.285C682.626 168.521 709.684 131.743 748.493 125.822C754.677 124.874 760.951 124.746 767.16 125.438L759.296 196.495Z" fill="#FF8200"/>
<path d="M782.248 125.655L773.652 180.438L827.485 170.34C827.485 170.34 819.57 139.636 782.248 125.655Z" fill="#FF8200"/>
<path d="M40.005 399.59C39.6971 380.188 55.1825 364.144 74.5167 363.824C93.8638 363.516 109.849 379.048 110.157 398.449C110.465 417.851 94.98 433.895 75.6457 434.215C56.2986 434.535 40.3129 419.004 40.005 399.59ZM91.8495 398.757C91.6956 389.479 84.0619 382.046 74.8118 382.2C65.5616 382.354 58.1589 390.017 58.3129 399.295C58.4668 408.573 66.1005 416.005 75.3506 415.852C84.588 415.711 91.9907 408.035 91.8495 398.757Z" fill="#FF8987"/>
<path d="M40.0045 399.591C39.6966 380.19 55.182 364.146 74.5162 363.825L74.8113 382.189C65.5611 382.342 58.1584 390.006 58.3124 399.283C58.4663 408.561 66.1 415.994 75.3501 415.84L75.6452 434.204C56.2981 434.537 40.3124 419.005 40.0045 399.591Z" fill="#FFB5B4"/>
<path d="M71.3604 361.005C93.9918 360.647 112.043 378.177 112.402 400.885L90.9897 401.231C90.8101 390.377 82.5478 383.534 71.7324 383.713L71.3604 361.005Z" fill="#FF2F2B"/>
<path d="M215.794 127H60.5557H19.0005L51.0617 150.105V195.559C51.0617 200.8 55.3212 205.054 60.5685 205.054H215.794C221.041 205.054 225.301 200.8 225.301 195.559V136.483C225.288 131.242 221.041 127 215.794 127Z" fill="#FFC941"/>
<path d="M208.033 158.771C208.033 158.963 178.358 159.117 141.742 159.117C105.127 159.117 75.4517 158.963 75.4517 158.771C75.4517 158.579 105.127 158.425 141.742 158.425C178.345 158.425 208.033 158.579 208.033 158.771Z" fill="white"/>
<path d="M208.033 176.222C208.033 176.414 178.358 176.568 141.742 176.568C105.127 176.568 75.4517 176.414 75.4517 176.222C75.4517 176.03 105.127 175.876 141.742 175.876C178.345 175.876 208.033 176.03 208.033 176.222Z" fill="white"/>
<path d="M806.386 597.666C806.386 597.666 785.131 573.233 777.113 548.799C769.096 524.366 772.904 527.169 772.904 527.169C772.904 527.169 783.728 550.906 791.954 562.366C800.172 573.834 814.812 590.651 814.812 590.651L806.386 597.666Z" fill="#455A64"/>
<path d="M810.619 530.981C809.93 529.788 808.11 530.404 808.31 531.766C809.609 540.351 812.407 560.484 812.295 573.553C812.151 590.523 812.303 597.082 812.303 597.082H821.147C821.147 597.082 819.575 562.005 817.579 551.306C816.184 543.81 813.209 535.482 810.619 530.981Z" fill="#455A64"/>
<path d="M815.438 594.23C815.438 594.23 821.002 582.538 822.718 567.851C823.447 561.604 822.148 553.164 820.216 541.896C819.278 536.442 819.07 532.286 819.102 529.411C819.126 527.233 821.996 526.528 823.062 528.426C824.129 530.332 827.223 536.827 828.001 540.903C830.142 552.026 832.571 557.584 830.711 568.139C828.859 578.694 822.004 594.943 822.004 594.943L815.438 594.23Z" fill="#455A64"/>
<path d="M823.408 594.944C823.408 594.944 846.739 544.852 848.359 537.428C849.979 529.996 855.479 512.874 856.12 513.843C856.769 514.812 857.74 523.862 853.53 534.2C849.329 544.539 831.369 596.473 831.369 596.473H823.4" fill="#455A64"/>
<path d="M812.888 592.701C812.88 592.717 812.656 592.557 812.231 592.253C811.814 591.94 811.189 591.5 810.427 590.875C808.872 589.658 806.691 587.8 804.157 585.349C799.066 580.464 792.724 572.928 787.232 563.647C781.724 554.365 778.019 545.292 775.678 538.645C774.508 535.321 773.65 532.598 773.097 530.7C772.808 529.755 772.616 529.019 772.479 528.514C772.343 528.01 772.279 527.745 772.295 527.745C772.311 527.737 772.407 527.994 772.575 528.49C772.752 529.027 772.984 529.747 773.281 530.644C773.89 532.518 774.796 535.217 776.015 538.525C778.436 545.123 782.181 554.149 787.665 563.39C793.141 572.632 799.403 580.168 804.414 585.093C806.907 587.576 809.048 589.458 810.563 590.723C811.309 591.372 811.918 591.836 812.311 592.173C812.688 592.501 812.896 592.685 812.888 592.701Z" fill="#263238"/>
<path d="M815.438 568.667C815.406 568.667 815.333 568.147 815.229 567.194C815.117 566.16 814.973 564.807 814.796 563.181C814.427 559.794 813.85 555.117 813.024 549.984C812.199 544.85 811.276 540.229 810.563 536.898C810.218 535.296 809.93 533.967 809.713 532.95C809.513 532.021 809.416 531.5 809.448 531.492C809.481 531.484 809.641 531.989 809.897 532.91C810.162 533.831 810.507 535.168 810.908 536.826C811.709 540.141 812.688 544.762 813.513 549.911C814.339 555.061 814.86 559.746 815.141 563.149C815.285 564.847 815.374 566.233 815.414 567.185C815.462 568.138 815.47 568.667 815.438 568.667Z" fill="#263238"/>
<path d="M820.906 528.028C820.922 528.02 821.018 528.244 821.179 528.66C821.355 529.133 821.587 529.749 821.876 530.518C822.189 531.327 822.542 532.32 822.878 533.497C823.223 534.674 823.672 535.996 824.009 537.509C824.193 538.262 824.386 539.047 824.586 539.864C824.778 540.681 824.923 541.554 825.099 542.443C825.484 544.22 825.717 546.15 825.997 548.177C826.454 552.237 826.703 556.729 826.558 561.454C826.366 566.171 825.797 570.64 825.051 574.66C824.626 576.662 824.249 578.568 823.744 580.314C823.504 581.187 823.303 582.044 823.047 582.853C822.79 583.654 822.542 584.422 822.301 585.159C821.852 586.641 821.315 587.93 820.882 589.075C820.457 590.228 820.032 591.197 819.671 591.974C819.326 592.719 819.054 593.32 818.837 593.776C818.645 594.185 818.533 594.401 818.517 594.393C818.501 594.385 818.581 594.161 818.749 593.736C818.934 593.272 819.182 592.655 819.495 591.894C819.832 591.101 820.232 590.124 820.625 588.971C821.026 587.818 821.547 586.521 821.972 585.039C822.197 584.302 822.437 583.533 822.686 582.733C822.926 581.932 823.119 581.075 823.351 580.202C823.84 578.456 824.193 576.558 824.61 574.564C825.332 570.56 825.885 566.115 826.069 561.43C826.214 556.737 825.981 552.269 825.556 548.225C825.284 546.207 825.067 544.293 824.706 542.515C824.538 541.626 824.41 540.761 824.225 539.944C824.033 539.127 823.856 538.342 823.68 537.59C823.367 536.084 822.942 534.755 822.622 533.577C822.309 532.392 821.98 531.391 821.708 530.574C821.451 529.789 821.251 529.165 821.098 528.684C820.954 528.268 820.89 528.036 820.906 528.028Z" fill="#263238"/>
<path d="M855.855 514.844C855.863 514.844 855.855 514.924 855.839 515.068C855.815 515.244 855.775 515.46 855.735 515.717C855.631 516.285 855.502 517.134 855.278 518.207C854.829 520.362 854.075 523.461 852.913 527.225C851.75 530.989 850.154 535.401 848.262 540.246C846.378 545.099 844.189 550.377 842.121 555.999C840.02 561.613 838.401 567.09 836.877 572.063C835.37 577.037 833.935 581.505 832.556 585.197C831.185 588.889 829.87 591.796 828.867 593.766C828.386 594.759 827.962 595.496 827.681 596.008C827.553 596.241 827.44 596.425 827.352 596.585C827.28 596.713 827.232 596.777 827.224 596.769C827.216 596.761 827.248 596.697 827.304 596.561C827.384 596.401 827.472 596.201 827.585 595.968C827.833 595.448 828.234 594.695 828.683 593.686C829.621 591.7 830.888 588.785 832.211 585.085C833.55 581.393 834.945 576.924 836.428 571.943C837.927 566.97 839.539 561.468 841.648 555.839C843.724 550.201 845.929 544.923 847.829 540.086C849.737 535.257 851.365 530.868 852.568 527.129C853.778 523.389 854.572 520.313 855.085 518.175C855.342 517.11 855.502 516.269 855.639 515.709C855.703 515.452 855.751 515.244 855.791 515.068C855.823 514.916 855.847 514.844 855.855 514.844Z" fill="#263238"/>
<path d="M783.904 503.777C782.437 502.32 779.991 503.841 780.601 505.827C781.218 507.837 782.156 510.432 783.535 513.355C786.742 520.162 796.163 544.596 800.581 558.018C804.99 571.432 811.204 596.466 811.204 596.466L820.625 594.936C820.625 594.936 812.006 553.805 803.587 538.982C796.812 527.081 790.045 509.871 783.904 503.777Z" fill="#455A64"/>
<path d="M803.146 566.41C803.178 566.402 803.347 566.803 803.635 567.539C803.916 568.276 804.293 569.357 804.718 570.695C805.584 573.378 806.65 577.125 807.716 581.29C808.783 585.454 809.673 589.25 810.29 591.997C810.571 593.294 810.811 594.391 810.996 595.256C811.156 596.025 811.22 596.458 811.188 596.466C811.156 596.474 811.02 596.057 810.803 595.296C810.571 594.44 810.282 593.358 809.937 592.077C809.216 589.25 808.27 585.526 807.219 581.41C806.153 577.254 805.143 573.498 804.365 570.791C803.996 569.518 803.683 568.444 803.435 567.588C803.218 566.843 803.114 566.418 803.146 566.41Z" fill="#263238"/>
<path d="M815.926 595.704C815.918 595.704 815.902 595.616 815.87 595.456C815.838 595.264 815.806 595.016 815.766 594.711C815.67 594.063 815.581 593.094 815.381 591.86C815.036 589.386 814.419 585.83 813.409 581.481C812.406 577.133 810.939 572.024 808.999 566.45C807.067 560.876 804.645 554.854 801.895 548.623C796.355 536.17 790.815 525.127 787.183 516.958C785.347 512.882 783.92 509.558 782.982 507.244C782.501 506.091 782.164 505.178 781.923 504.569C781.819 504.281 781.731 504.057 781.659 503.864C781.603 503.704 781.578 503.624 781.586 503.616C781.594 503.616 781.635 503.688 781.707 503.84C781.787 504.025 781.891 504.249 782.011 504.521C782.292 505.162 782.669 506.043 783.158 507.156C784.152 509.446 785.619 512.746 787.495 516.798C791.216 524.918 796.796 535.938 802.344 548.407C805.094 554.645 807.508 560.692 809.424 566.29C811.34 571.887 812.775 577.021 813.745 581.393C814.716 585.758 815.285 589.338 815.565 591.828C815.734 593.07 815.79 594.039 815.862 594.695C815.886 595 815.902 595.248 815.918 595.44C815.934 595.616 815.934 595.704 815.926 595.704Z" fill="#263238"/>
<path d="M820.617 594.943C820.585 594.951 820.473 594.383 820.296 593.366C820.112 592.261 819.864 590.803 819.567 589.041C818.917 585.398 817.923 580.376 816.504 574.915C815.093 569.445 813.506 564.576 812.279 561.084C811.677 559.402 811.18 558.009 810.804 556.952C810.451 555.975 810.274 555.43 810.306 555.422C810.339 555.406 810.579 555.927 810.988 556.888C811.397 557.841 811.958 559.234 812.616 560.972C813.922 564.44 815.574 569.309 816.993 574.794C818.42 580.28 819.358 585.325 819.92 588.993C820.184 590.827 820.393 592.317 820.497 593.35C820.601 594.367 820.649 594.935 820.617 594.943Z" fill="#263238"/>
<path d="M839.948 593.591H803.179V638.333H839.948V593.591Z" fill="#26BBFB"/>
<g opacity="0.3">
<path d="M839.948 593.591H803.179V638.333H839.948V593.591Z" fill="black"/>
</g>
<path d="M828.218 593.591H795.603V638.333H828.218V593.591Z" fill="#26BBFB"/>
<path d="M89.6524 541.839C79.6324 535.432 65.7379 535.304 55.9874 542.121C46.7244 548.592 42.0288 560.356 42.4393 571.633C42.8499 582.91 48.3153 596.686 58.5534 602.619L88.5747 602.504C98.1584 595.456 104.65 584.115 105.099 572.235C105.548 560.356 99.6723 548.259 89.6524 541.839Z" fill="#455A64"/>
<path d="M74.8732 603.695C74.809 603.695 74.7449 602.772 74.6807 601.119C74.6294 599.274 74.5653 596.916 74.4755 594.084C74.3215 588.151 74.0906 579.949 73.6929 570.889C73.2951 561.829 72.8076 553.641 72.4356 547.72C72.2688 544.901 72.1276 542.543 72.0122 540.698C71.9224 539.032 71.9095 538.122 71.9737 538.109C72.0378 538.109 72.179 539.019 72.3842 540.659C72.5895 542.313 72.8333 544.709 73.1027 547.669C73.6415 553.59 74.2445 561.791 74.6423 570.851C75.04 579.911 75.1683 588.125 75.1426 594.071C75.1298 597.044 75.0913 599.453 75.04 601.106C75.0015 602.785 74.9373 603.695 74.8732 603.695Z" fill="#263238"/>
<path d="M45.4674 569.069C45.4417 569.339 43.8124 569.415 41.8238 569.249C39.8352 569.082 38.2315 568.736 38.2571 568.48C38.2828 568.211 39.9122 568.134 41.9008 568.301C43.8893 568.467 45.4802 568.813 45.4674 569.069Z" fill="#263238"/>
<path d="M46.0189 558.96C45.9163 559.203 44.505 558.819 42.8757 558.088C41.2463 557.371 40.0147 556.589 40.1173 556.345C40.2199 556.102 41.6312 556.486 43.2606 557.217C44.9028 557.934 46.1344 558.716 46.0189 558.96Z" fill="#263238"/>
<path d="M51.2408 551.451C51.0997 551.669 49.5217 550.926 47.8795 549.568C46.2373 548.209 45.1981 546.8 45.3905 546.62C45.583 546.441 46.8916 547.517 48.4825 548.824C50.0734 550.144 51.382 551.221 51.2408 551.451Z" fill="#263238"/>
<path d="M56.4747 544.363C56.2309 544.465 55.474 543.286 54.7812 541.723C54.0884 540.159 53.7163 538.801 53.9601 538.699C54.2039 538.596 54.9608 539.775 55.6536 541.338C56.3592 542.902 56.7185 544.247 56.4747 544.363Z" fill="#263238"/>
<path d="M64.6992 539.328C64.4683 539.443 63.6472 538.174 63.1084 536.431C62.5567 534.689 62.5182 533.189 62.7748 533.138C63.0442 533.087 63.4933 534.458 64.0193 536.137C64.5453 537.828 64.943 539.225 64.6992 539.328Z" fill="#263238"/>
<path d="M78.4265 533.663C78.6703 533.753 78.5292 534.829 78.0801 536.06C77.6439 537.303 77.0794 538.225 76.8356 538.148C76.5919 538.059 76.733 536.982 77.182 535.752C77.6182 534.509 78.1828 533.573 78.4265 533.663Z" fill="#263238"/>
<path d="M88.6134 538.033C88.793 538.225 88.1387 539.122 87.1508 540.032C86.1629 540.942 85.2264 541.519 85.0468 541.326C84.8671 541.134 85.5215 540.237 86.5093 539.327C87.4844 538.417 88.4338 537.828 88.6134 538.033Z" fill="#263238"/>
<path d="M97.5679 543.812C97.7219 544.03 96.9136 544.824 95.7846 545.593C94.6556 546.362 93.6164 546.798 93.4624 546.58C93.3085 546.362 94.1039 545.568 95.2457 544.799C96.3876 544.03 97.4268 543.594 97.5679 543.812Z" fill="#263238"/>
<path d="M103.932 552.423C104.035 552.667 102.777 553.436 101.122 554.14C99.4672 554.845 98.0431 555.217 97.9404 554.973C97.8378 554.73 99.0951 553.961 100.737 553.256C102.405 552.551 103.829 552.18 103.932 552.423Z" fill="#263238"/>
<path d="M106.434 561.83C106.472 562.086 105.189 562.471 103.586 562.663C101.982 562.868 100.648 562.804 100.622 562.547C100.583 562.291 101.866 561.907 103.47 561.714C105.074 561.509 106.408 561.561 106.434 561.83Z" fill="#263238"/>
<path d="M107.742 573.402C107.639 573.646 106.28 573.287 104.701 572.608C103.123 571.928 101.943 571.172 102.046 570.929C102.148 570.685 103.508 571.044 105.086 571.723C106.664 572.403 107.845 573.159 107.742 573.402Z" fill="#263238"/>
<path d="M106.6 583.334C106.51 583.577 104.791 583.167 102.995 581.988C101.186 580.822 100.121 579.412 100.313 579.233C100.506 579.041 101.814 580.079 103.521 581.181C105.214 582.296 106.69 583.078 106.6 583.334Z" fill="#263238"/>
<path d="M101.417 592.367C101.263 592.572 99.89 591.765 98.5814 590.355C97.2599 588.946 96.5671 587.523 96.7724 587.382C96.9905 587.228 98.0169 588.356 99.2742 589.715C100.532 591.06 101.584 592.162 101.417 592.367Z" fill="#263238"/>
<path d="M52.2668 593.431C52.3951 593.662 50.9453 594.661 49.0594 595.635C47.1606 596.622 45.5312 597.224 45.4029 596.993C45.2746 596.763 46.7244 595.776 48.6103 594.789C50.5091 593.803 52.1513 593.2 52.2668 593.431Z" fill="#263238"/>
<path d="M47.7766 585.254C47.892 585.498 46.7374 586.254 45.1978 586.946C43.6711 587.638 42.3368 588.01 42.2213 587.766C42.1059 587.523 43.2605 586.767 44.8001 586.075C46.3396 585.383 47.6739 585.011 47.7766 585.254Z" fill="#263238"/>
<path d="M44.4797 578.014C44.5182 578.27 43.0941 578.693 41.3108 578.949C39.5275 579.206 38.0393 579.193 38.0008 578.937C37.9623 578.68 39.3864 578.257 41.1697 578.001C42.9658 577.745 44.4412 577.745 44.4797 578.014Z" fill="#263238"/>
<path d="M55.3077 574.017C55.3846 574.26 53.999 574.914 52.1516 575.119C50.3041 575.337 48.8159 575.003 48.8287 574.747C48.8415 574.478 50.2913 574.363 52.0361 574.158C53.7938 573.978 55.2307 573.76 55.3077 574.017Z" fill="#263238"/>
<path d="M64.3015 565.086C64.3785 565.329 63.2751 565.893 61.7869 566.034C60.2986 566.188 59.1183 565.854 59.144 565.598C59.1696 565.329 60.3115 565.227 61.6971 565.086C63.0827 564.945 64.2245 564.829 64.3015 565.086Z" fill="#263238"/>
<path d="M66.0203 557.921C65.9305 558.178 64.7373 557.985 63.3517 557.511C61.9661 557.037 60.9141 556.448 61.0039 556.191C61.0937 555.948 62.2868 556.127 63.6724 556.601C65.0452 557.088 66.0972 557.678 66.0203 557.921Z" fill="#263238"/>
<path d="M69.3176 550.682C69.138 550.861 68.3169 550.323 67.7268 549.311C67.1366 548.298 67.0853 547.324 67.3291 547.248C67.5857 547.171 68.0347 547.927 68.5479 548.824C69.0739 549.734 69.5101 550.503 69.3176 550.682Z" fill="#263238"/>
<path d="M65.3404 580.322C65.4046 580.578 64.3654 581.053 63.0311 581.373C62.2613 581.565 61.5557 581.655 61.0938 581.655L60.9014 581.091C61.2478 581.027 61.4659 581.04 61.5172 581.142C61.5557 581.245 61.4274 581.424 61.1451 581.629L60.9527 581.065C61.3632 580.848 62.0304 580.617 62.8002 580.425C64.1473 580.13 65.2763 580.066 65.3404 580.322Z" fill="#263238"/>
<path d="M67.1881 593.021C67.2907 593.265 65.9693 594.021 64.2501 594.687C62.5309 595.367 61.0555 595.713 60.9529 595.469C60.8502 595.226 62.1717 594.47 63.8908 593.803C65.6228 593.124 67.0983 592.765 67.1881 593.021Z" fill="#263238"/>
<path d="M57.0399 587.382C57.1297 587.638 56.2444 588.164 55.0769 588.548C53.9094 588.945 52.8959 589.061 52.8061 588.817C52.7163 588.561 53.6015 588.048 54.769 587.651C55.9365 587.241 56.95 587.126 57.0399 587.382Z" fill="#263238"/>
<path d="M57.8095 561.549C57.7453 561.805 56.2186 561.651 54.4481 561.023C52.6776 560.395 51.3947 559.549 51.5101 559.319C51.6256 559.075 53.0497 559.511 54.7689 560.113C56.488 560.728 57.8736 561.279 57.8095 561.549Z" fill="#263238"/>
<path d="M82.3906 558.728C82.5317 558.946 81.6721 559.779 80.4661 560.573C79.2601 561.368 78.1568 561.829 78.0157 561.611C77.8745 561.393 78.7341 560.56 79.9401 559.766C81.1461 558.984 82.2494 558.51 82.3906 558.728Z" fill="#263238"/>
<path d="M83.7243 571.48C83.7756 571.736 82.8775 572.146 81.6972 572.39C80.5297 572.633 79.5418 572.62 79.4777 572.364C79.4264 572.108 80.3244 571.698 81.5048 571.454C82.6851 571.211 83.673 571.224 83.7243 571.48Z" fill="#263238"/>
<path d="M85.2773 585.806C85.1618 586.05 83.866 585.678 82.365 584.986C80.8639 584.294 79.7477 583.538 79.8632 583.294C79.9787 583.051 81.2744 583.423 82.7755 584.115C84.2766 584.819 85.3928 585.575 85.2773 585.806Z" fill="#263238"/>
<path d="M81.9931 599.762C81.7879 599.929 80.9411 599.237 80.1072 598.224C79.2732 597.199 78.7601 596.238 78.9525 596.072C79.1578 595.905 80.0045 596.597 80.8385 597.609C81.6852 598.635 82.1984 599.596 81.9931 599.762Z" fill="#263238"/>
<path d="M81.3263 549.348C81.4931 549.553 80.9286 550.258 79.9663 550.732C79.0041 551.219 78.106 551.245 78.0419 550.989C77.9649 550.732 78.6705 550.309 79.5301 549.874C80.4025 549.451 81.1595 549.143 81.3263 549.348Z" fill="#263238"/>
<path d="M93.373 562.201C93.4628 562.445 92.3466 563.06 90.8199 563.265C89.2931 563.483 88.0615 563.188 88.0743 562.932C88.0871 562.663 89.2675 562.509 90.6916 562.317C92.1028 562.124 93.2832 561.945 93.373 562.201Z" fill="#263238"/>
<path d="M90.974 550.669C91.0894 550.899 89.9861 551.694 88.408 552.193C86.83 552.693 85.47 552.693 85.4316 552.437C85.3931 552.168 86.6119 551.758 88.1129 551.284C89.614 550.797 90.8457 550.425 90.974 550.669Z" fill="#263238"/>
<path d="M96.0032 580.078C96.0032 580.335 94.1044 580.501 91.8207 580.091C89.537 579.681 87.8179 578.861 87.9077 578.617C87.9975 578.361 89.7808 578.758 91.9875 579.143C94.1942 579.553 96.0032 579.809 96.0032 580.078Z" fill="#263238"/>
<path d="M91.5252 596.839C91.3713 597.045 89.9729 596.224 88.5873 594.828C87.1888 593.431 86.3806 592.034 86.5858 591.88C86.8039 591.714 87.9201 592.803 89.2672 594.148C90.6015 595.507 91.692 596.634 91.5252 596.839Z" fill="#263238"/>
<path d="M71.8448 537.021C71.9859 537.226 68.0215 538.828 63.4414 543.659C58.8612 548.375 54.1399 556.704 52.9724 566.764C52.4207 571.762 52.8954 576.605 53.601 580.924C54.3452 585.243 55.3459 589.087 56.2568 592.291C57.1805 595.494 58.0273 598.057 58.5918 599.826C59.1563 601.607 59.4642 602.594 59.4 602.619C59.3359 602.645 58.9253 601.697 58.2454 599.954C57.5654 598.211 56.6288 595.674 55.6153 592.483C54.6146 589.292 53.5497 585.448 52.7415 581.078C51.9717 576.721 51.4585 571.8 52.023 566.661C53.2162 556.371 58.1556 547.888 62.9538 543.198C65.3402 540.814 67.5853 539.225 69.2275 538.302C70.023 537.803 70.7029 537.533 71.152 537.303C71.5882 537.085 71.8191 536.995 71.8448 537.021Z" fill="#263238"/>
<path d="M84.9052 603.222C84.7 603.119 87.0606 599.48 89.216 592.944C91.4355 586.473 93.2702 576.9 91.7948 566.508C91.102 561.318 89.6009 556.512 87.7149 552.411C85.752 548.362 83.2246 545.043 80.7613 542.723C78.2082 540.468 75.6936 539.174 73.9359 538.418C72.1654 537.674 71.1006 537.508 71.1134 537.431C71.1134 537.405 71.3828 537.418 71.896 537.495C72.3964 537.585 73.1405 537.751 74.0642 538.084C75.8988 538.751 78.4904 539.968 81.1975 542.224C83.8276 544.569 86.432 547.875 88.5104 552.04C90.4861 556.217 92.0385 561.1 92.7441 566.379C94.2452 576.977 92.2695 586.691 89.8575 593.175C89.3186 594.828 88.613 596.25 88.0998 597.519C87.484 598.749 86.9708 599.826 86.509 600.672C85.5339 602.35 84.9694 603.26 84.9052 603.222Z" fill="#263238"/>
<path d="M47.7764 600.967H100.622L100.942 611.526H47.7764V600.967Z" fill="#26BBFB"/>
<path d="M52.2666 606.246L55.3072 638.488H93.9372L97.0292 606.592L52.2666 606.246Z" fill="#26BBFB"/>
<path d="M100.942 611.655C100.942 611.924 89.049 612.129 74.3719 612.129C59.6948 612.129 47.8018 611.911 47.8018 611.655C47.8018 611.399 59.6948 611.181 74.3719 611.181C89.049 611.181 100.942 611.386 100.942 611.655Z" fill="#263238"/>
<path d="M95.5669 621.47C95.6182 621.496 95.259 622.239 94.4379 623.482C93.6039 624.712 92.2953 626.455 90.3452 628.313L90.1014 628.544L89.8577 628.288C87.3174 625.622 83.8149 622.354 79.5042 619.24L80.0943 619.215C78.6189 620.509 77.0794 621.855 75.5013 623.239C73.6282 624.866 71.8064 626.455 70.0744 627.954L69.7793 628.211L69.4842 627.954C66.1999 625.186 63.1977 622.675 60.6574 620.548L61.1706 620.496C59.3488 622.713 57.8221 624.584 56.6033 626.058C55.4999 627.365 54.8713 628.057 54.8071 628.018C54.7558 627.98 55.2818 627.186 56.2825 625.814C57.4244 624.289 58.8741 622.354 60.5933 620.061L60.8114 619.766L61.1065 620.009C63.6852 622.098 66.7259 624.559 70.0616 627.262L69.4586 627.275C71.1906 625.763 72.9995 624.174 74.8598 622.534C76.4379 621.15 77.9903 619.817 79.4657 618.523L79.7479 618.279L80.043 618.497C84.3923 621.688 87.8691 625.071 90.3452 627.839L89.8577 627.826C93.7964 624.264 95.4257 621.355 95.5669 621.47Z" fill="#263238"/>
<path d="M725.156 629.627H165.887C155.559 629.627 147.194 621.272 147.194 610.956V254.194C147.194 243.879 155.559 235.523 165.887 235.523H725.156C735.484 235.523 743.849 243.879 743.849 254.194V610.956C743.849 621.272 735.484 629.627 725.156 629.627Z" fill="#455A64"/>
<path d="M751.251 638.664H150.491C137.88 638.664 127.654 628.451 127.654 615.854V604.18H774.075V615.854C774.088 628.451 763.863 638.664 751.251 638.664Z" fill="#455A64"/>
<path d="M386.697 600.488L394.729 613.226H507.604L515.045 600.488H386.697Z" fill="#263238"/>
<path d="M738.717 600.489C738.717 600.707 606.289 600.873 442.968 600.873C279.596 600.873 147.194 600.707 147.194 600.489C147.194 600.271 279.596 600.104 442.968 600.104C606.289 600.104 738.717 600.271 738.717 600.489Z" fill="#263238"/>
<path d="M720.23 590.076H168.479C166.157 590.076 164.284 588.192 164.284 585.885V262.391C164.284 260.071 166.17 258.2 168.479 258.2H720.23C722.552 258.2 724.425 260.084 724.425 262.391V585.872C724.425 588.192 722.539 590.076 720.23 590.076Z" fill="#EBEBEB"/>
<path d="M723.822 590.56H163.68L164.283 283.007H723.822V590.56Z" fill="white"/>
<path d="M210.226 271.012C210.226 273.486 208.225 275.485 205.749 275.485C203.272 275.485 201.271 273.486 201.271 271.012C201.271 268.539 203.272 266.54 205.749 266.54C208.225 266.54 210.226 268.552 210.226 271.012Z" fill="#263238"/>
<path d="M183.104 271.012C183.104 273.486 181.103 275.485 178.627 275.485C176.151 275.485 174.149 273.486 174.149 271.012C174.149 268.539 176.151 266.54 178.627 266.54C181.103 266.553 183.104 268.552 183.104 271.012Z" fill="#263238"/>
<path d="M196.126 271.012C196.126 273.486 194.125 275.485 191.649 275.485C189.173 275.485 187.171 273.486 187.171 271.012C187.171 268.539 189.173 266.54 191.649 266.54C194.125 266.553 196.126 268.552 196.126 271.012Z" fill="#263238"/>
<path d="M724.425 560.854H163.68V590.559H724.425V560.854Z" fill="#263238"/>
<path d="M184.862 579.141V580.089H180.397V579.333L182.809 577.052C183.4 576.489 183.502 576.142 183.502 575.796C183.502 575.245 183.117 574.925 182.373 574.925C181.783 574.925 181.296 575.13 180.949 575.553L180.167 574.951C180.628 574.323 181.475 573.951 182.463 573.951C183.784 573.951 184.631 574.618 184.631 575.694C184.631 576.283 184.464 576.822 183.631 577.603L182.014 579.141H184.862Z" fill="white"/>
<path d="M185.478 576.142C185.478 575.707 185.799 575.425 186.184 575.425C186.569 575.425 186.889 575.707 186.889 576.142C186.889 576.552 186.569 576.86 186.184 576.86C185.799 576.86 185.478 576.552 185.478 576.142ZM185.478 579.436C185.478 579 185.799 578.718 186.184 578.718C186.569 578.718 186.889 579 186.889 579.436C186.889 579.846 186.569 580.153 186.184 580.153C185.799 580.153 185.478 579.846 185.478 579.436Z" fill="white"/>
<path d="M189.712 574.041V580.09H188.595V574.977H187.312V574.028H189.712V574.041Z" fill="white"/>
<path d="M196.319 578.717H195.242V580.089H194.151V578.717H190.828V577.936L193.817 574.04H195.011L192.201 577.769H194.189V576.552H195.242V577.769H196.319V578.717Z" fill="white"/>
<path d="M665.82 576.297H206.211V578.386H665.82V576.297Z" fill="white"/>
<path d="M349.492 574.041H205.864V579.628H349.492V574.041Z" fill="#26BBFB"/>
<path d="M354.136 577.347C354.136 581.205 351.006 584.331 347.144 584.331C343.282 584.331 340.152 581.205 340.152 577.347C340.152 573.49 343.282 570.363 347.144 570.363C350.993 570.363 354.136 573.49 354.136 577.347Z" fill="#26BBFB"/>
<path d="M677.392 577.283C677.392 578.488 676.417 579.244 675.172 579.244C673.517 579.244 672.555 578.18 672.555 576.232C672.555 574.156 673.761 573.016 675.519 573.016C676.122 573.016 676.699 573.144 677.11 573.4L676.699 574.246C676.366 574.028 675.968 573.951 675.545 573.951C674.403 573.951 673.684 574.656 673.684 576.04V576.053C674.043 575.63 674.634 575.425 675.301 575.425C676.507 575.425 677.392 576.142 677.392 577.283ZM676.301 577.334C676.301 576.706 675.827 576.309 675.095 576.309C674.364 576.309 673.864 576.745 673.864 577.347C673.864 577.911 674.313 578.372 675.121 578.372C675.814 578.359 676.301 577.962 676.301 577.334Z" fill="white"/>
<path d="M677.943 575.207C677.943 574.771 678.264 574.489 678.649 574.489C679.034 574.489 679.355 574.771 679.355 575.207C679.355 575.617 679.034 575.924 678.649 575.924C678.264 575.924 677.943 575.617 677.943 575.207ZM677.943 578.5C677.943 578.065 678.264 577.783 678.649 577.783C679.034 577.783 679.355 578.065 679.355 578.5C679.355 578.91 679.034 579.218 678.649 579.218C678.264 579.218 677.943 578.91 677.943 578.5Z" fill="white"/>
<path d="M680.086 576.13C680.086 574.143 681.176 573.016 682.613 573.016C684.063 573.016 685.154 574.143 685.154 576.13C685.154 578.116 684.063 579.244 682.613 579.244C681.176 579.244 680.086 578.116 680.086 576.13ZM684.012 576.13C684.012 574.669 683.447 573.99 682.613 573.99C681.792 573.99 681.215 574.669 681.215 576.13C681.215 577.591 681.792 578.27 682.613 578.27C683.447 578.27 684.012 577.591 684.012 576.13Z" fill="white"/>
<path d="M685.898 576.13C685.898 574.143 686.989 573.016 688.425 573.016C689.875 573.016 690.966 574.143 690.966 576.13C690.966 578.116 689.875 579.244 688.425 579.244C686.989 579.244 685.898 578.116 685.898 576.13ZM689.824 576.13C689.824 574.669 689.259 573.99 688.425 573.99C687.604 573.99 687.027 574.669 687.027 576.13C687.027 577.591 687.604 578.27 688.425 578.27C689.259 578.27 689.824 577.591 689.824 576.13Z" fill="white"/>
<path d="M700.754 575.758H698.65V569.723H704.68V571.811H700.754V575.758Z" fill="white"/>
<path d="M704.693 583.627H698.65V577.604H700.742V581.539H704.693V583.627Z" fill="white"/>
<path d="M714.302 583.627H708.272V581.538H712.211V577.591H714.302V583.627Z" fill="white"/>
<path d="M714.315 575.746H712.224V571.811H708.272V569.723H714.315V575.746Z" fill="white"/>
<path d="M240.491 301.293H207.48L190.969 329.844L207.48 358.408H240.491L257.003 329.844L240.491 301.293Z" fill="#EBEBEB"/>
<path d="M210.175 335.432C208.699 333.804 207.211 332.151 206.134 330.229C205.056 328.307 204.414 326.077 204.774 323.898C204.979 322.63 205.518 321.425 205.608 320.144C205.723 318.375 204.979 316.53 205.608 314.877C206.583 312.288 210.072 311.891 212.189 310.11C213.831 308.713 214.64 306.458 216.449 305.291C218.027 304.266 220.067 304.292 221.927 304.561C223.787 304.83 225.673 305.291 227.533 305.048C228.868 304.869 230.112 304.33 231.421 304.01C232.729 303.69 234.179 303.6 235.334 304.279C236.488 304.958 237.143 306.599 236.386 307.701C238.554 306.701 241.3 308.393 241.89 310.686C242.48 312.993 241.3 315.479 239.465 317.004C237.63 318.529 235.257 319.234 232.922 319.67C226.302 320.913 219.104 320.208 213.395 316.632" fill="#263238"/>
<path d="M240.786 342.491C240.568 338.404 239.414 330.023 238.297 322.449C237.091 314.299 229.817 308.456 221.593 309.007L220.772 309.058C211.997 310.16 208.032 318.22 209.379 326.96L211.958 358.42H233.384C233.384 358.42 232.883 352.897 232.87 352.846C232.87 352.833 241.248 350.949 240.786 342.491Z" fill="#FFBE9D"/>
<path d="M232.871 352.705C232.871 352.705 227.546 353.499 221.619 350.309C221.619 350.309 224.634 356.216 233.038 354.896L232.871 352.705Z" fill="#EB996E"/>
<path d="M235.565 329.701C235.629 330.341 235.142 330.918 234.475 330.995C233.807 331.072 233.217 330.623 233.153 329.983C233.089 329.342 233.577 328.765 234.231 328.688C234.911 328.611 235.501 329.06 235.565 329.701Z" fill="#263238"/>
<path d="M236.747 326.709C236.606 326.876 235.644 326.261 234.348 326.351C233.052 326.427 232.141 327.158 231.988 327.004C231.911 326.94 232.052 326.645 232.437 326.312C232.821 325.979 233.501 325.646 234.31 325.594C235.118 325.543 235.824 325.8 236.234 326.081C236.67 326.351 236.824 326.632 236.747 326.709Z" fill="#263238"/>
<path d="M223.274 330.574C223.338 331.215 222.85 331.791 222.183 331.868C221.516 331.945 220.926 331.497 220.862 330.856C220.797 330.215 221.285 329.639 221.939 329.562C222.619 329.498 223.209 329.946 223.274 330.574Z" fill="#263238"/>
<path d="M223.965 327.789C223.823 327.956 222.861 327.341 221.565 327.431C220.27 327.508 219.359 328.238 219.205 328.084C219.128 328.02 219.269 327.725 219.667 327.392C220.051 327.059 220.731 326.726 221.54 326.675C222.348 326.623 223.054 326.88 223.464 327.161C223.888 327.443 224.042 327.713 223.965 327.789Z" fill="#263238"/>
<path d="M229.344 337.119C229.331 337.042 230.127 336.85 231.435 336.594C231.769 336.543 232.077 336.453 232.115 336.222C232.179 335.979 232.013 335.633 231.833 335.248C231.461 334.467 231.089 333.646 230.678 332.788C229.075 329.277 227.881 326.393 228.023 326.329C228.164 326.265 229.588 329.059 231.191 332.57C231.576 333.441 231.948 334.262 232.308 335.056C232.462 335.428 232.705 335.838 232.564 336.35C232.487 336.607 232.256 336.799 232.051 336.876C231.846 336.953 231.653 336.965 231.487 336.991C230.165 337.132 229.357 337.196 229.344 337.119Z" fill="#263238"/>
<path d="M223.967 322.681C223.864 323.04 222.556 322.963 221.042 323.245C219.515 323.501 218.322 324.027 218.091 323.732C217.988 323.591 218.181 323.245 218.655 322.861C219.13 322.489 219.887 322.105 220.798 321.951C221.709 321.784 222.556 321.874 223.133 322.066C223.71 322.258 224.005 322.515 223.967 322.681Z" fill="#263238"/>
<path d="M236.012 322.979C235.807 323.287 234.883 323.043 233.806 323.094C232.728 323.12 231.83 323.428 231.599 323.133C231.496 322.992 231.625 322.684 231.997 322.377C232.369 322.069 233.01 321.8 233.754 321.775C234.499 321.749 235.153 321.967 235.551 322.249C235.961 322.531 236.115 322.825 236.012 322.979Z" fill="#263238"/>
<path d="M210.496 333.162C210.342 333.111 204.555 331.83 205.133 337.609C205.71 343.376 211.971 341.505 211.958 341.338C211.945 341.159 210.496 333.162 210.496 333.162Z" fill="#FFBE9D"/>
<path d="M209.39 339.425C209.364 339.412 209.3 339.502 209.133 339.605C208.979 339.694 208.697 339.771 208.376 339.694C207.747 339.528 207.132 338.618 207.003 337.58C206.939 337.054 207.003 336.542 207.144 336.119C207.273 335.683 207.529 335.363 207.824 335.273C208.119 335.171 208.363 335.337 208.44 335.491C208.53 335.645 208.504 335.76 208.543 335.773C208.556 335.786 208.658 335.67 208.581 335.427C208.543 335.312 208.466 335.183 208.312 335.094C208.158 334.991 207.953 334.953 207.735 335.004C207.298 335.081 206.926 335.529 206.772 336.004C206.593 336.478 206.503 337.054 206.58 337.644C206.734 338.797 207.44 339.835 208.299 339.989C208.71 340.053 209.043 339.899 209.21 339.745C209.39 339.566 209.415 339.438 209.39 339.425Z" fill="#EB996E"/>
<path d="M237.861 314.543C237.463 316.837 232.806 318.938 228.932 318.836C225.365 318.733 223.607 316.965 221.016 315.709C219.373 314.915 219.373 314.915 217.154 315.273C215.358 315.568 214.421 317.683 213.408 319.195C215.332 323.385 214.55 328.255 213.741 332.791C213.651 333.291 213.536 333.829 213.151 334.175C212.497 334.752 211.445 334.406 210.816 333.816C209.79 332.881 209.328 331.497 208.994 330.151C208.224 327.089 207.942 323.885 208.417 320.771C208.904 317.657 210.187 314.62 212.33 312.3C214.999 309.391 218.886 307.713 222.837 307.508C226.776 307.303 230.74 308.52 234.038 310.686C235.564 311.698 237.001 312.928 237.861 314.543Z" fill="#263238"/>
<path d="M230.189 340.045C229.201 339.583 228.226 339.135 227.238 338.674C227.071 338.597 226.892 338.52 226.699 338.533C226.494 338.558 226.327 338.712 226.186 338.879C225.506 339.699 225.327 340.955 225.866 341.89C226.392 342.826 227.636 343.313 228.624 342.902C229.663 342.467 230.176 341.262 230.253 340.134L230.189 340.045Z" fill="#EB996E"/>
<path d="M228.726 343.121C228.778 343.172 228.111 343.595 226.994 343.274C226.456 343.108 225.84 342.698 225.468 342.031C225.083 341.378 224.942 340.455 225.275 339.622C225.429 339.212 225.686 338.84 225.994 338.558C226.148 338.418 226.302 338.289 226.494 338.187C226.687 338.046 227.084 338.033 227.264 338.136C227.931 338.507 228.393 338.828 228.842 339.122C229.701 339.699 230.215 340.083 230.163 340.173C230.112 340.25 229.522 340.007 228.598 339.532C228.059 339.25 227.546 338.981 227.02 338.712C226.892 338.674 226.905 338.674 226.789 338.738C226.674 338.815 226.533 338.917 226.43 339.033C226.199 339.263 226.007 339.545 225.891 339.866C225.635 340.506 225.724 341.211 226.007 341.749C226.289 342.288 226.725 342.646 227.161 342.839C228.059 343.21 228.714 343.005 228.726 343.121Z" fill="#263238"/>
<path d="M227.803 329.845C227.739 329.845 227.752 329.307 227.482 328.41C227.226 327.525 226.61 326.231 225.276 325.244C223.98 324.258 221.863 323.707 219.823 324.476C217.796 325.18 216.051 327.333 216.077 329.845C216.051 332.357 217.796 334.509 219.823 335.214C221.863 335.983 223.98 335.432 225.276 334.445C226.61 333.459 227.238 332.164 227.482 331.28C227.752 330.383 227.739 329.845 227.803 329.845C227.829 329.845 227.841 329.973 227.854 330.229C227.867 330.486 227.841 330.87 227.739 331.344C227.546 332.293 226.969 333.702 225.558 334.817C224.198 335.932 221.876 336.598 219.605 335.791C217.347 335.048 215.371 332.651 215.397 329.845C215.371 327.039 217.347 324.642 219.605 323.899C221.889 323.079 224.198 323.745 225.558 324.873C226.969 325.988 227.546 327.41 227.739 328.346C227.841 328.82 227.867 329.204 227.854 329.46C227.841 329.717 227.829 329.845 227.803 329.845Z" fill="#263238"/>
<path d="M242.21 329.28C242.146 329.28 242.146 328.754 241.902 327.883C241.659 327.024 241.056 325.768 239.747 324.807C238.49 323.846 236.424 323.321 234.436 324.064C232.46 324.743 230.766 326.845 230.792 329.292C230.766 331.74 232.473 333.829 234.436 334.521C236.424 335.264 238.49 334.739 239.747 333.778C241.056 332.816 241.659 331.561 241.902 330.702C242.159 329.805 242.146 329.28 242.21 329.28C242.236 329.28 242.249 329.408 242.262 329.664C242.274 329.908 242.249 330.279 242.159 330.753C241.979 331.676 241.415 333.047 240.042 334.149C238.721 335.238 236.463 335.892 234.23 335.097C232.024 334.367 230.099 332.035 230.125 329.292C230.099 326.55 232.024 324.218 234.23 323.487C236.45 322.693 238.708 323.346 240.042 324.436C241.415 325.525 241.979 326.909 242.159 327.832C242.262 328.293 242.274 328.664 242.262 328.921C242.249 329.151 242.236 329.28 242.21 329.28Z" fill="#263238"/>
<path d="M230.459 327.948C230.331 328.076 229.753 327.704 228.983 327.73C228.214 327.73 227.662 328.127 227.521 327.999C227.341 327.909 227.88 327.076 228.971 327.051C230.061 327.051 230.626 327.858 230.459 327.948Z" fill="#263238"/>
<path d="M216.102 328.986C216.218 329.14 215.089 330.152 213.601 331.267C212.112 332.382 210.804 333.164 210.701 333.01C210.586 332.856 211.715 331.844 213.203 330.729C214.691 329.627 215.987 328.845 216.102 328.986Z" fill="#263238"/>
<path d="M335.174 329.563C335.174 329.742 320.33 329.896 302.022 329.896C283.714 329.896 268.87 329.742 268.87 329.563C268.87 329.383 283.714 329.229 302.022 329.229C320.343 329.229 335.174 329.37 335.174 329.563Z" fill="#263238"/>
<path d="M304.524 336.483C304.524 336.662 296.646 336.816 286.922 336.816C277.197 336.816 269.319 336.662 269.319 336.483C269.319 336.303 277.197 336.149 286.922 336.149C296.634 336.149 304.524 336.303 304.524 336.483Z" fill="#263238"/>
<path d="M533.789 380.758C533.789 380.758 551.404 389.331 557.601 411.475C563.798 433.618 582.734 491.285 582.734 491.285C582.734 491.285 593.562 504.01 594.73 513.428C595.885 522.847 593.575 545.645 590.086 549.899C586.609 554.154 581.644 553.449 581.644 553.449L536.06 549.13L518.111 429.082L533.789 380.758Z" fill="#26BBFB"/>
<path d="M383.054 378.656C383.054 378.656 350.467 388.87 342.346 397.75L369.031 521.758L368.608 560.882H523.128C523.128 558.947 524.514 430.979 524.514 430.979L533.789 380.758L478.866 371.096L468.038 362.6L406.93 365.688L397.641 374.966L383.054 378.656Z" fill="#26BBFB"/>
<g opacity="0.3">
<path d="M395.435 486.237C394.96 485.186 394.28 484.045 393.151 483.815C391.291 483.43 390.046 485.634 389.418 487.416C384.401 501.614 377.756 514.672 369.121 527L368.724 546.043C377.73 538.469 386.608 530.358 392.356 520.093C398.091 509.841 400.285 496.963 395.435 486.237Z" fill="black"/>
</g>
<path d="M342.346 397.763C342.346 397.763 331.607 412.384 327.143 421.931C322.678 431.478 285.729 511.647 283.509 519.925C281.277 528.204 275.542 554.282 292.426 560.33H327.143L361.988 489.939L363.771 408.245L342.346 397.763Z" fill="#26BBFB"/>
<path d="M329.375 509.482C329.324 509.534 328.606 508.803 327.002 507.893C325.411 506.996 322.922 505.958 319.715 505.253C318.111 504.907 316.328 504.625 314.403 504.51C312.479 504.395 310.413 504.42 308.309 504.907C304.101 505.843 299.918 508.508 296.621 512.237C293.273 515.967 291.22 520.375 290.001 524.527C288.77 528.692 288.244 532.6 287.91 535.868C287.589 539.148 287.461 541.814 287.345 543.659C287.294 544.518 287.243 545.222 287.217 545.786C287.179 546.273 287.153 546.53 287.127 546.53C287.102 546.53 287.089 546.273 287.089 545.786C287.089 545.222 287.089 544.518 287.102 543.659C287.14 541.814 287.192 539.135 287.448 535.829C287.718 532.536 288.205 528.589 289.411 524.347C290.604 520.131 292.695 515.608 296.121 511.789C299.495 507.97 303.806 505.241 308.181 504.305C310.362 503.818 312.492 503.805 314.442 503.959C316.392 504.1 318.201 504.408 319.817 504.792C323.063 505.561 325.552 506.676 327.13 507.663C327.913 508.162 328.49 508.611 328.849 508.944C329.209 509.277 329.388 509.469 329.375 509.482Z" fill="#263238"/>
<path d="M312.902 495.463C312.902 495.411 313.312 495.347 314.069 495.27C314.826 495.181 315.93 495.155 317.29 495.232C318.65 495.296 320.266 495.527 322.024 495.937C323.769 496.373 325.667 497.013 327.553 497.897C329.426 498.807 331.12 499.871 332.557 500.96C333.981 502.075 335.174 503.177 336.085 504.202C336.996 505.215 337.676 506.086 338.074 506.727C338.484 507.368 338.702 507.726 338.664 507.752C338.561 507.829 337.625 506.432 335.739 504.523C334.802 503.562 333.596 502.511 332.185 501.46C330.748 500.422 329.093 499.397 327.258 498.513C325.411 497.641 323.576 497.013 321.87 496.552C320.151 496.116 318.585 495.847 317.251 495.732C314.595 495.45 312.915 495.591 312.902 495.463Z" fill="#263238"/>
<path d="M344.296 491.605C344.283 491.656 343.718 491.605 342.692 491.477C341.666 491.349 340.177 491.195 338.343 491.054C334.673 490.772 329.567 490.708 323.974 491.374C318.393 492.054 313.44 493.322 309.938 494.45C308.18 495.014 306.769 495.514 305.807 495.885C304.845 496.244 304.293 496.423 304.28 496.385C304.267 496.347 304.768 496.077 305.717 495.642C306.654 495.193 308.039 494.629 309.797 494.001C313.286 492.746 318.264 491.387 323.909 490.708C329.542 490.042 334.712 490.183 338.394 490.58C340.241 490.772 341.73 491.003 342.743 491.208C343.744 491.426 344.308 491.567 344.296 491.605Z" fill="#263238"/>
<path d="M443.187 423.111C443.174 423.124 443.058 422.983 442.827 422.688C442.584 422.355 442.263 421.932 441.878 421.419C441.031 420.241 439.851 418.613 438.388 416.588C435.386 412.359 431.217 406.478 426.29 399.545L426.829 399.468C424.956 404.953 422.89 411.014 420.722 417.383L420.581 417.78L420.234 417.549C420.003 417.408 419.76 417.242 419.516 417.088C416.642 415.268 414.102 413.077 411.959 410.706C409.817 408.323 408.033 405.786 406.558 403.248C403.607 398.161 401.824 393.15 400.618 388.909C399.412 384.654 398.783 381.117 398.373 378.695C398.167 377.529 398.013 376.606 397.885 375.902C397.821 375.581 397.757 375.351 397.718 375.184C397.654 375.043 397.629 374.953 397.641 374.953C397.783 374.889 398.155 376.235 398.629 378.657C399.13 381.066 399.822 384.577 401.08 388.793C402.337 392.996 404.146 397.956 407.097 402.953C408.572 405.452 410.33 407.938 412.447 410.284C414.577 412.603 417.065 414.756 419.875 416.537C420.119 416.691 420.363 416.845 420.581 416.986L420.093 417.165C422.287 410.796 424.365 404.748 426.251 399.276L426.444 398.699L426.79 399.199C431.627 406.183 435.733 412.116 438.683 416.383C440.095 418.446 441.211 420.112 442.032 421.317C442.391 421.855 442.673 422.291 442.904 422.637C443.11 422.932 443.199 423.098 443.187 423.111Z" fill="#263238"/>
<g opacity="0.3">
<path d="M483.42 482.302C481.984 496.641 485.152 511.404 492.35 523.885C499.535 536.38 510.08 547.503 523.205 553.487C523.629 540.762 523.013 525.769 523.436 513.044L483.42 482.302Z" fill="black"/>
</g>
<path d="M481.971 465.552C481.971 465.552 476.364 467.103 480.572 478.598C484.78 490.08 486.179 489.388 488.988 500.139C491.798 510.878 495.07 520.694 499.983 526.768C504.897 532.842 523.141 545.221 523.141 545.221L539.511 529.805C539.511 529.805 536.817 518.31 537.459 510.506C538.1 502.702 539.742 483.544 539.511 480.276C539.281 477.009 535.765 469.064 535.765 469.064V463.63L527.349 437.757C527.349 437.757 522.666 435.656 521.037 443.127L518.227 435.194C518.227 435.194 513.788 434.489 512.621 443.601C511.453 452.712 513.557 465.322 513.557 465.322L511.222 481.199L507.72 491.938L504.679 492.399C504.679 492.399 500.099 491.156 497.597 482.545C495.057 473.959 488.283 463.681 481.971 465.552Z" fill="#FFBE9D"/>
<path d="M534.008 506.175C533.995 506.175 533.969 505.97 533.931 505.585C533.905 505.137 533.866 504.573 533.815 503.868C533.725 502.305 533.61 500.139 533.469 497.435C533.212 491.861 532.866 484.095 532.455 475.035L532.532 475.227C531.775 474.33 530.441 474.061 529.222 474.369C527.978 474.663 526.874 475.432 526.181 476.585C524.757 478.879 524.668 481.878 524.231 484.774C523.346 491.322 522.499 497.55 521.73 503.24C521.345 506.072 520.934 508.776 520.37 511.275C519.831 513.774 519.074 516.055 518.343 518.092C517.624 520.13 516.983 521.975 516.585 523.641C516.187 525.307 516.02 526.768 516.059 527.972C516.11 530.382 516.816 531.612 516.7 531.637C516.675 531.65 516.546 531.343 516.303 530.74C516.11 530.125 515.841 529.203 515.789 527.985C515.712 526.768 515.841 525.256 516.213 523.564C516.585 521.873 517.201 520.002 517.894 517.951C518.599 515.901 519.318 513.658 519.831 511.172C520.357 508.699 520.742 506.008 521.114 503.176C521.871 497.486 522.692 491.258 523.564 484.71C523.769 483.249 523.923 481.814 524.18 480.366C524.437 478.931 524.834 477.495 525.63 476.265C526.374 475.009 527.683 474.087 529.068 473.766C530.441 473.42 532.07 473.728 533.007 474.856L533.071 474.945V475.048C533.379 484.108 533.648 491.873 533.841 497.461C533.905 500.165 533.969 502.33 534.008 503.906C534.02 504.611 534.02 505.175 534.02 505.624C534.046 505.97 534.033 506.175 534.008 506.175Z" fill="#EB996E"/>
<path d="M525.066 476.739C525.027 476.752 524.77 476.239 524.373 475.278C523.988 474.317 523.475 472.895 523 471.088C522.525 469.294 522.076 467.102 521.82 464.655C521.691 463.425 521.602 462.117 521.755 460.759C521.897 459.401 522.294 457.965 523.167 456.761C523.911 455.71 524.963 454.864 526.156 454.518L526.413 454.441L526.541 454.672C528.914 458.85 530.967 462.54 532.417 465.193C533.084 466.436 533.636 467.474 534.098 468.333C534.482 469.076 534.675 469.486 534.636 469.512C534.598 469.537 534.341 469.153 533.892 468.448C533.392 467.628 532.776 466.615 532.045 465.411C530.492 462.809 528.363 459.17 525.964 455.005L526.349 455.159C525.322 455.467 524.386 456.197 523.718 457.158C522.936 458.26 522.551 459.567 522.41 460.849C522.269 462.143 522.333 463.412 522.448 464.616C522.666 467.038 523.051 469.204 523.475 470.998C523.885 472.792 524.321 474.227 524.629 475.214C524.924 476.175 525.104 476.726 525.066 476.739Z" fill="#EB996E"/>
<path d="M521.153 478.841C521.101 478.841 521.05 478.316 520.999 477.355C520.96 476.253 520.896 474.895 520.832 473.293C520.716 469.858 520.614 465.117 520.537 459.876C520.498 454.635 520.293 449.88 520.742 446.433C520.96 444.716 521.306 443.345 521.614 442.435C521.922 441.512 522.179 441.051 522.217 441.064C522.333 441.102 521.499 443.088 521.204 446.497C520.883 449.893 521.153 454.635 521.191 459.876C521.268 465.117 521.294 469.858 521.294 473.293C521.281 474.895 521.255 476.253 521.242 477.368C521.23 478.316 521.191 478.841 521.153 478.841Z" fill="#EB996E"/>
<path d="M507.309 521.912C507.219 521.835 508.232 520.63 509.503 518.439C510.144 517.35 510.798 515.991 511.401 514.454C511.979 512.89 512.505 511.135 512.864 509.251C513.198 507.354 513.313 505.535 513.313 503.869C513.287 502.203 513.146 500.703 512.928 499.473C512.505 496.987 511.966 495.501 512.081 495.462C512.12 495.449 512.287 495.808 512.543 496.475C512.813 497.141 513.108 498.141 513.39 499.384C513.672 500.639 513.865 502.164 513.929 503.856C513.967 505.56 513.852 507.431 513.518 509.366C513.159 511.301 512.607 513.095 511.979 514.671C511.324 516.235 510.606 517.606 509.9 518.682C509.208 519.759 508.579 520.592 508.091 521.117C507.617 521.668 507.347 521.95 507.309 521.912Z" fill="#EB996E"/>
<path d="M536.047 513.877L550.249 518.798C550.249 518.798 563.81 511.788 573.163 518.798C582.516 525.807 590.637 544.273 588.071 551.744C588.071 551.744 581.618 559.702 576.704 560.869C571.79 562.035 552.7 557.421 544.758 555.743C536.791 554.064 523.115 545.183 523.115 545.183L536.047 513.877Z" fill="#FFBE9D"/>
<path d="M537.792 534.791C537.741 534.791 537.689 534.342 537.638 533.535C537.587 532.574 537.51 531.433 537.433 530.113C537.279 527.217 537.086 523.219 537.022 518.785C536.958 514.351 537.086 510.34 537.356 507.444C537.484 505.996 537.638 504.83 537.779 504.022C537.92 503.215 538.023 502.779 538.074 502.792C538.177 502.805 537.959 504.586 537.818 507.47C537.676 510.353 537.625 514.351 537.689 518.772C537.766 523.104 537.843 527.025 537.895 530.1C537.907 531.548 537.907 532.727 537.882 533.535C537.869 534.342 537.83 534.791 537.792 534.791Z" fill="#EB996E"/>
<path d="M584.633 518.247C584.53 518.349 583.068 516.325 579.912 513.992C576.794 511.66 571.739 509.174 565.761 508.841C559.769 508.521 554.471 510.43 551.122 512.403C547.722 514.377 546.054 516.222 545.965 516.107C545.939 516.081 546.337 515.607 547.132 514.838C547.927 514.069 549.185 513.044 550.878 511.993C554.227 509.879 559.641 507.841 565.799 508.175C571.957 508.521 577.115 511.148 580.207 513.608C581.772 514.838 582.914 516.004 583.62 516.85C584.325 517.709 584.659 518.234 584.633 518.247Z" fill="#263238"/>
<path d="M582.811 506.419C582.722 506.56 580.823 504.638 576.897 503.164C573.035 501.652 567.044 500.96 560.898 502.69C557.832 503.548 555.022 504.766 552.623 506.124C550.224 507.495 548.223 508.995 546.632 510.353C545.041 511.711 543.822 512.903 542.988 513.723C542.154 514.556 541.692 515.005 541.654 514.979C541.628 514.953 542.026 514.441 542.809 513.544C543.591 512.66 544.759 511.417 546.337 509.994C547.902 508.572 549.903 507.008 552.328 505.586C554.753 504.176 557.601 502.908 560.732 502.036C567.031 500.268 573.176 501.062 577.077 502.715C579.052 503.523 580.515 504.458 581.451 505.176C581.939 505.522 582.26 505.855 582.491 506.06C582.709 506.278 582.824 506.406 582.811 506.419Z" fill="#263238"/>
<path d="M582.927 496.167C582.888 496.296 580.412 495.539 576.281 494.988C574.215 494.694 571.739 494.527 568.994 494.527C566.248 494.566 563.233 494.796 560.103 495.322C556.985 495.885 554.073 496.706 551.468 497.603C548.89 498.538 546.619 499.538 544.784 500.524C541.102 502.459 539.024 504.01 538.947 503.907C538.921 503.869 539.421 503.472 540.371 502.767C540.833 502.408 541.423 501.998 542.129 501.562C542.834 501.127 543.63 500.588 544.553 500.114C546.375 499.076 548.659 498.026 551.25 497.039C553.868 496.103 556.818 495.258 559.975 494.681C563.143 494.143 566.197 493.925 568.981 493.925C571.765 493.963 574.267 494.181 576.332 494.54C577.371 494.668 578.295 494.912 579.116 495.078C579.937 495.245 580.63 495.437 581.182 495.604C582.324 495.911 582.94 496.116 582.927 496.167Z" fill="#263238"/>
<path d="M474.08 370.673C474.08 370.673 474.735 371.903 475.068 374.44C475.415 376.965 475.363 380.758 474.529 385.448C474.106 387.793 473.541 390.369 472.695 393.124C471.809 395.879 470.475 398.699 468.961 401.646C465.908 407.541 462.046 413.961 457.594 420.817L457.068 421.624V420.663C457.055 416.139 457.055 411.385 457.042 406.439L457.543 406.682C453.72 409.758 449.704 413 445.56 416.344L445.663 416.191C442.891 424.982 441.057 434.772 440.338 444.96C439.171 460.555 440.107 475.472 440.852 489.004C441.48 502.549 441.891 514.761 442.314 525C442.725 535.252 443.097 543.53 443.405 549.259C443.571 552.091 443.7 554.308 443.79 555.845C443.841 556.576 443.879 557.14 443.905 557.563C443.931 557.947 443.918 558.152 443.918 558.152C443.918 558.152 443.879 557.96 443.828 557.575C443.789 557.165 443.725 556.589 443.648 555.871C443.507 554.372 443.328 552.142 443.135 549.284C442.75 543.556 442.301 535.278 441.839 525.026C441.378 514.774 440.839 502.575 440.223 489.042C439.453 475.523 438.491 460.568 439.658 444.921C440.39 434.695 442.224 424.853 445.034 416.011L445.06 415.922L445.137 415.858C449.281 412.526 453.309 409.296 457.132 406.221L457.633 405.824V406.464C457.62 411.398 457.62 416.152 457.607 420.689L457.081 420.535C465.895 406.887 473.067 395.021 474.17 385.423C475.055 380.771 475.158 377.016 474.863 374.492C474.735 373.223 474.491 372.287 474.337 371.647C474.17 371.006 474.08 370.673 474.08 370.673Z" fill="#263238"/>
<path d="M451.077 535.983L450.615 535.97C448.755 536.021 447.1 537.713 447.1 539.571C447.1 541.429 448.742 543.133 450.589 543.197C452.45 543.261 454.207 541.672 454.323 539.827C454.451 537.969 452.924 536.162 451.077 535.983Z" fill="white"/>
<path d="M451.077 486.594L450.615 486.581C448.755 486.632 447.1 488.324 447.1 490.182C447.1 492.04 448.742 493.744 450.589 493.809C452.45 493.873 454.207 492.284 454.323 490.438C454.451 488.58 452.924 486.773 451.077 486.594Z" fill="white"/>
<path d="M450.589 442.409C452.45 442.473 454.207 440.884 454.323 439.039C454.451 437.193 452.912 435.387 451.064 435.207L450.602 435.194C448.742 435.246 447.087 436.937 447.087 438.795C447.1 440.641 448.742 442.345 450.589 442.409Z" fill="white"/>
<path d="M395.203 312.802C390.7 307.829 386.171 302.793 382.887 296.95C379.603 291.106 377.652 284.276 378.743 277.664C379.372 273.794 381.027 270.116 381.283 266.207C381.642 260.825 379.372 255.199 381.283 250.163C384.273 242.282 394.895 241.065 401.336 235.619C406.352 231.377 408.79 224.495 414.32 220.92C419.143 217.806 425.34 217.87 431.024 218.678C436.707 219.485 442.429 220.92 448.126 220.151C452.18 219.6 456.003 217.973 459.98 216.986C463.957 215.999 468.384 215.743 471.925 217.793C475.466 219.844 477.454 224.867 475.132 228.237C481.726 225.2 490.104 230.339 491.913 237.361C493.722 244.384 490.104 251.983 484.51 256.609C478.917 261.248 471.694 263.401 464.56 264.746C444.354 268.552 422.441 266.399 405.031 255.481" fill="#263238"/>
<path d="M466.226 380.647C465.238 373.01 464.43 366.641 464.378 365.846C464.378 365.846 489.935 360.105 488.524 334.297C487.844 321.828 484.341 296.237 480.916 273.132C477.234 248.323 455.051 230.51 429.995 232.176L427.506 232.343C400.743 235.7 388.658 260.292 392.763 286.908L407.197 376.188C407.197 376.188 413.355 395.935 426.544 399.357L443.171 423.09L445.917 412.876L458.31 402.099C458.31 402.099 461.158 399.024 464.417 393.014C467.124 388.093 466.559 383.044 466.226 380.647Z" fill="#FFBE9D"/>
<path d="M464.406 365.466C464.406 365.466 448.176 367.888 430.099 358.162C430.099 358.162 439.298 376.192 464.906 372.143L464.406 365.466Z" fill="#EB996E"/>
<path d="M472.63 295.32C472.835 297.255 471.347 299.024 469.32 299.28C467.293 299.523 465.497 298.152 465.291 296.217C465.099 294.282 466.574 292.501 468.588 292.257C470.628 292.001 472.425 293.372 472.63 295.32Z" fill="#263238"/>
<path d="M476.235 286.17C475.812 286.683 472.874 284.799 468.909 285.081C464.945 285.299 462.161 287.529 461.699 287.08C461.468 286.875 461.879 285.978 463.085 284.979C464.278 283.979 466.344 282.941 468.82 282.787C471.296 282.634 473.438 283.402 474.696 284.261C475.966 285.094 476.44 285.94 476.235 286.17Z" fill="#263238"/>
<path d="M435.142 297.994C435.347 299.929 433.859 301.697 431.831 301.954C429.804 302.197 428.008 300.826 427.803 298.891C427.611 296.956 429.086 295.175 431.1 294.931C433.14 294.675 434.936 296.046 435.142 297.994Z" fill="#263238"/>
<path d="M437.27 289.511C436.846 290.024 433.908 288.14 429.944 288.422C425.98 288.64 423.196 290.87 422.734 290.421C422.503 290.216 422.913 289.319 424.119 288.319C425.3 287.32 427.378 286.282 429.841 286.128C432.318 285.974 434.46 286.743 435.717 287.602C437.013 288.435 437.488 289.281 437.27 289.511Z" fill="#263238"/>
<path d="M453.645 317.953C453.606 317.736 456.044 317.133 460.008 316.364C461.009 316.198 461.958 315.929 462.087 315.224C462.279 314.481 461.779 313.417 461.214 312.264C460.098 309.88 458.931 307.381 457.699 304.754C452.798 294.054 449.18 285.237 449.616 285.045C450.052 284.853 454.376 293.362 459.264 304.062C460.444 306.702 461.573 309.214 462.651 311.623C463.113 312.751 463.857 314.006 463.447 315.557C463.228 316.326 462.523 316.928 461.881 317.146C461.24 317.39 460.675 317.441 460.175 317.505C456.172 317.992 453.683 318.171 453.645 317.953Z" fill="#263238"/>
<path d="M437.259 273.907C436.938 275.009 432.948 274.765 428.33 275.637C423.698 276.418 420.029 278.033 419.349 277.098C419.041 276.649 419.631 275.598 421.081 274.445C422.518 273.304 424.853 272.151 427.624 271.651C430.395 271.164 432.987 271.433 434.732 272.01C436.476 272.6 437.387 273.394 437.259 273.907Z" fill="#263238"/>
<path d="M474.002 274.791C473.361 275.739 470.564 274.983 467.28 275.163C463.983 275.227 461.25 276.175 460.544 275.278C460.236 274.842 460.608 273.907 461.776 272.971C462.918 272.049 464.881 271.216 467.139 271.126C469.397 271.049 471.411 271.728 472.617 272.574C473.836 273.433 474.285 274.33 474.002 274.791Z" fill="#263238"/>
<path d="M396.167 305.885C395.718 305.719 378.078 301.823 379.823 319.43C381.567 337.025 400.658 331.297 400.645 330.784C400.619 330.272 396.167 305.885 396.167 305.885Z" fill="#FFBE9D"/>
<path d="M392.831 325.006C392.754 324.955 392.549 325.25 392.048 325.545C391.561 325.827 390.714 326.07 389.765 325.814C387.84 325.314 385.98 322.52 385.582 319.355C385.377 317.753 385.569 316.203 386.006 314.883C386.416 313.537 387.16 312.563 388.084 312.307C388.995 312 389.713 312.499 389.983 312.973C390.265 313.448 390.188 313.806 390.291 313.819C390.342 313.858 390.637 313.486 390.432 312.768C390.329 312.422 390.073 312.025 389.624 311.73C389.162 311.423 388.533 311.32 387.879 311.448C386.532 311.679 385.428 313.05 384.941 314.498C384.376 315.959 384.133 317.715 384.363 319.509C384.825 323.046 386.968 326.185 389.598 326.66C390.868 326.865 391.869 326.39 392.356 325.916C392.831 325.429 392.895 325.032 392.831 325.006Z" fill="#EB996E"/>
<path d="M479.636 249.098C478.43 256.107 464.202 262.515 452.412 262.181C441.545 261.861 436.169 256.479 428.266 252.647C423.263 250.225 423.263 250.225 416.489 251.327C410.998 252.224 408.162 258.683 405.07 263.309C410.934 276.085 408.56 290.938 406.084 304.777C405.815 306.302 405.468 307.956 404.301 308.981C402.325 310.724 399.105 309.686 397.167 307.904C394.05 305.047 392.626 300.818 391.612 296.73C389.29 287.401 388.392 277.623 389.867 268.115C391.343 258.606 395.281 249.38 401.786 242.28C409.907 233.412 421.787 228.299 433.809 227.684C445.83 227.069 457.903 230.785 467.961 237.372C472.631 240.409 476.993 244.177 479.636 249.098Z" fill="#263238"/>
<path d="M456.234 326.86C453.244 325.463 450.242 324.066 447.253 322.682C446.74 322.439 446.188 322.195 445.624 322.272C444.982 322.362 444.482 322.836 444.071 323.323C441.993 325.848 441.467 329.641 443.071 332.486C444.687 335.33 448.472 336.83 451.5 335.574C454.681 334.254 456.234 330.563 456.477 327.129L456.234 326.86Z" fill="#EB996E"/>
<path d="M451.782 336.214C451.808 336.291 451.371 336.547 450.473 336.739C449.588 336.906 448.203 336.983 446.612 336.458C445.034 335.958 443.25 334.728 442.147 332.754C441.031 330.832 440.62 328.128 441.595 325.68C442.057 324.463 442.788 323.387 443.674 322.541C444.123 322.118 444.597 321.759 445.136 321.439C445.418 321.285 445.765 321.131 446.175 321.106C446.573 321.08 446.932 321.182 447.215 321.311C447.805 321.567 448.177 321.849 448.613 322.105C449.036 322.361 449.434 322.618 449.832 322.861C450.602 323.348 451.333 323.797 452.013 324.232C454.682 325.924 456.272 327.039 456.183 327.205C456.093 327.359 454.322 326.526 451.538 325.052C450.833 324.668 450.076 324.258 449.267 323.822C448.857 323.592 448.433 323.361 448.01 323.13C447.587 322.9 447.112 322.605 446.74 322.464C446.329 322.323 446.15 322.336 445.752 322.554C445.354 322.797 444.931 323.13 444.572 323.489C443.828 324.219 443.225 325.129 442.827 326.167C442.006 328.23 442.301 330.473 443.212 332.177C444.11 333.895 445.56 335.022 446.92 335.586C448.292 336.163 449.55 336.24 450.396 336.24C451.269 336.201 451.756 336.112 451.782 336.214Z" fill="#263238"/>
<path d="M448.959 295.758C448.857 295.771 448.972 294.118 448.254 291.299C447.548 288.543 445.7 284.481 441.544 281.329C439.478 279.791 436.887 278.497 433.897 277.971C430.934 277.472 427.572 277.561 424.39 278.779C422.787 279.342 421.234 280.175 419.823 281.239C418.386 282.277 417.078 283.571 416 285.071C413.78 288.031 412.523 291.824 412.485 295.732C412.523 299.641 413.767 303.447 416 306.407C417.078 307.906 418.386 309.201 419.823 310.252C421.247 311.315 422.787 312.161 424.39 312.712C427.572 313.929 430.934 314.019 433.897 313.519C436.887 312.994 439.478 311.7 441.544 310.162C445.7 307.022 447.548 302.96 448.254 300.192C448.972 297.398 448.844 295.758 448.959 295.758C448.972 295.758 448.972 295.861 448.972 296.053C448.972 296.296 448.959 296.578 448.959 296.924C448.959 297.309 448.934 297.783 448.844 298.347C448.767 298.911 448.703 299.551 448.497 300.269C448.202 301.704 447.548 303.409 446.509 305.228C445.457 307.035 443.93 308.932 441.826 310.546C439.735 312.148 437.079 313.506 434 314.07C430.946 314.609 427.482 314.532 424.185 313.301C422.517 312.738 420.914 311.866 419.438 310.764C417.95 309.688 416.59 308.355 415.474 306.804C413.165 303.742 411.856 299.808 411.817 295.745C411.856 291.683 413.165 287.749 415.474 284.686C416.59 283.136 417.95 281.803 419.438 280.726C420.914 279.637 422.517 278.766 424.185 278.202C427.482 276.959 430.946 276.882 434 277.433C437.079 277.997 439.735 279.368 441.826 280.957C443.93 282.572 445.457 284.468 446.509 286.275C447.548 288.095 448.202 289.799 448.497 291.235C448.703 291.939 448.767 292.593 448.844 293.157C448.934 293.721 448.959 294.195 448.959 294.579C448.959 294.925 448.972 295.22 448.972 295.451C448.972 295.656 448.959 295.758 448.959 295.758Z" fill="#263238"/>
<path d="M492.888 294.041C492.785 294.054 492.901 292.439 492.195 289.697C491.502 287.006 489.706 283.046 485.652 279.996C483.651 278.497 481.123 277.228 478.211 276.728C475.324 276.242 472.053 276.331 468.948 277.523C467.383 278.061 465.882 278.881 464.496 279.919C463.098 280.932 461.827 282.2 460.775 283.661C458.607 286.545 457.388 290.235 457.35 294.054C457.388 297.873 458.607 301.563 460.763 304.447C461.815 305.908 463.085 307.163 464.483 308.189C465.869 309.227 467.37 310.047 468.935 310.585C472.04 311.764 475.299 311.866 478.198 311.367C481.11 310.854 483.638 309.585 485.639 308.099C489.693 305.036 491.489 301.089 492.169 298.398C492.901 295.63 492.785 294.028 492.888 294.041C492.914 294.041 492.914 294.438 492.901 295.182C492.901 295.553 492.888 296.027 492.798 296.566C492.721 297.117 492.657 297.745 492.465 298.437C491.836 301.179 490.078 305.267 485.96 308.458C483.92 310.021 481.328 311.354 478.326 311.892C475.35 312.417 471.976 312.341 468.755 311.136C467.139 310.585 465.574 309.739 464.137 308.663C462.687 307.612 461.366 306.318 460.275 304.805C458.017 301.82 456.747 297.988 456.721 294.028C456.76 290.069 458.03 286.237 460.288 283.251C461.378 281.739 462.7 280.432 464.15 279.394C465.586 278.33 467.152 277.485 468.768 276.934C471.988 275.729 475.363 275.652 478.339 276.177C481.341 276.728 483.933 278.061 485.973 279.612C490.091 282.803 491.849 286.878 492.477 289.633C492.67 290.325 492.747 290.953 492.811 291.504C492.901 292.042 492.926 292.516 492.914 292.888C492.914 293.644 492.914 294.041 492.888 294.041Z" fill="#263238"/>
<path d="M457.042 289.979C456.965 290.056 456.542 289.697 455.772 289.325C455.002 288.954 453.848 288.595 452.539 288.62C451.243 288.633 450.089 289.043 449.332 289.441C448.562 289.838 448.164 290.209 448.087 290.145C448.023 290.094 448.318 289.582 449.088 289.043C449.845 288.505 451.076 287.98 452.526 287.954C453.963 287.928 455.22 288.403 456.003 288.915C456.773 289.441 457.093 289.928 457.042 289.979Z" fill="#263238"/>
<path d="M413.267 293.157C413.383 293.311 409.777 296.181 405.223 299.564C400.668 302.96 396.896 305.587 396.781 305.446C396.666 305.292 400.271 302.435 404.825 299.039C409.38 295.63 413.164 293.003 413.267 293.157Z" fill="#263238"/>
<g opacity="0.3">
<path d="M398.09 376.555C396.307 393.944 402.927 412.308 416.886 422.841C417.976 423.674 419.362 424.482 420.645 424.02C421.543 423.7 422.12 422.841 422.595 422.008C426.572 415.127 427.906 407.528 426.765 399.66C424.558 405.477 422.659 411.18 420.427 417.267C408.251 409.899 400.669 394.213 398.09 376.555Z" fill="black"/>
</g>
<path opacity="0.3" d="M445.368 416.101L455.619 412.359L457.312 429.672C457.312 429.672 468.371 409.54 472.951 400.352C477.532 391.164 475.171 374.953 475.171 374.953C475.171 374.953 476.813 389.075 465.728 407.08L457.363 420.663V406.439L445.368 416.101Z" fill="black"/>
<g opacity="0.3">
<path d="M326.154 504.087C321.587 501.934 316.327 501.639 311.31 502.229C306.012 502.844 300.688 504.472 296.531 507.816C292.374 511.161 289.564 516.44 290.077 521.746L290.591 521.823C294.17 512.16 301.278 505.125 310.451 504.266C319.624 503.421 328.566 507.496 334.866 514.211C334.25 509.187 330.722 506.24 326.154 504.087Z" fill="black"/>
</g>
<g opacity="0.3">
<path d="M585.3 513.967C581.862 510.264 577.038 508.021 572.06 507.15C563.323 505.625 553.945 508.341 547.363 514.287L549.313 512.698C554.278 509.79 560 508.072 565.761 508.239C571.509 508.406 577.269 510.533 581.439 514.493C585.275 518.145 587.571 523.066 589.765 527.871C590.625 522.899 588.726 517.671 585.3 513.967Z" fill="black"/>
</g>
<path d="M519.241 433.567C519.203 433.554 519.37 433.055 519.703 432.17C520.101 431.158 520.588 429.915 521.166 428.441C522.41 425.302 524.104 420.958 525.913 416.139C527.709 411.308 529.261 406.913 530.377 403.722C530.903 402.235 531.352 400.979 531.712 399.954C532.032 399.07 532.238 398.583 532.276 398.596C532.315 398.609 532.199 399.121 531.955 400.031C531.712 400.941 531.327 402.261 530.826 403.876C529.826 407.105 528.337 411.539 526.541 416.37C524.745 421.201 522.962 425.52 521.615 428.621C520.935 430.171 520.37 431.414 519.96 432.273C519.524 433.119 519.28 433.58 519.241 433.567Z" fill="#263238"/>
<path d="M357.498 434.824C357.318 434.862 355.919 428.762 354.38 421.202C352.84 413.641 351.737 407.49 351.917 407.451C352.096 407.413 353.495 413.513 355.034 421.073C356.574 428.634 357.677 434.785 357.498 434.824Z" fill="#263238"/>
<path d="M355.073 511.057C355.484 511.263 350.377 471.127 350.377 471.127C350.377 471.127 353.598 440.666 355.407 439.257L355.458 428.505C355.458 428.505 360.449 425.481 361.783 430.363C361.783 430.363 366.209 426.532 366.979 435.656C367.749 444.78 367.916 454.122 367.916 454.122L377.756 478.7L379.372 479.52C379.372 479.52 381.489 460.26 382.721 457.428C383.953 454.596 384.799 447.702 389.456 448.74C394.126 449.778 394.511 453.635 393.677 459.914C392.844 466.193 391.791 472.677 392.189 476.74C392.574 480.802 394.422 489.734 393.857 496.82C393.293 503.92 389.405 511.403 385.312 516.657C381.233 521.912 373.432 532.778 369.186 536.059C367.697 537.199 355.073 511.057 355.073 511.057Z" fill="#FFBE9D"/>
<path d="M360.038 478.392C359.986 478.392 359.999 477.776 360.063 476.674C360.153 475.444 360.256 473.881 360.384 472.01C360.679 468.076 361.141 462.642 361.693 456.645C361.975 453.659 362.244 450.802 362.488 448.2C362.616 446.906 362.693 445.688 362.526 444.574C362.372 443.459 361.936 442.498 361.295 441.806C359.999 440.396 358.318 440.037 357.279 440.05C356.189 440.037 355.624 440.332 355.598 440.268C355.586 440.242 355.727 440.178 355.996 440.063C356.278 439.96 356.702 439.832 357.266 439.794C358.37 439.717 360.166 439.999 361.641 441.498C362.372 442.241 362.886 443.318 363.065 444.497C363.271 445.688 363.194 446.957 363.091 448.264C362.86 450.878 362.603 453.723 362.347 456.722C361.795 462.719 361.256 468.14 360.846 472.061C360.628 473.919 360.448 475.483 360.307 476.7C360.191 477.789 360.089 478.392 360.038 478.392Z" fill="#EB996E"/>
<path d="M365.337 461.977C365.427 462.054 364.336 463.015 363.592 465.142C362.796 467.231 362.514 470.383 361.95 473.805C361.424 477.239 360.898 480.34 360.5 482.57C360.089 484.813 359.794 486.184 359.704 486.171C359.615 486.158 359.743 484.749 360.038 482.493C360.32 480.238 360.769 477.124 361.295 473.69C361.847 470.281 362.206 467.116 363.156 464.95C363.605 463.873 364.144 463.092 364.58 462.605C365.003 462.143 365.311 461.951 365.337 461.977Z" fill="#EB996E"/>
<path d="M361.719 429.825C361.77 429.813 361.885 430.261 362.065 431.094C362.245 431.914 362.463 433.106 362.706 434.593C363.194 437.553 363.733 441.666 364.079 446.241C364.413 450.816 364.49 454.968 364.438 457.967C364.413 459.466 364.374 460.683 364.31 461.516C364.259 462.349 364.208 462.811 364.156 462.811C364.054 462.811 364.041 460.952 363.964 457.967C363.887 454.968 363.746 450.842 363.412 446.292C363.079 441.743 362.617 437.63 362.245 434.657C361.873 431.684 361.616 429.851 361.719 429.825Z" fill="#EB996E"/>
<path d="M390.111 467.463C390.213 467.616 388.674 468.321 386.801 467.745C384.915 467.181 384.042 465.733 384.209 465.669C384.363 465.54 385.338 466.63 386.993 467.117C388.635 467.629 390.059 467.27 390.111 467.463Z" fill="#EB996E"/>
<path d="M355.624 506.06L329.619 516.978H314.12C314.12 516.978 298.802 521.758 296.441 536.097C294.081 550.45 293.747 557.831 300.483 559.599C307.218 561.368 326.245 561.573 335.674 558.446C345.104 555.319 369.801 535.405 369.801 535.405L372.187 521.002L355.624 506.06Z" fill="#FFBE9D"/>
<path d="M361.719 521.911C361.68 521.937 361.424 521.706 360.974 521.232C360.513 520.784 359.948 520.04 359.281 519.092C357.998 517.17 356.587 514.261 355.65 510.878C354.675 507.495 354.265 504.329 354.046 502.048C353.854 499.767 353.854 498.345 353.944 498.332C354.046 498.319 354.2 499.729 354.508 501.984C354.842 504.24 355.329 507.354 356.279 510.686C357.203 514.03 358.511 516.888 359.666 518.836C360.859 520.783 361.808 521.834 361.719 521.911Z" fill="#EB996E"/>
<path d="M373.034 526.473C372.893 526.422 374.061 524.449 374.51 520.899C374.728 519.143 374.702 517.003 374.202 514.71C373.701 512.416 372.611 510.058 371.02 507.854C369.442 505.637 367.659 503.715 366.17 501.856C364.657 499.998 363.451 498.191 362.655 496.551C361.86 494.911 361.488 493.463 361.347 492.45C361.218 491.438 361.27 490.874 361.308 490.874C361.436 490.849 361.398 493.168 363.079 496.333C363.9 497.909 365.131 499.652 366.645 501.459C368.159 503.279 369.955 505.201 371.572 507.456C373.201 509.699 374.343 512.185 374.818 514.556C375.305 516.927 375.267 519.143 374.984 520.938C374.702 522.744 374.202 524.141 373.791 525.064C373.599 525.525 373.406 525.871 373.265 526.102C373.137 526.371 373.06 526.486 373.034 526.473Z" fill="#EB996E"/>
<path d="M332.955 463.926C332.789 464.015 329.953 458.851 326.618 452.405C323.282 445.96 320.716 440.667 320.87 440.577C321.037 440.488 323.872 445.652 327.208 452.098C330.543 458.556 333.109 463.849 332.955 463.926Z" fill="white"/>
<path d="M375.01 417.177C374.843 417.101 376.601 412.808 378.923 407.579C381.258 402.351 383.285 398.173 383.452 398.25C383.619 398.327 381.861 402.62 379.539 407.848C377.204 413.064 375.177 417.241 375.01 417.177Z" fill="white"/>
<path d="M416.181 447.523C416.039 447.638 413.396 444.69 410.292 440.936C407.174 437.181 404.775 434.041 404.916 433.926C405.057 433.811 407.7 436.758 410.805 440.513C413.923 444.268 416.322 447.407 416.181 447.523Z" fill="white"/>
<path d="M406.712 489.26C406.559 489.158 408.547 486.159 411.152 482.571C413.756 478.983 415.988 476.163 416.129 476.279C416.283 476.381 414.295 479.38 411.69 482.968C409.086 486.543 406.866 489.363 406.712 489.26Z" fill="white"/>
<path d="M393.96 548.221C393.883 548.26 393.293 547.286 392.459 545.645C391.612 544.005 390.521 541.711 389.431 539.136C388.328 536.547 387.442 534.176 386.839 532.433C386.249 530.691 385.941 529.589 386.031 529.563C386.121 529.537 386.583 530.575 387.288 532.267C388.097 534.189 389.02 536.419 390.047 538.879C391.099 541.327 392.061 543.531 392.895 545.453C393.613 547.119 394.05 548.17 393.96 548.221Z" fill="white"/>
<path d="M430.19 523.156C430.152 523.335 426.662 522.81 422.403 521.99C418.131 521.169 414.705 520.349 414.743 520.17C414.782 519.991 418.272 520.516 422.531 521.336C426.791 522.156 430.229 522.976 430.19 523.156Z" fill="white"/>
<path d="M458.288 468.065C458.146 467.936 461.482 464.143 465.716 459.568C469.95 455.006 473.503 451.405 473.632 451.534C473.773 451.662 470.437 455.455 466.203 460.03C461.97 464.592 458.429 468.193 458.288 468.065Z" fill="white"/>
<path d="M486.564 541.532C486.423 541.647 482.279 536.854 477.301 530.819C472.323 524.783 468.41 519.798 468.551 519.683C468.692 519.567 472.836 524.36 477.814 530.396C482.792 536.432 486.705 541.416 486.564 541.532Z" fill="white"/>
<path d="M311.068 510.225C311.157 510.405 307.373 512.327 303.242 515.492C299.098 518.632 296.237 521.784 296.083 521.643C296.018 521.592 296.647 520.734 297.827 519.465C298.995 518.209 300.74 516.569 302.831 514.967C304.922 513.378 306.975 512.135 308.502 511.328C310.041 510.533 311.029 510.149 311.068 510.225Z" fill="white"/>
<path d="M321.639 481.904C321.793 482.006 320.446 484.3 318.624 487.03C316.802 489.759 315.211 491.887 315.057 491.784C314.903 491.682 316.251 489.388 318.072 486.658C319.894 483.929 321.485 481.801 321.639 481.904Z" fill="white"/>
<path d="M345.463 509.711C345.322 509.801 343.975 507.559 343.282 504.445C342.564 501.344 342.808 498.742 342.974 498.755C343.18 498.755 343.244 501.279 343.937 504.291C344.604 507.315 345.643 509.622 345.463 509.711Z" fill="white"/>
<path d="M348.992 421.393C349.018 421.573 346.811 422.047 344.053 422.431C341.294 422.828 339.036 422.995 339.01 422.803C338.985 422.623 341.192 422.149 343.95 421.765C346.708 421.38 348.966 421.201 348.992 421.393Z" fill="white"/>
<path d="M366.876 389.702C366.966 389.869 365.029 391.112 362.553 392.483C360.076 393.854 357.985 394.841 357.908 394.675C357.818 394.508 359.756 393.265 362.232 391.894C364.708 390.523 366.786 389.549 366.876 389.702Z" fill="white"/>
<path d="M417.181 403.095C417.04 403.21 414.821 400.545 412.229 397.149C409.637 393.753 407.662 390.921 407.816 390.805C407.957 390.69 410.176 393.355 412.768 396.751C415.347 400.134 417.322 402.979 417.181 403.095Z" fill="white"/>
<path d="M481.035 434.951C480.906 435.067 478.571 432.67 476.416 429.185C474.235 425.699 473.119 422.56 473.273 422.496C473.452 422.419 474.838 425.405 476.981 428.839C479.11 432.26 481.189 434.823 481.035 434.951Z" fill="white"/>
<path d="M505.411 442.973C505.577 443.05 504.397 446.023 502.768 449.598C501.138 453.187 499.688 456.031 499.509 455.955C499.342 455.878 500.522 452.905 502.152 449.329C503.781 445.741 505.244 442.896 505.411 442.973Z" fill="white"/>
<path d="M508.811 409.746C508.67 409.861 505.77 406.619 502.332 402.493C498.894 398.366 496.225 394.919 496.366 394.804C496.507 394.688 499.407 397.931 502.845 402.057C506.283 406.196 508.952 409.63 508.811 409.746Z" fill="white"/>
<path d="M471.592 382.758C471.412 382.771 471.143 379.99 471.015 376.543C470.874 373.108 470.925 370.315 471.105 370.302C471.284 370.289 471.554 373.07 471.682 376.517C471.81 379.951 471.772 382.745 471.592 382.758Z" fill="white"/>
<path d="M501.947 381.079C501.972 381.258 498.418 381.886 494.031 382.476C489.63 383.065 486.051 383.386 486.025 383.206C485.999 383.027 489.54 382.399 493.941 381.809C498.329 381.22 501.921 380.887 501.947 381.079Z" fill="white"/>
<path d="M549.75 416.152C549.583 416.229 547.453 412.167 544.977 407.08C542.514 401.992 540.641 397.789 540.808 397.712C540.974 397.635 543.104 401.697 545.58 406.785C548.044 411.872 549.917 416.063 549.75 416.152Z" fill="white"/>
<path d="M541.693 446.458C541.513 446.42 542.014 443.152 542.809 439.167C543.604 435.169 544.4 431.965 544.579 432.003C544.759 432.042 544.259 435.309 543.463 439.295C542.668 443.28 541.872 446.484 541.693 446.458Z" fill="white"/>
<path d="M563.862 470.345C563.683 470.409 561.989 466.001 560.052 460.504C558.127 455.006 556.703 450.495 556.883 450.431C557.063 450.367 558.756 454.776 560.693 460.273C562.618 465.783 564.042 470.281 563.862 470.345Z" fill="white"/>
<path d="M560.783 484.314C560.745 484.481 557.679 483.84 554.304 481.994C550.917 480.175 548.698 477.958 548.826 477.843C548.954 477.689 551.315 479.637 554.625 481.418C557.909 483.212 560.835 484.122 560.783 484.314Z" fill="white"/>
<path d="M589.188 516.184C589.022 516.261 587.995 514.313 586.892 511.84C585.788 509.367 585.032 507.304 585.198 507.227C585.365 507.15 586.391 509.098 587.495 511.571C588.598 514.044 589.355 516.107 589.188 516.184Z" fill="white"/>
<path d="M421.428 560.624C421.248 560.65 420.799 558.1 420.427 554.947C420.055 551.795 419.914 549.219 420.094 549.194C420.273 549.168 420.722 551.718 421.094 554.87C421.466 558.023 421.608 560.599 421.428 560.624Z" fill="white"/>
<path d="M508.579 558.422C508.4 558.383 508.772 555.897 509.413 552.873C510.055 549.849 510.722 547.427 510.901 547.465C511.081 547.504 510.709 549.99 510.068 553.014C509.426 556.038 508.759 558.46 508.579 558.422Z" fill="white"/>
<path d="M525.283 304.318L536.548 284.481C531.557 276.395 528.683 266.886 528.683 256.699C528.683 227.391 552.469 203.633 581.811 203.633C611.152 203.633 634.938 227.391 634.938 256.699C634.938 286.006 611.152 309.764 581.811 309.764C569.558 309.764 558.281 305.612 549.3 298.654L549.313 298.679L525.283 304.318Z" fill="#FAFAFA"/>
<path d="M525.283 304.315C526.425 304.059 534.033 302.316 549.352 298.818L549.595 298.766L549.441 298.561L549.429 298.536L549.198 298.766C552.225 301.111 555.856 303.418 560.128 305.353C564.401 307.25 569.302 308.787 574.703 309.505C577.397 309.851 580.22 310.069 583.119 309.928C584.569 309.851 586.044 309.813 587.533 309.684C589.008 309.467 590.509 309.236 592.023 309.005C598.04 307.814 604.185 305.532 609.933 301.983C615.668 298.433 620.979 293.628 625.239 287.72C629.485 281.812 632.706 274.816 634.22 267.217C635.708 259.617 635.592 251.48 633.591 243.599C631.577 235.744 627.818 228.08 622.198 221.776L620.03 219.392C619.312 218.585 618.465 217.931 617.695 217.188C616.887 216.496 616.155 215.701 615.283 215.086L612.73 213.177C611.909 212.511 610.998 211.972 610.087 211.434C609.189 210.883 608.291 210.345 607.393 209.794C606.443 209.332 605.507 208.884 604.57 208.423C603.621 207.987 602.71 207.474 601.722 207.154C593.999 204.091 585.775 202.925 577.898 203.502C570.02 204.066 562.489 206.321 556.036 209.96C549.557 213.561 544.091 218.38 539.87 223.749C535.637 229.131 532.66 235.052 530.813 240.959C528.978 246.892 528.478 252.774 528.503 258.221C528.657 263.68 529.658 268.716 531.108 273.124C532.558 277.545 534.469 281.351 536.432 284.542V284.388C529.312 297.126 525.835 303.341 525.283 304.315C525.848 303.341 529.402 297.177 536.689 284.555L536.74 284.478L536.689 284.401C534.751 281.21 532.878 277.417 531.454 273.022C530.043 268.626 529.068 263.641 528.94 258.221C528.94 252.813 529.453 246.995 531.287 241.126C533.135 235.282 536.099 229.426 540.294 224.108C544.476 218.803 549.89 214.048 556.305 210.499C562.694 206.911 570.148 204.694 577.923 204.143C585.698 203.591 593.832 204.745 601.453 207.769C602.428 208.077 603.326 208.589 604.262 209.025C605.186 209.473 606.123 209.922 607.046 210.383C607.932 210.922 608.817 211.46 609.702 211.998C610.6 212.536 611.498 213.062 612.307 213.728L614.821 215.612C615.681 216.214 616.399 216.996 617.195 217.688C617.952 218.418 618.798 219.072 619.504 219.866L621.647 222.224C627.202 228.452 630.91 236.026 632.898 243.778C634.874 251.557 635.002 259.605 633.54 267.114C632.051 274.623 628.882 281.556 624.687 287.387C620.492 293.243 615.245 298.01 609.574 301.521C603.903 305.058 597.822 307.327 591.869 308.518C590.368 308.749 588.88 308.98 587.43 309.198C585.955 309.326 584.492 309.364 583.068 309.454C580.194 309.608 577.397 309.39 574.729 309.057C569.366 308.365 564.503 306.852 560.257 304.994C556.01 303.098 552.392 300.829 549.364 298.523L548.377 297.767L549.133 298.754L549.146 298.779L549.236 298.523C534.007 302.201 526.425 304.046 525.283 304.315Z" fill="#263238"/>
<path d="M596.154 254.482C596.154 257.34 598.476 259.672 601.35 259.672C604.224 259.672 606.546 257.352 606.546 254.482C606.546 251.624 604.224 249.292 601.35 249.292C598.476 249.292 596.154 251.611 596.154 254.482Z" fill="#263238"/>
<path d="M575.383 254.482C575.383 257.34 577.705 259.672 580.579 259.672C583.453 259.672 585.775 257.352 585.775 254.482C585.775 251.624 583.453 249.292 580.579 249.292C577.705 249.292 575.383 251.611 575.383 254.482Z" fill="#263238"/>
<path d="M554.651 251.893C553.214 254.379 554.073 257.544 556.55 258.98C559.039 260.415 562.207 259.556 563.644 257.083C565.081 254.597 564.222 251.432 561.746 249.997C559.269 248.561 556.088 249.407 554.651 251.893Z" fill="#263238"/>
</svg>
