<svg width="328" height="47" viewBox="0 0 328 47" fill="none" xmlns="http://www.w3.org/2000/svg">
<path d="M18.9042 46.9995C17.5126 46.9995 16.3957 46.6739 15.5485 46.0226C14.7014 45.3712 14.0373 44.351 13.5616 42.9593L0.393268 5.93314C-0.214775 4.28194 -0.118099 2.88007 0.685841 1.72753C1.48978 0.577542 2.86869 0 4.82511 0C6.25999 0 7.36668 0.32566 8.15027 0.976983C8.93385 1.62831 9.53935 2.65109 9.9744 4.04024L20.6648 36.0466H17.8611L29.2689 4.04024C29.7472 2.65109 30.3782 1.62831 31.1592 0.976983C31.9403 0.32566 32.963 0 34.2223 0C35.4384 0 36.4154 0.32566 37.1557 0.976983C37.8935 1.62831 38.5015 2.67144 38.9798 4.10639L49.8661 36.0466H47.4543L58.3405 4.04024C58.8188 2.65109 59.4497 1.62831 60.2308 0.976983C61.0118 0.32566 62.0778 0 63.4237 0C65.118 0 66.357 0.577542 67.1381 1.72753C67.9216 2.88007 68.0056 4.28194 67.4001 5.93314L54.1682 42.9568C53.6034 44.3485 52.919 45.3687 52.1151 46.02C51.3111 46.6713 50.2146 46.997 48.823 46.997C47.4314 46.997 46.3145 46.6713 45.4673 46.02C44.6201 45.3687 43.9561 44.3485 43.4804 42.9568L33.1792 13.8203H34.7439L24.2494 42.9593C23.7279 44.351 23.0639 45.3712 22.2625 46.0226C21.456 46.6739 20.3391 46.9995 18.9042 46.9995Z" fill="black"/>
<path d="M79.9774 46.9999C78.3696 46.9999 77.1306 46.5547 76.263 45.6642C75.3929 44.7737 74.9604 43.5016 74.9604 41.8504V5.15245C74.9604 3.45799 75.3955 2.1757 76.263 1.30557C77.1306 0.437992 78.3696 0.00292969 79.9774 0.00292969C81.6286 0.00292969 82.8879 0.437992 83.758 1.30557C84.6255 2.1757 85.0606 3.45545 85.0606 5.15245V41.8504C85.0606 43.5016 84.6383 44.7737 83.7885 45.6642C82.9439 46.5547 81.6718 46.9999 79.9774 46.9999Z" fill="black"/>
<path d="M99.403 46.478C97.7951 46.478 96.5459 46.0226 95.6555 45.1092C94.765 44.1958 94.3198 42.9364 94.3198 41.3285V5.54136C94.3198 3.84691 94.7549 2.56462 95.6224 1.69449C96.49 0.826908 97.7289 0.391846 99.3368 0.391846C100.988 0.391846 102.247 0.826908 103.117 1.69449C103.985 2.56462 104.42 3.84436 104.42 5.54136V37.9396H121.888C123.277 37.9396 124.343 38.3085 125.081 39.0489C125.818 39.7892 126.19 40.8324 126.19 42.1783C126.19 43.57 125.821 44.6335 125.081 45.3713C124.34 46.1116 123.277 46.4806 121.888 46.4806H99.403V46.478Z" fill="black"/>
<path d="M136.753 46.478C135.145 46.478 133.896 46.0226 133.006 45.1092C132.115 44.1958 131.67 42.9364 131.67 41.3285V5.54136C131.67 3.84691 132.105 2.56462 132.973 1.69449C133.84 0.826908 135.079 0.391846 136.687 0.391846C138.338 0.391846 139.597 0.826908 140.467 1.69449C141.335 2.56462 141.77 3.84436 141.77 5.54136V37.9396H159.238C160.627 37.9396 161.693 38.3085 162.431 39.0489C163.169 39.7892 163.54 40.8324 163.54 42.1783C163.54 43.57 163.171 44.6335 162.431 45.3713C161.69 46.1116 160.627 46.4806 159.238 46.4806H136.753V46.478Z" fill="black"/>
<path d="M174.167 47.0001C172.516 47.0001 171.244 46.5447 170.353 45.6313C169.463 44.7179 169.018 43.4153 169.018 41.7208V5.87009C169.018 4.13238 169.473 2.80683 170.386 1.89345C171.3 0.980076 172.602 0.524658 174.297 0.524658H196.525C197.87 0.524658 198.893 0.863041 199.588 1.53472C200.282 2.20894 200.631 3.17574 200.631 4.43514C200.631 5.73778 200.282 6.72749 199.588 7.40171C198.893 8.07593 197.87 8.41177 196.525 8.41177H179.12V19.558H195.156C196.458 19.558 197.458 19.8964 198.155 20.5681C198.85 21.2423 199.198 22.2295 199.198 23.5347C199.198 24.7966 198.85 25.7736 198.155 26.4682C197.461 27.1627 196.461 27.5113 195.156 27.5113H179.12V41.7208C179.12 45.2395 177.469 47.0001 174.167 47.0001Z" fill="black"/>
<path d="M211.451 46.4785C209.757 46.4785 208.451 46.0231 207.541 45.1097C206.627 44.1964 206.172 42.8734 206.172 41.1331V5.87009C206.172 4.13238 206.627 2.80683 207.541 1.89345C208.454 0.980077 209.757 0.524658 211.451 0.524658H234.2C235.503 0.524658 236.493 0.863041 237.167 1.53472C237.841 2.20894 238.177 3.17574 238.177 4.43514C238.177 5.73778 237.838 6.72749 237.167 7.40171C236.493 8.07593 235.505 8.41177 234.2 8.41177H215.885V19.1662H232.768C234.114 19.1662 235.114 19.5046 235.768 20.1763C236.419 20.8505 236.744 21.8377 236.744 23.1429C236.744 24.4048 236.419 25.3691 235.768 26.0433C235.116 26.7175 234.116 27.0533 232.768 27.0533H215.885V38.5914H234.2C235.503 38.5914 236.493 38.9298 237.167 39.6015C237.841 40.2757 238.177 41.2629 238.177 42.568C238.177 43.83 237.838 44.7943 237.167 45.4685C236.493 46.1427 235.505 46.4785 234.2 46.4785H211.451Z" fill="black"/>
<path d="M250.884 46.4785C249.189 46.4785 247.884 46.0231 246.973 45.1097C246.06 44.1964 245.604 42.8734 245.604 41.1331V5.87009C245.604 4.13238 246.06 2.80683 246.973 1.89345C247.887 0.980077 249.189 0.524658 250.884 0.524658H273.633C274.936 0.524658 275.925 0.863041 276.599 1.53472C277.274 2.20894 277.609 3.17574 277.609 4.43514C277.609 5.73778 277.271 6.72749 276.599 7.40171C275.925 8.07593 274.938 8.41177 273.633 8.41177H255.318V19.1662H272.201C273.546 19.1662 274.546 19.5046 275.2 20.1763C275.851 20.8505 276.177 21.8377 276.177 23.1429C276.177 24.4048 275.851 25.3691 275.2 26.0433C274.549 26.7175 273.549 27.0533 272.201 27.0533H255.318V38.5914H273.633C274.936 38.5914 275.925 38.9298 276.599 39.6015C277.274 40.2757 277.609 41.2629 277.609 42.568C277.609 43.83 277.271 44.7943 276.599 45.4685C275.925 46.1427 274.938 46.4785 273.633 46.4785H250.884Z" fill="black"/>
<path d="M290.318 46.4785C288.624 46.4785 287.319 46.0231 286.408 45.1097C285.494 44.1964 285.039 42.8734 285.039 41.1331V5.87009C285.039 4.13238 285.494 2.80683 286.408 1.89345C287.321 0.980077 288.624 0.524658 290.318 0.524658H303.028C310.849 0.524658 316.912 2.5117 321.214 6.48833C325.516 10.465 327.666 16.1259 327.666 23.4685C327.666 27.1195 327.111 30.3786 326.004 33.246C324.895 36.1133 323.287 38.5253 321.181 40.4818C319.072 42.4383 316.51 43.9267 313.49 44.9469C310.47 45.9697 306.982 46.4785 303.028 46.4785H290.318ZM295.142 38.1996H302.377C304.855 38.1996 307.015 37.8841 308.862 37.2557C310.709 36.6273 312.241 35.7139 313.457 34.5181C314.673 33.3223 315.586 31.8034 316.194 29.9563C316.802 28.1092 317.108 25.9466 317.108 23.4711C317.108 18.5174 315.892 14.8334 313.457 12.4215C311.022 10.0095 307.331 8.80358 302.377 8.80358H295.142V38.1996Z" fill="black"/>
</svg>
