<?xml version="1.0" encoding="iso-8859-1"?>
<!-- Generator: Adobe Illustrator 19.0.0, SVG Export Plug-In . SVG Version: 6.00 Build 0)  -->
<svg version="1.1" id="Capa_1" xmlns="http://www.w3.org/2000/svg" xmlns:xlink="http://www.w3.org/1999/xlink" x="0px" y="0px"
	 viewBox="0 0 512.042 512.042" style="enable-background:new 0 0 512.042 512.042;" xml:space="preserve">
<g>
	<g>
		<path d="M505.461,179.082l-240-176c-5.623-4.109-13.257-4.109-18.88,0l-240,176c-4.135,3.021-6.573,7.839-6.56,12.96v272
			c0,26.51,21.49,48,48,48h416c26.51,0,48-21.49,48-48v-272C512.034,186.921,509.595,182.103,505.461,179.082z M256.021,35.882
			l211.2,154.88l-211.2,126.56l-211.2-126.56L256.021,35.882z M480.021,464.042c0,8.837-7.163,16-16,16h-416
			c-8.837,0-16-7.163-16-16v-243.68l215.84,129.44c4.95,2.858,11.05,2.858,16,0l216.16-129.44V464.042z"/>
	</g>
</g>
<g>
</g>
<g>
</g>
<g>
</g>
<g>
</g>
<g>
</g>
<g>
</g>
<g>
</g>
<g>
</g>
<g>
</g>
<g>
</g>
<g>
</g>
<g>
</g>
<g>
</g>
<g>
</g>
<g>
</g>
</svg>
