<?xml version="1.0" encoding="UTF-8"?>
<svg xmlns="http://www.w3.org/2000/svg" viewBox="0 0 64 64" width="512" height="512"><g id="FLAT"><g id="_27-Sale_copy_2" data-name="27-Sale copy 2"><path d="M29.1307,61h0c-14,0-20.9364-11-15-23,3.3881-6.8488,15-28,15-28s11.6118,21.1512,15,28C50.067,50,43.1306,61,29.1307,61Z" fill="#fcb64d"/><path d="M18.8694,38C21.2925,33.1019,27.92,20.8914,31.5,14.3315,30.0744,11.719,29.1307,10,29.1307,10s-11.6119,21.1512-15,28c-5.9364,12,1,23,15,23h0c.8149,0,1.6034-.0409,2.3693-.1135C19.108,59.7124,13.2786,49.3015,18.8694,38Z" fill="#fecc81"/><path d="M41,37h0c-8.246,0-13.5471-8.2109-9.747-15.4375C33.6925,16.9233,41,3,41,3s7.3075,13.9233,9.747,18.5625C54.5471,28.7891,49.2461,37,41,37Z" fill="#faa629"/><path d="M35.253,21.5625c1.6233-3.087,5.4-10.2812,7.747-14.7521C41.82,4.5624,41,3,41,3s-7.3075,13.9233-9.747,18.5625C27.4529,28.7891,32.754,37,41,37a11.8359,11.8359,0,0,0,2-.1874A10.45,10.45,0,0,1,35.253,21.5625Z" fill="#fecc81"/><path d="M29.8154,56a1,1,0,1,1,0-2,7.7788,7.7788,0,0,0,8.03-6.2422,1,1,0,0,1,1.94.4844A9.7712,9.7712,0,0,1,29.8154,56Z" fill="#ffe0b2"/></g></g></svg>
