<svg width="53" height="52" viewBox="0 0 53 52" fill="none" xmlns="http://www.w3.org/2000/svg">
<path fill-rule="evenodd" clip-rule="evenodd" d="M2.13135 16.2981V43.0376C2.13135 44.8842 2.8649 46.6551 4.17062 47.9609C5.47635 49.2666 7.24729 50.0001 9.09387 50.0001H43.9065C45.753 50.0001 47.524 49.2666 48.8297 47.9609C50.1354 46.6551 50.869 44.8842 50.869 43.0376V16.2981C50.8688 14.9357 50.469 13.6033 49.719 12.466C48.969 11.3286 47.9019 10.4363 46.6497 9.89951L29.2434 2.43917C28.3766 2.06758 27.4433 1.87598 26.5002 1.87598C25.557 1.87598 24.6238 2.06758 23.7569 2.43917L6.35063 9.89951C5.09847 10.4363 4.0313 11.3286 3.28131 12.466C2.53133 13.6033 2.1315 14.9357 2.13135 16.2981Z" stroke="#26BBFB" stroke-width="3.5" stroke-linecap="round" stroke-linejoin="round"/>
<path d="M9.09375 18.6689L26.5 29.1127L43.9063 18.6689" stroke="#26BBFB" stroke-width="3.5" stroke-linecap="round" stroke-linejoin="round"/>
</svg>
