<svg width="38" height="38" viewBox="0 0 38 38" fill="none" xmlns="http://www.w3.org/2000/svg">
<g clip-path="url(#clip0_116_2647)">
<path d="M17.2562 0.378437C10.725 1.04641 5.12147 4.92804 2.22694 10.7987C1.32147 12.6245 0.727718 14.5913 0.438265 16.6991C0.312094 17.6046 0.304672 20.3878 0.430844 21.2636C0.913265 24.6925 2.08592 27.5796 4.10467 30.2738C4.72069 31.0902 6.60584 33.0273 7.40741 33.6581C11.8605 37.1538 17.4937 38.4452 23.0453 37.2577C25.6652 36.6937 28.6117 35.2613 30.764 33.5097C31.8254 32.6488 33.1242 31.2905 33.9703 30.1698C36.6941 26.5702 38.0375 21.8573 37.6219 17.3671C37.3027 13.8862 36.0187 10.539 33.9703 7.83C33.3765 7.03586 33.1539 6.78351 32.2187 5.84094C29.3762 2.93898 25.6875 1.08352 21.5609 0.474922C20.648 0.341328 18.1543 0.281952 17.2562 0.378437ZM17.8203 7.83C20.8558 8.35695 23.3941 10.5093 24.4555 13.4335C25.3461 15.9124 24.9824 18.9331 23.5203 21.0855L23.2383 21.5011L24.2551 22.503C25.2051 23.4456 25.2867 23.5124 25.5019 23.4753C25.643 23.453 25.8433 23.4902 25.9918 23.557C26.1328 23.6237 27.1051 24.5441 28.1441 25.5905C30.2742 27.7355 30.3262 27.8097 30.2668 28.678C30.2445 29.0714 30.1926 29.2273 30.0144 29.4796C29.6582 29.9917 29.25 30.2292 28.6785 30.2663C27.8101 30.3257 27.7359 30.2738 25.591 28.1437C24.5445 27.1046 23.6242 26.1323 23.5574 25.9913C23.4906 25.8429 23.4535 25.6425 23.4758 25.5015C23.5129 25.2863 23.4461 25.2046 22.5035 24.2546L21.5015 23.2378L21.0859 23.5198C18.607 25.2046 15.1707 25.405 12.432 24.0245C10.4058 23.0077 8.81014 21.1226 8.10506 18.9257C7.78592 17.9237 7.68944 17.1667 7.74139 15.9273C7.78592 14.6136 8.00858 13.7304 8.57264 12.5726C9.7824 10.0788 12.098 8.31984 14.7996 7.83C15.5269 7.69641 17.0707 7.69641 17.8203 7.83Z" fill="#0070AF"/>
<path d="M15.1412 10.5761C13.9314 10.8433 12.8998 11.4296 12.0611 12.3276C11.267 13.1812 10.7994 14.0644 10.5619 15.1628C10.406 15.9124 10.4654 17.2929 10.6881 17.998C11.2002 19.6085 12.2764 20.8702 13.7533 21.5976C14.5623 21.9909 15.0892 22.1245 16.0392 22.1691C17.8131 22.2581 19.3865 21.6198 20.6037 20.321C22.808 17.9608 22.6892 14.2944 20.3439 12.0753C19.6908 11.4593 19.0006 11.0511 18.1099 10.7542C17.5088 10.5538 17.2713 10.5167 16.5142 10.4944C15.9131 10.4722 15.4678 10.5019 15.1412 10.5761Z" fill="#0070AF"/>
</g>
<defs>
<clipPath id="clip0_116_2647">
<rect width="38" height="38" fill="white"/>
</clipPath>
</defs>
</svg>
