<svg width="38" height="38" viewBox="0 0 38 38" fill="none" xmlns="http://www.w3.org/2000/svg">
<path d="M17.761 0.111332C15.1114 0.593754 12.9145 2.47149 12.061 4.98008C11.8532 5.57383 11.6528 6.67227 11.6528 7.17696V7.48867L9.67113 7.51094C7.69691 7.53321 7.68207 7.53321 7.25902 7.7336C6.46488 8.10469 5.88597 8.81719 5.71527 9.61875C5.67816 9.81914 5.25511 14.8734 4.78011 20.8555C3.97855 30.9566 3.91918 31.7805 3.9934 32.4707C4.268 35.0016 5.92308 36.9684 8.4391 37.7551L9.09222 37.9629H19.0004H28.9086L29.5618 37.7551C32.0778 36.9684 33.7328 35.0016 34.0075 32.4707C34.0817 31.7805 34.0223 30.9492 33.2207 20.8555C32.7457 14.8734 32.3227 9.81914 32.2856 9.61875C32.1149 8.81719 31.536 8.10469 30.7418 7.7336C30.3188 7.53321 30.3039 7.53321 28.3371 7.51094L26.3481 7.48867V7.17696C26.3481 6.67969 26.1477 5.57383 25.9547 5.00977C25.22 2.85743 23.4981 1.12813 21.368 0.408207C20.225 0.0148468 18.8891 -0.0964813 17.761 0.111332ZM20.0172 2.34531C22.0285 2.76094 23.5871 4.31953 24.0028 6.33086C24.0696 6.64258 24.1215 7.02852 24.1215 7.19922V7.4961H25.2348H26.3481V10.0715C26.3481 12.5207 26.3407 12.6617 26.1922 12.9586C26.0364 13.2926 25.591 13.582 25.2348 13.582C24.9082 13.582 24.4555 13.3 24.2848 12.9957C24.1289 12.7137 24.1215 12.6469 24.1215 10.1012V7.4961H19.0004H13.8793V10.1012C13.8793 12.6469 13.8719 12.7137 13.7161 12.9957C13.5453 13.3 13.0926 13.582 12.7661 13.582C12.4098 13.582 11.9645 13.2926 11.8086 12.9586C11.6602 12.6617 11.6528 12.5207 11.6528 10.0715V7.4961H12.7661H13.8793V7.19922C13.8793 7.02852 13.9313 6.64258 13.9981 6.33086C14.5696 3.5625 17.2711 1.77383 20.0172 2.34531ZM23.7504 18.6957C24.0473 18.8516 24.3442 19.3117 24.3442 19.6234C24.3442 19.7422 24.2774 19.9797 24.1957 20.143C24.0176 20.5215 18.2434 26.3031 17.9391 26.4145C17.6274 26.5332 17.1301 26.5109 16.9223 26.3773C16.5586 26.1324 13.9387 23.4828 13.7977 23.2156C13.6196 22.8594 13.6196 22.6145 13.8125 22.2211C13.9239 21.991 14.05 21.8648 14.2801 21.7535C14.9332 21.4344 15.2524 21.5977 16.5141 22.8594L17.4789 23.8242L20.0024 21.3008C21.3903 19.9203 22.6297 18.7328 22.7485 18.6734C23.0453 18.5176 23.4387 18.525 23.7504 18.6957Z" fill="#00880E"/>
</svg>
