<svg width="21" height="21" viewBox="0 0 21 21" fill="none" xmlns="http://www.w3.org/2000/svg">
<path fill-rule="evenodd" clip-rule="evenodd" d="M9.52323 1.45253C9.63273 1.26463 9.78959 1.10871 9.97816 1.00035C10.1667 0.891987 10.3804 0.834961 10.5979 0.834961C10.8154 0.834961 11.0291 0.891987 11.2176 1.00035C11.4062 1.10871 11.5631 1.26463 11.6726 1.45253L14.4538 6.22686L19.855 7.39706C20.0675 7.44322 20.2641 7.54428 20.4253 7.69014C20.5866 7.836 20.7067 8.02157 20.7739 8.22836C20.841 8.43515 20.8528 8.65592 20.808 8.86868C20.7633 9.08144 20.6635 9.27874 20.5187 9.44092L16.837 13.5615L17.3942 19.0592C17.4162 19.2757 17.381 19.4942 17.2921 19.6928C17.2033 19.8914 17.0639 20.0633 16.8878 20.1912C16.7118 20.3191 16.5053 20.3986 16.2889 20.4217C16.0726 20.4448 15.8539 20.4108 15.6548 20.323L10.5979 18.094L5.54098 20.323C5.34188 20.4108 5.12324 20.4448 4.90688 20.4217C4.69051 20.3986 4.484 20.3191 4.30796 20.1912C4.13192 20.0633 3.99252 19.8914 3.90367 19.6928C3.81481 19.4942 3.77962 19.2757 3.8016 19.0592L4.35884 13.5615L0.677096 9.44192C0.532043 9.27975 0.432067 9.08236 0.387148 8.86947C0.342229 8.65658 0.353939 8.43564 0.421109 8.22869C0.488279 8.02174 0.60856 7.83603 0.769942 7.6901C0.931324 7.54417 1.12816 7.44313 1.34081 7.39706L6.74202 6.22686L9.52323 1.45253Z" fill="#FFB800"/>
</svg>
