<svg width="38" height="38" viewBox="0 0 38 38" fill="none" xmlns="http://www.w3.org/2000/svg">
<path d="M18.2507 0.118752C18.0355 0.185547 17.1894 0.727345 15.9871 1.56602C14.9257 2.3082 13.9609 2.96133 13.8273 3.01328C13.6418 3.09492 13.0851 3.11719 11.4894 3.11719C9.25543 3.11719 8.71363 3.16914 8.1941 3.41406C7.7859 3.61445 7.32574 4.06719 7.11793 4.46797C7.02887 4.63867 6.65035 5.68516 6.27184 6.78359C5.89332 7.88945 5.53707 8.89141 5.48512 9.01016C5.41832 9.15117 4.74293 9.70781 3.48863 10.6504C2.44215 11.4371 1.49215 12.1867 1.3734 12.3277C1.04684 12.7137 0.868712 13.1961 0.839025 13.7676C0.809337 14.2574 0.846446 14.4281 1.51442 16.5879C1.90777 17.8496 2.22692 18.9406 2.22692 19C2.22692 19.0594 1.90777 20.143 1.51442 21.4121C0.846446 23.5719 0.809337 23.7426 0.839025 24.2324C0.868712 24.8039 1.04684 25.2863 1.3734 25.6723C1.49215 25.8133 2.44215 26.5629 3.48863 27.3496C4.74293 28.2922 5.41832 28.8488 5.48512 28.9898C5.53707 29.1086 5.89332 30.1105 6.27184 31.2164C6.65035 32.3223 7.03629 33.3688 7.12535 33.5395C7.32574 33.9402 7.7859 34.3855 8.20152 34.5859C8.69879 34.8234 9.2777 34.8828 11.5043 34.8828C12.9738 34.8902 13.6195 34.9125 13.805 34.9867C13.9461 35.0387 14.9257 35.6844 15.9797 36.4266C17.9836 37.8367 18.3027 38 19.0004 38C19.698 38 20.0171 37.8367 22.0211 36.4266C23.075 35.6918 24.0546 35.0387 24.1957 34.9867C24.3812 34.9125 25.0121 34.8902 26.4964 34.8828C27.6171 34.8828 28.7379 34.8531 28.9828 34.816C29.8214 34.6973 30.5339 34.2148 30.8754 33.5395C30.9644 33.3688 31.3504 32.3223 31.7289 31.2164C32.1074 30.1105 32.4636 29.1086 32.5156 28.9898C32.5824 28.8488 33.2652 28.2922 34.4898 27.3719C35.514 26.6 36.464 25.843 36.5976 25.6945C36.9464 25.3012 37.132 24.8262 37.1617 24.2324C37.1914 23.7426 37.1543 23.5719 36.4863 21.4121C36.0929 20.143 35.7738 19.0594 35.7738 19C35.7738 18.9406 36.0781 17.9016 36.4566 16.6992C37.0875 14.673 37.1394 14.4652 37.1394 13.8789C37.1468 13.1664 37.0058 12.773 36.5902 12.2906C36.4566 12.1422 35.514 11.3926 34.4972 10.6355C33.3691 9.79688 32.6047 9.17344 32.5379 9.04727C32.4785 8.92852 32.1148 7.91914 31.7363 6.80586C31.3578 5.69258 30.9718 4.63867 30.8828 4.46797C30.675 4.06719 30.2148 3.61445 29.8066 3.41406C29.2871 3.16914 28.7453 3.11719 26.5113 3.11719C24.9007 3.11719 24.3589 3.09492 24.1734 3.01328C24.0398 2.96133 23.075 2.3082 22.0211 1.56602C19.9949 0.148438 19.6906 -0.00741959 18.9707 0.0074234C18.7629 0.0074234 18.4363 0.0593758 18.2507 0.118752ZM21.264 7.79297C23.4757 8.26055 25.3015 9.22539 26.8824 10.7543C29.3316 13.1145 30.5488 16.1352 30.4078 19.475C30.2668 22.6738 28.9457 25.4422 26.5261 27.602C25.0863 28.8859 23.2828 29.7766 21.2269 30.2145C20.0988 30.4594 17.9019 30.4594 16.7738 30.2145C14.5175 29.732 12.7066 28.7746 11.1183 27.2457C8.06793 24.3141 6.91012 20.2395 7.94176 16.1277C8.4316 14.1906 9.36676 12.5504 10.8363 11.0363C12.6175 9.20312 14.7402 8.10469 17.3304 7.68164C18.2879 7.52578 20.2769 7.58516 21.264 7.79297Z" fill="#6741FF"/>
<path d="M18.184 9.09961C17.5828 9.15898 16.6179 9.35937 16.0019 9.55234C14.5324 10.0199 13.2855 10.7695 12.1277 11.8902C10.1015 13.857 9.09958 16.2395 9.11442 19.0746C9.12926 21.8133 10.1683 24.218 12.1648 26.1477C14.0277 27.9437 16.373 28.8789 19.0004 28.8789C21.0711 28.8789 22.8597 28.3371 24.6039 27.1645C25.3386 26.6746 26.7117 25.3016 27.1941 24.5742C28.3297 22.8598 28.8863 21.0488 28.8863 19.0375C28.8937 16.3359 27.9734 14.05 26.1105 12.1277C24.2476 10.2129 21.9914 9.20351 19.3121 9.09961C18.8742 9.08476 18.3695 9.08476 18.184 9.09961ZM25.1605 14.9703C25.4722 15.2523 25.5242 15.6234 25.2941 15.9352C25.1382 16.1504 18.0726 22.6594 17.5605 23.0602C17.3304 23.2383 17.0039 23.2828 16.7738 23.1566C16.5511 23.0379 12.6175 18.4809 12.573 18.2805C12.4617 17.8352 12.8105 17.3676 13.2484 17.3676C13.3968 17.3676 13.5824 17.4047 13.6566 17.4418C13.7382 17.4863 14.5547 18.3844 15.475 19.4457L17.1597 21.3754L17.3675 21.2121C17.4789 21.1156 19.082 19.6535 20.93 17.9613C22.7707 16.2691 24.3367 14.859 24.4035 14.8293C24.6707 14.7254 24.9379 14.7699 25.1605 14.9703Z" fill="#6741FF"/>
</svg>
