<svg width="37" height="37" viewBox="0 0 37 37" fill="none" xmlns="http://www.w3.org/2000/svg">
<path d="M0.831055 2.66622C0.491406 2.8252 0.187891 3.12872 0.0794922 3.41778C0.0216797 3.56231 0 6.9877 0 14.4961C0 24.1147 0.0144531 25.401 0.108398 25.6322C0.346875 26.2031 0.766016 26.4488 1.48867 26.4488H1.97285L1.0334 27.4027C0.274609 28.1832 0.0867188 28.4145 0.0433594 28.6313C-0.0433594 29.1154 0.173438 29.5996 0.578125 29.8092C0.845508 29.9465 1.32246 29.9465 1.57539 29.8164C1.68379 29.7586 2.50039 28.9781 3.39648 28.082L5.02246 26.4488H3.50488H1.9873L5.00801 23.4281C6.66289 21.766 8.02149 20.3568 8.02149 20.2918C8.02149 20.234 7.84082 19.9088 7.6168 19.5836C6.78574 18.3623 6.475 17.3723 6.475 15.9342C6.475 15.1971 6.51113 14.8647 6.63399 14.3949C7.10371 12.6389 8.1877 11.2441 9.77031 10.377C12.408 8.92442 15.8262 9.60372 17.6906 11.9523C19.8947 14.7273 19.4684 18.6658 16.7295 20.8627C15.66 21.7227 14.482 22.1707 13.109 22.2357C12.1768 22.2863 11.5842 22.1996 10.6664 21.8889C10.3195 21.766 9.9582 21.6865 9.87148 21.7082C9.79199 21.7299 8.66465 22.8066 7.37109 24.1002L5.02246 26.4488H20.509C35.7787 26.4488 35.9955 26.4488 36.2701 26.3043C36.6098 26.1381 36.8266 25.8707 36.9277 25.5166C36.9855 25.3432 37 21.7732 36.9855 14.3299L36.9639 3.41055L36.7398 3.12872C36.6242 2.97696 36.3785 2.78184 36.2051 2.68789L35.8871 2.52891H18.5C1.73438 2.52891 1.11289 2.53614 0.831055 2.66622ZM25.8566 9.03282C25.9867 9.11231 26.1529 9.27852 26.2324 9.4086C26.3697 9.63985 26.377 9.78438 26.377 15.6523V21.6576L26.218 21.8961C25.965 22.2647 25.7193 22.4164 25.358 22.4164C24.9678 22.4236 24.6354 22.2647 24.4113 21.9539L24.2451 21.7154L24.2234 15.7535L24.209 9.79161L24.368 9.47364C24.6498 8.92442 25.3363 8.72207 25.8566 9.03282ZM29.3398 11.9379C29.4699 12.0318 29.6361 12.2197 29.7084 12.357C29.8385 12.5955 29.8457 12.8629 29.8457 17.076C29.8457 21.8672 29.8457 21.8238 29.4771 22.1635C29.0941 22.5031 28.4221 22.5104 28.0607 22.1707C27.6705 21.8166 27.6777 21.8889 27.6777 17.076C27.6777 12.9713 27.685 12.5883 27.8078 12.357C28.0824 11.8006 28.834 11.5982 29.3398 11.9379ZM32.7363 14.7996C32.8953 14.8863 33.0543 15.0525 33.1555 15.2549L33.3217 15.5729L33.3 18.6441L33.2783 21.7154L33.1121 21.9539C32.8881 22.2647 32.5557 22.4236 32.1654 22.4164C31.8041 22.4164 31.5584 22.2647 31.3127 21.8961C31.1465 21.6576 31.1465 21.6576 31.1465 18.543C31.1465 15.5656 31.1537 15.4211 31.291 15.1898C31.5873 14.6984 32.2232 14.5322 32.7363 14.7996ZM22.4602 16.2594C22.5902 16.3389 22.7564 16.5051 22.8359 16.6352C22.9732 16.8592 22.9805 17.0037 22.9805 19.2656C22.9805 21.6287 22.9805 21.6576 22.8215 21.8961C22.5686 22.2647 22.3229 22.4164 21.9615 22.4164C21.5713 22.4236 21.2389 22.2647 21.0148 21.9539C20.8486 21.7154 20.8486 21.6938 20.827 19.3668C20.8053 17.0398 20.8125 17.0182 20.9715 16.7002C21.2533 16.151 21.9471 15.9486 22.4602 16.2594Z" fill="#C37600"/>
<path d="M11.8154 11.8805C10.8182 12.1189 9.90762 12.7621 9.32949 13.6293C8.82363 14.3809 8.63574 15.0096 8.63574 15.9346C8.63574 17.1559 9.05488 18.117 9.9582 18.9842C10.4135 19.425 11.2879 19.8803 11.9094 20.0103C13.3113 20.2994 14.6627 19.8875 15.6889 18.8685C16.5561 18.0086 16.9318 17.1197 16.9318 15.9346C16.9318 14.6482 16.3971 13.5209 15.3926 12.6971C14.9879 12.3574 14.1785 11.96 13.6727 11.8588C13.1813 11.7576 12.2779 11.7648 11.8154 11.8805Z" fill="#C37600"/>
<path d="M15.1756 28.5446C15.0455 28.6747 15.031 28.7831 15.031 29.7659C15.031 30.7342 15.0166 30.8499 14.9082 30.886C14.8359 30.9077 14.5035 30.9727 14.1638 31.0378C13.1521 31.2256 11.7357 31.6376 10.5 32.1145C9.6617 32.4325 9.49549 32.5409 9.3076 32.9022C9.06189 33.3864 9.20642 33.9139 9.6906 34.268C10.0447 34.5354 10.3049 34.5137 11.3383 34.109C15.2189 32.6131 19.3742 32.3602 23.3777 33.3864C24.3533 33.6321 24.7869 33.7766 26.2683 34.3258C26.6513 34.4704 26.7381 34.4776 27.0199 34.4053C27.8148 34.1813 28.0894 33.184 27.5041 32.6276C27.0416 32.194 24.3678 31.2907 22.6912 31.0016C21.8963 30.8643 21.9685 30.9944 21.9685 29.7659C21.9685 28.7831 21.9541 28.6747 21.824 28.5446C21.6867 28.4073 21.5855 28.4001 18.4998 28.4001C15.414 28.4001 15.3129 28.4073 15.1756 28.5446Z" fill="#C37600"/>
</svg>
