<svg width="75" height="75" viewBox="0 0 75 75" fill="none" xmlns="http://www.w3.org/2000/svg">
<path d="M17.7243 70.3131C20.5837 70.3131 24.6003 69.2789 30.615 65.9186C37.9289 61.817 43.5862 58.0304 50.8606 50.775C57.8743 43.7657 61.2873 39.2276 66.0642 30.5353C71.4607 20.7208 70.5408 15.5763 69.5124 13.3775C68.2878 10.7496 66.4802 9.17784 64.1438 7.61778C62.8167 6.7483 61.4123 6.00296 59.9485 5.39122C59.802 5.32823 59.6658 5.26817 59.5442 5.21397C58.8191 4.88731 57.7204 4.39366 56.3288 4.921C55.4001 5.26964 54.571 5.98302 53.2732 7.26475C50.6116 9.88975 46.9743 15.7359 45.6326 18.607C44.7317 20.5421 44.1355 21.8194 44.134 23.2521C44.134 24.9293 44.9778 26.2228 46.0017 27.6188C46.1936 27.881 46.384 28.1315 46.5686 28.3746C47.6833 29.8395 47.928 30.2628 47.7668 31.0187C47.4402 32.5377 45.0041 37.0597 41.0007 41.0543C36.9973 45.0489 32.6057 47.3312 31.0808 47.6564C30.2927 47.8248 29.8606 47.5699 28.3489 46.4156C28.1321 46.2501 27.9094 46.0787 27.6765 45.9073C26.115 44.7457 24.8816 43.9239 23.2439 43.9239H23.2351C21.8098 43.9239 20.5896 44.5421 18.5681 45.5616C15.9314 46.8917 9.90941 50.482 7.2683 53.1466C5.98363 54.4415 5.26733 55.2677 4.91723 56.1949C4.38988 57.5909 4.88647 58.6852 5.2102 59.4176C5.2644 59.5392 5.32445 59.6725 5.38744 59.8204C6.00402 61.2817 6.75377 62.6831 7.62719 64.007C9.18431 66.3361 10.762 68.1393 13.3957 69.3653C14.7482 70.0051 16.2283 70.3291 17.7243 70.3131Z" fill="white"/>
<path d="M7.10322 32H0C0 13.758 13.7554 0 32 0V7.1119C17.5734 7.1119 7.10322 17.5771 7.10322 32Z" fill="white"/>
<path d="M32 21.2C24.4292 21.2 21.2 24.4292 21.2 32H14C14 20.39 20.39 14 32 14V21.2Z" fill="white"/>
</svg>
