<svg width="176" height="176" viewBox="0 0 176 176" fill="none" xmlns="http://www.w3.org/2000/svg">
<g clip-path="url(#clip0_617_2825)">
<path d="M84.5634 15.1249C76.4852 15.8812 68.579 19.628 62.7352 25.5749C48.0571 40.4249 49.1571 64.3155 65.1415 77.7905C78.9602 89.4437 99.2759 88.8249 112.476 76.3812C123.373 66.103 126.57 50.3249 120.657 36.3687C118.32 30.903 113.095 24.5437 108.316 21.3124C103.504 18.0812 97.454 15.7437 92.7446 15.2968C88.4134 14.9187 87.4509 14.8843 84.5634 15.1249ZM93.5352 20.8312C104.948 22.9968 114.023 31.3843 117.22 42.6937C118.148 45.9593 118.491 51.7687 117.941 55.1718C116.016 66.9624 107.698 76.3468 96.079 79.7843C92.5727 80.8155 85.9384 81.0562 82.1571 80.2999C76.7259 79.1999 71.604 76.5874 67.479 72.7374C56.4446 62.4593 54.554 46.2343 62.9415 33.6874C69.6102 23.6843 81.779 18.5968 93.5352 20.8312Z" fill="black"/>
<path d="M88.6875 29.9405C78.1 31.178 71.0531 36.0249 68.3375 43.9655L67.6156 46.0624L66.4469 44.3437C65.0031 42.2124 64.0406 41.6624 62.6313 42.2468C61.6344 42.6593 60.8438 43.8624 60.8438 44.8937C60.8438 45.203 62.425 47.953 64.35 51.0468C68.1656 57.1999 68.8875 57.8874 70.7438 56.9249C71.2594 56.6499 73.7344 54.3468 76.2438 51.803C80.9188 47.0593 81.3313 46.3718 80.4375 44.6874C80.025 43.9312 78.2375 43.2437 77.4125 43.553C77.1031 43.6562 75.9344 44.6187 74.8 45.6843C72.5656 47.8499 72.4625 47.5749 74.2844 43.7937C76.7938 38.5343 81.9844 35.9218 91.4719 35.0968C94.4969 34.8562 95.0812 34.7187 95.6313 34.0312C96.525 32.9312 96.4219 31.4187 95.3906 30.4218C94.4625 29.4593 93.4313 29.3905 88.6875 29.9405Z" fill="black"/>
<path d="M100.134 48.9155C96.0087 53.0405 95.2181 53.9687 95.2181 54.828C95.2525 55.9968 95.7337 56.753 96.8681 57.3718C98.0025 57.9905 98.9306 57.578 101.165 55.378C103.056 53.5562 103.159 53.5218 102.918 54.4843C102.781 55.0343 102.265 56.3749 101.715 57.4062C99.24 62.3561 93.465 65.3811 85.765 65.8624C84.0806 65.9655 82.3275 66.103 81.8806 66.2061C79.7493 66.653 78.9587 69.4718 80.6431 70.778C81.7087 71.603 82.9806 71.6718 87.3118 71.1561C91.6431 70.6061 94.3931 69.8843 97.5556 68.3718C102.54 65.9655 106.459 61.4624 107.971 56.4437L108.384 54.9999L109.552 56.7187C110.206 57.6812 111.099 58.6437 111.546 58.8499C113.299 59.6405 115.499 57.7843 115.018 55.928C114.777 54.9655 108.418 44.6187 107.834 44.2749C107.627 44.1374 106.871 43.9999 106.218 43.9999C105.152 43.9999 104.568 44.4812 100.134 48.9155Z" fill="black"/>
<path d="M36.2662 71.0188C34.2724 71.3281 31.4537 72.2563 29.4599 73.2875C27.5693 74.2156 27.2943 74.2844 25.9193 73.9406C20.5912 72.6 16.1224 74.6281 13.9224 79.4406C12.6849 82.1563 12.2724 84.7688 12.2724 89.7188C12.2381 93.3969 12.3756 94.325 13.0287 96.0781C13.5443 97.4188 13.8881 99.1031 13.9568 100.891C14.1287 104.191 15.5381 107.525 17.1881 108.522C17.7724 108.866 18.4256 109.691 18.7693 110.481C20.8318 115.672 26.0568 119.763 31.7287 120.656C38.3974 121.688 45.5818 117.803 48.6756 111.513C49.1912 110.447 50.3599 108.831 51.2193 107.972C53.1787 106.013 53.9693 103.881 53.9693 100.684C53.9693 99.1031 54.2099 97.7625 54.6912 96.525C55.6193 94.2563 55.9631 88.7219 55.3787 85.9031C54.1068 79.75 49.0537 73.7688 43.5193 71.8094C41.6287 71.1563 38.0193 70.7781 36.2662 71.0188ZM42.9006 77.3781C47.1974 79.5094 50.5318 84.975 50.4974 89.8906V91.2656L49.7756 90.2688C48.8474 89.0313 47.2318 88.3438 45.1349 88.3438C43.0381 88.3094 40.8724 87.3469 39.3599 85.6969C37.6756 83.875 36.5068 83.9438 33.9287 86.0406C30.3193 88.9625 26.5381 90.3031 23.0318 89.925C20.7631 89.65 19.5943 90.0281 18.3224 91.3344L17.4287 92.2969L17.6349 88.1719C17.8412 83.6344 18.4256 81.5031 19.8349 80.025C21.1412 78.65 22.5849 78.5125 25.4037 79.4063L27.7756 80.1969L29.8037 79.0625C35.0287 76.0719 39.2568 75.5563 42.9006 77.3781ZM37.9506 91.6094C39.3256 92.6406 41.1818 93.3281 43.5881 93.6719C45.0662 93.8781 45.3756 94.0156 45.3756 94.6C45.3756 95.6313 45.9943 96.525 47.0943 97.1094C47.8849 97.5219 48.1599 97.9688 48.4693 99.4125C49.0193 101.956 48.4006 103.778 46.7162 104.569C45.8912 104.947 45.3412 105.531 45.0662 106.288C43.4849 110.516 41.3193 113.197 38.3974 114.503C35.7162 115.706 31.7631 115.638 29.2881 114.366C28.2912 113.85 26.8818 112.819 26.1599 112.097C24.8881 110.825 23.0318 107.491 23.0318 106.459C23.0318 105.909 22.0006 104.913 20.9006 104.363C18.6318 103.228 18.7349 98.2781 21.0037 97.1094C21.5537 96.8 22.1381 96.2844 22.3443 95.9063C22.6537 95.3219 23.0662 95.2188 24.9224 95.2188C27.8099 95.2188 31.9349 93.9125 34.5818 92.1594C35.6818 91.4031 36.6443 90.7844 36.7131 90.7844C36.7818 90.75 37.3318 91.1281 37.9506 91.6094Z" fill="black"/>
<path d="M143.344 71.1905C142.312 71.3624 140.25 72.0843 138.703 72.7718C136.641 73.6999 135.609 74.0093 134.578 73.9062C133.822 73.8374 131.966 73.7687 130.419 73.7687C127.909 73.7343 127.497 73.8374 125.984 74.7655C123.784 76.1062 122.306 78.1343 121.309 81.0218C120.587 83.1187 120.484 83.978 120.484 89.203C120.484 94.1187 120.587 95.2874 121.137 96.5937C121.481 97.453 121.894 99.5155 122.031 101.234C122.306 104.775 123.062 106.562 124.953 108.247C125.641 108.866 126.741 110.378 127.394 111.684C128.15 113.231 129.284 114.709 130.762 116.119C136.262 121.412 143.791 122.306 150.425 118.422C152.419 117.253 155.478 113.816 156.612 111.478C157.162 110.378 158.228 108.9 159.019 108.178C160.909 106.494 161.906 103.95 161.906 100.787C161.906 99.3093 162.147 97.8312 162.594 96.6968C164.759 90.9905 164.003 84.5624 160.497 79.1655C157.781 75.0062 153.931 72.2218 149.634 71.328C147.022 70.778 146.094 70.7437 143.344 71.1905ZM151.044 77.3437C154.825 79.2687 158.022 84.2874 158.331 88.8249L158.503 91.2655L157.747 90.2687C156.75 89.0312 155.134 88.3437 153.072 88.3437C150.975 88.3093 148.947 87.4155 147.4 85.7312C145.716 83.9437 144.306 83.9437 142.381 85.6624C139.081 88.6187 136.091 89.7874 131.381 89.8905C127.875 89.9593 127.841 89.9593 126.637 91.128L125.469 92.2624V90.1655C125.469 87.0374 126.122 82.878 126.844 81.503C128.184 78.8218 129.869 78.2718 133.375 79.4062L135.747 80.1624L138.6 78.6843C142.553 76.6562 143.791 76.3124 146.781 76.4155C148.706 76.4843 149.772 76.7249 151.044 77.3437ZM145.372 91.2312C146.025 91.9874 149.566 93.4312 151.525 93.6718C153.141 93.878 153.312 93.9812 153.312 94.7374C153.312 95.528 153.725 96.0437 155.719 97.728C156.062 98.0374 156.475 98.9655 156.578 99.8593C156.922 102.094 156.2 103.812 154.619 104.569C153.691 105.016 153.278 105.497 152.969 106.459C151.697 110.309 149.531 112.956 146.437 114.434C143.756 115.706 140.181 115.706 137.5 114.434C134.406 112.956 132.309 110.481 131.175 106.975C130.659 105.462 130.35 105.05 129.319 104.569C127.566 103.744 126.844 101.784 127.462 99.4468C127.703 98.5187 128.15 97.6249 128.459 97.453C128.803 97.2468 129.456 96.6968 129.972 96.1468C130.762 95.3562 131.175 95.2187 132.928 95.2187C134.028 95.2187 135.884 94.978 136.984 94.703C139.012 94.153 143.034 92.1937 144.031 91.2312C144.65 90.6468 144.891 90.6124 145.372 91.2312Z" fill="black"/>
<path d="M12.4781 123.234C6.7375 124.781 2.09687 129.422 0.61875 135.059C0.1375 136.95 0.034375 139.081 0.034375 148.225L0 159.122L0.825 160.084L1.65 161.047H34.0312H66.4125L67.2375 160.084L68.0625 159.122V148.569C68.0625 137.053 67.8563 135.369 66.0687 131.725C64.9 129.319 61.5656 125.847 59.2969 124.712C55.8938 122.994 54.3469 122.719 47.3344 122.719H40.8375L39.0156 124.609C35.3375 128.425 31.6938 128.528 29.0125 124.884C28.4969 124.162 27.8094 123.372 27.5344 123.131C26.7781 122.513 14.8844 122.616 12.4781 123.234ZM26.0219 129.628C28.5312 132 30.4906 132.825 33.5156 132.791C36.7125 132.791 39.1875 131.794 41.6969 129.559L43.6906 127.806L48.7781 127.909C53.7969 128.047 53.9 128.047 56.2375 129.25C57.8875 130.109 59.0219 131.003 60.0531 132.241C62.3563 135.128 62.5625 136.228 62.5625 146.678V155.719H33.9969H5.46563L5.56875 145.819C5.67188 136.297 5.70625 135.919 6.4625 134.475C8.14688 131.312 11.0344 129.009 14.3344 128.253C15.0563 128.081 17.5656 127.944 19.9031 127.909L24.1656 127.875L26.0219 129.628Z" fill="black"/>
<path d="M120.347 123.269C114.538 124.816 109.897 129.731 108.453 135.85C108.075 137.5 107.938 140.491 107.938 148.569V159.122L108.763 160.084L109.588 161.047H141.969H174.35L175.175 160.084L176 159.122L175.966 148.225C175.966 135.953 175.759 134.406 173.594 130.831C172.184 128.494 169.331 125.744 167.097 124.644C163.866 122.994 162.216 122.719 155.272 122.719H148.775L147.056 124.575C143.55 128.425 139.631 128.528 136.984 124.85C136.331 123.888 135.541 123.028 135.231 122.925C134.097 122.478 122.238 122.753 120.347 123.269ZM133.478 129.078C134.819 130.728 136.744 131.897 139.322 132.584C142.966 133.512 146.678 132.378 149.909 129.353L151.559 127.806L156.647 127.944C161.356 128.047 161.906 128.15 163.866 129.044C166.238 130.109 168.231 132.069 169.538 134.475C170.294 135.919 170.328 136.262 170.431 145.819L170.534 155.719H142.003H113.438V146.678C113.438 136.366 113.644 135.163 115.844 132.378C117.356 130.487 119.625 128.975 121.997 128.356C122.856 128.116 125.606 127.909 128.047 127.909L132.516 127.875L133.478 129.078Z" fill="black"/>
</g>
<defs>
<clipPath id="clip0_617_2825">
<rect width="176" height="176" fill="white"/>
</clipPath>
</defs>
</svg>
