<svg width="43" height="42" viewBox="0 0 43 42" fill="none" xmlns="http://www.w3.org/2000/svg">
<path d="M21.5377 13.0752C19.4354 13.0752 17.4191 13.9103 15.9326 15.3969C14.446 16.8835 13.6108 18.8997 13.6108 21.0021C13.6108 23.1044 14.446 25.1206 15.9326 26.6072C17.4191 28.0938 19.4354 28.9289 21.5377 28.9289C23.64 28.9289 25.6563 28.0938 27.1428 26.6072C28.6294 25.1206 29.4646 23.1044 29.4646 21.0021C29.4646 18.8997 28.6294 16.8835 27.1428 15.3969C25.6563 13.9103 23.64 13.0752 21.5377 13.0752ZM21.5377 26.1501C20.1719 26.1501 18.8621 25.6075 17.8963 24.6417C16.9305 23.676 16.388 22.3661 16.388 21.0003C16.388 19.6345 16.9305 18.3247 17.8963 17.3589C18.8621 16.3932 20.1719 15.8506 21.5377 15.8506C22.9035 15.8506 24.2133 16.3932 25.1791 17.3589C26.1449 18.3247 26.6874 19.6345 26.6874 21.0003C26.6874 22.3661 26.1449 23.676 25.1791 24.6417C24.2133 25.6075 22.9035 26.1501 21.5377 26.1501Z" fill="#26BBFB"/>
<path d="M29.7782 14.6315C30.7988 14.6315 31.6262 13.8042 31.6262 12.7835C31.6262 11.7629 30.7988 10.9355 29.7782 10.9355C28.7576 10.9355 27.9302 11.7629 27.9302 12.7835C27.9302 13.8042 28.7576 14.6315 29.7782 14.6315Z" fill="#26BBFB"/>
<path d="M36.1674 10.9046C35.7706 9.87982 35.1641 8.94913 34.3868 8.17218C33.6096 7.39522 32.6787 6.78911 31.6537 6.39265C30.4543 5.9424 29.1871 5.69895 27.9063 5.67265C26.2554 5.60065 25.7325 5.58008 21.5463 5.58008C17.36 5.58008 16.8234 5.58008 15.1863 5.67265C13.9064 5.6976 12.6401 5.94111 11.4423 6.39265C10.417 6.78865 9.48585 7.3946 8.70855 8.17161C7.93124 8.94863 7.32494 9.87955 6.92854 10.9046C6.47821 12.104 6.23531 13.3712 6.21026 14.6521C6.13654 16.3012 6.11426 16.8241 6.11426 21.0121C6.11426 25.1984 6.11426 25.7315 6.21026 27.3721C6.23597 28.6544 6.47769 29.9195 6.92854 31.1212C7.32605 32.146 7.93294 33.0765 8.71043 33.8534C9.48793 34.6303 10.4189 35.2365 11.444 35.6332C12.6396 36.1016 13.9063 36.3624 15.1897 36.4046C16.8405 36.4766 17.3634 36.4989 21.5497 36.4989C25.736 36.4989 26.2725 36.4989 27.9097 36.4046C29.1904 36.3786 30.4575 36.1357 31.6571 35.6864C32.6818 35.289 33.6125 34.6823 34.3896 33.9052C35.1668 33.128 35.7734 32.1974 36.1708 31.1726C36.6217 29.9727 36.8634 28.7075 36.8891 27.4252C36.9628 25.7761 36.9851 25.2532 36.9851 21.0652C36.9851 16.8772 36.9851 16.3458 36.8891 14.7052C36.8692 13.4063 36.625 12.1205 36.1674 10.9046ZM34.0794 27.2452C34.0683 28.2332 33.888 29.2119 33.5463 30.1389C33.2888 30.8056 32.8947 31.4109 32.3892 31.9161C31.8838 32.4213 31.2782 32.815 30.6114 33.0721C29.6946 33.4123 28.7263 33.5926 27.7485 33.6052C26.12 33.6806 25.6605 33.6995 21.4845 33.6995C17.3051 33.6995 16.8783 33.6995 15.2188 33.6052C14.2416 33.5933 13.2737 33.4129 12.3577 33.0721C11.6886 32.8166 11.0805 32.4236 10.5729 31.9183C10.0653 31.413 9.6694 30.8068 9.41083 30.1389C9.07388 29.2219 8.89365 28.2547 8.87769 27.2778C8.80397 25.6492 8.78683 25.1898 8.78683 21.0138C8.78683 16.8361 8.78683 16.4092 8.87769 14.7481C8.88877 13.7607 9.0691 12.7825 9.41083 11.8561C9.93369 10.5035 11.0051 9.43894 12.3577 8.92122C13.2741 8.58203 14.2417 8.40173 15.2188 8.38808C16.8491 8.31436 17.3068 8.29379 21.4845 8.29379C25.6623 8.29379 26.0908 8.29379 27.7485 8.38808C28.7264 8.39984 29.6949 8.5802 30.6114 8.92122C31.2781 9.17883 31.8836 9.573 32.3891 10.0784C32.8945 10.5838 33.2886 11.1893 33.5463 11.8561C33.8832 12.7731 34.0634 13.7404 34.0794 14.7172C34.1531 16.3475 34.172 16.8052 34.172 20.9829C34.172 25.1589 34.172 25.6081 34.0983 27.2469H34.0794V27.2452Z" fill="#26BBFB"/>
</svg>
