<svg width="36" height="36" viewBox="0 0 36 36" fill="none" xmlns="http://www.w3.org/2000/svg">
<path fill-rule="evenodd" clip-rule="evenodd" d="M14.1103 13.3235H19.8405V16.1777C20.6659 14.5361 22.7827 13.0612 25.9626 13.0612C32.0584 13.0612 33.5056 16.3289 33.5056 22.3245V33.4284H27.3342V23.6899C27.3342 20.2756 26.5087 18.3501 24.4074 18.3501C21.4929 18.3501 20.2818 20.4252 20.2818 23.6884V33.4284H14.1103V13.3235ZM3.52787 33.1662H9.6993V13.0612H3.52787V33.1662ZM10.5834 6.50558C10.5836 7.02286 10.481 7.53502 10.2816 8.01231C10.0821 8.4896 9.78979 8.92248 9.42158 9.28581C8.67546 10.0273 7.66552 10.4424 6.61358 10.4399C5.5635 10.4392 4.55589 10.0251 3.80867 9.28735C3.44179 8.92279 3.15046 8.48942 2.95137 8.01207C2.75227 7.53472 2.64933 7.02278 2.64844 6.50558C2.64844 5.46106 3.06501 4.46129 3.81021 3.7238C4.55677 2.98502 5.56481 2.57083 6.61512 2.57129C7.66735 2.57129 8.67638 2.98632 9.42158 3.7238C10.1652 4.46129 10.5834 5.46106 10.5834 6.50558Z" fill="#26BBFB"/>
</svg>
