<svg id="Layer_1" height="512" viewBox="0 0 24 24" width="512" xmlns="http://www.w3.org/2000/svg" data-name="Layer 1"><path d="m2.5 19.20557a2.5337 2.5337 0 0 0 2.5 2.56103h14a2.5337 2.5337 0 0 0 2.5-2.561v-8.2666a2.56592 2.56592 0 0 0 -.96-2.01708l-7-5.61084a2.44611 2.44611 0 0 0 -3.08008 0l-7 5.61084a2.56592 2.56592 0 0 0 -.95992 2.01708zm1-8.26661a1.5944 1.5944 0 0 1 .585-1.23681l7-5.61084a1.45336 1.45336 0 0 1 1.83008 0l7 5.61084a1.5944 1.5944 0 0 1 .58492 1.23685v8.26661a1.53308 1.53308 0 0 1 -1.5 1.561h-14a1.53308 1.53308 0 0 1 -1.5-1.561zm2.20215 1.46241a.49981.49981 0 0 1 .5957-.80274l5.00781 3.71485a1.35588 1.35588 0 0 0 1.42383-.02393l4.97266-3.69092a.49981.49981 0 1 1 .5957.80274l-5.00785 3.71484a2.46178 2.46178 0 0 1 -1.30176.37988 2.35617 2.35617 0 0 1 -1.24316-.35595z"/></svg>