<svg width="28" height="28" fill="none" xmlns="http://www.w3.org/2000/svg"><path d="M5.243 3.971c-1.36.227-2.485 1.568-2.489 2.966-.001.545.153 1.808.331 2.7.49 2.464 1.532 4.989 2.888 7a20.12 20.12 0 0 0 5.39 5.391c2.298 1.546 5.169 2.647 7.957 3.051 1.36.198 2.051.206 2.613.031.893-.277 1.706-1.087 2.019-2.01.101-.297.103-.36.118-3.043.016-3.028.027-2.903-.282-3.131-.083-.062-1.501-.651-3.15-1.309-3.31-1.322-3.282-1.313-3.573-1.058-.089.079-.466.654-.87 1.328l-.712 1.19-.137-.071c-.249-.128-.974-.619-1.385-.937-.519-.402-1.627-1.511-2.02-2.022-.335-.436-.824-1.154-.943-1.383l-.075-.147 1.19-.712c.674-.404 1.249-.781 1.328-.87.129-.147.163-.267.141-.505-.004-.051-.553-1.46-1.22-3.131-1.257-3.151-1.286-3.212-1.597-3.329-.16-.061-5.159-.06-5.522.001m5.704 3.843c.523 1.307.946 2.38.94 2.384-.006.004-.556.336-1.224.737-1.321.796-1.321.795-1.437.964-.132.191-.099.441.112.859.703 1.391 1.806 2.835 2.948 3.86 1.157 1.038 2.907 2.161 3.467 2.224.362.041.442-.049 1.287-1.459a593.8 593.8 0 0 1 .762-1.27c.004-.006 1.077.417 2.384.94l2.377.951.014 2.093c.015 2.23-.005 2.506-.2 2.84a1.913 1.913 0 0 1-.747.686c-.201.092-.302.106-.723.1-.563-.008-1.398-.111-2.24-.278a17.948 17.948 0 0 1-12.253-8.983 17.886 17.886 0 0 1-2.119-7.003c-.051-.571-.017-.9.125-1.176.095-.187.413-.523.61-.644.331-.205.513-.219 2.803-.21l2.163.008.951 2.377" fill-rule="evenodd" fill="#000"/></svg>