<svg width="51" height="51" viewBox="0 0 51 51" fill="none" xmlns="http://www.w3.org/2000/svg">
<path d="M28.1875 1.91699C28.1875 1.91699 33.9252 2.43816 41.224 9.73941C48.5253 17.0407 49.0465 22.7759 49.0465 22.7759M29.9255 10.6097C29.9255 10.6097 32.3593 11.3029 36.0099 14.9535C39.6605 18.6042 40.3563 21.0379 40.3563 21.0379" stroke="#26BBFB" stroke-width="2" stroke-linecap="round"/>
<path d="M33.2418 32.7615L34.5792 34.0325L33.2418 32.764V32.7615ZM41.7133 46.7912L40.3735 45.5203L41.7108 46.7912H41.7133ZM38.4535 48.5366L38.6354 50.3681L38.4535 48.5342V48.5366ZM33.4606 35.21L34.5792 34.03L31.9045 31.4906L30.786 32.673L33.4606 35.21ZM38.2642 33.5334L42.9596 36.2401L44.7985 33.0418L40.103 30.3376L38.2642 33.5334ZM43.8668 41.8426L40.3759 45.5178L43.0481 48.0597L46.539 44.3845L43.8668 41.8426ZM38.274 46.6978C34.7463 47.0444 25.5399 46.7494 15.5492 36.2327L12.877 38.7697C23.765 50.2329 34.1514 50.813 38.6354 50.3681L38.274 46.6978ZM15.5492 36.2327C6.02071 26.2002 4.4228 17.7362 4.22367 14.0241L0.541086 14.2232C0.78692 18.7711 2.71425 28.071 12.877 38.7697L15.5492 36.2327ZM18.9319 19.9143L19.635 19.1718L16.9628 16.6324L16.2572 17.3748L18.9319 19.9143ZM20.1905 9.92851L17.0906 5.54776L14.0791 7.67668L17.1766 12.0599L20.1905 9.93097V9.92851ZM6.59596 4.59885L2.74129 8.66493L5.41596 11.2044L9.27555 7.14076L6.60088 4.60131L6.59596 4.59885ZM17.5945 18.6433C17.1521 18.2169 16.7055 17.7949 16.2548 17.3773L16.2498 17.3822L16.2425 17.3896C16.1993 17.4351 16.1583 17.4827 16.1195 17.5321C15.8786 17.8511 15.6879 18.2051 15.5541 18.5818C15.3132 19.2579 15.1854 20.1527 15.3476 21.2688C15.6672 23.4616 17.1053 26.4092 20.8592 30.3646L23.5339 27.8227C20.0234 24.1278 19.158 21.8539 18.9958 20.7329C18.9171 20.1921 18.9958 19.9093 19.0278 19.8184L19.0474 19.7717C19.0274 19.8041 19.0043 19.8345 18.9786 19.8626C18.9641 19.8793 18.9494 19.8957 18.9343 19.9118C18.9343 19.9118 18.9294 19.9118 17.5945 18.6433ZM20.8592 30.3646C24.6033 34.3078 27.4303 35.8541 29.5863 36.2056C30.695 36.3851 31.5923 36.2401 32.2708 35.9721C32.6467 35.8245 32.9962 35.617 33.3058 35.3575C33.336 35.3304 33.3655 35.3026 33.3943 35.2739L33.4287 35.2395C33.4345 35.2347 33.4402 35.2298 33.4459 35.2248L33.4533 35.2174L33.4557 35.2125C33.4557 35.2125 33.4606 35.21 32.1233 33.9391C30.786 32.6706 30.7884 32.6681 30.7884 32.6656L30.7933 32.6632L30.7983 32.6558C30.8024 32.6518 30.8065 32.6477 30.8105 32.6435L30.8351 32.6189C30.864 32.5911 30.8944 32.5648 30.9261 32.5403C30.9507 32.5255 30.9482 32.5304 30.9163 32.5427C30.8671 32.5624 30.6458 32.6411 30.1788 32.5648C29.1905 32.4026 27.0567 31.5323 23.5339 27.8227L20.8592 30.3646ZM17.0906 5.54776C14.5978 2.02251 9.61479 1.42514 6.60088 4.60131L9.26817 7.14076C10.5539 5.78868 12.8205 5.89439 14.0791 7.67668L17.0906 5.54776ZM4.22367 14.0241C4.16959 13.0408 4.59979 12.0599 5.41596 11.2044L2.74129 8.66493C1.42363 10.0514 0.420628 11.9763 0.541086 14.2232L4.22367 14.0241ZM40.3735 45.5203C39.6876 46.243 38.9722 46.629 38.274 46.6978L38.6354 50.3681C40.4718 50.1886 41.9591 49.2078 43.0481 48.0597L40.3735 45.5227V45.5203ZM19.635 19.1743C22.0146 16.6693 22.1818 12.7507 20.1905 9.93097L17.1791 12.0599C18.2165 13.5275 18.0567 15.4819 16.9628 16.6324L19.635 19.1743ZM42.9596 36.2401C44.9779 37.4028 45.3737 40.2594 43.8668 41.8451L46.539 44.3845C49.7471 41.0068 48.8129 35.3551 44.8009 33.0442L42.9596 36.2401ZM34.5792 34.0325C35.5256 33.0344 37.0031 32.8107 38.2642 33.5359L40.103 30.3401C37.4013 28.7864 34.0555 29.2338 31.9045 31.4955L34.5792 34.0325Z" fill="#26BBFB"/>
</svg>
