<svg width="32" height="32" viewBox="0 0 32 32" fill="none" xmlns="http://www.w3.org/2000/svg">
<g clip-path="url(#clip0_116_5211)">
<path d="M30.4006 8.93767C30.2259 8.3144 29.8856 7.75011 29.4158 7.30481C28.9327 6.84582 28.3407 6.51749 27.6955 6.35081C25.2809 5.71438 15.6072 5.71438 15.6072 5.71438C11.5743 5.6685 7.54246 5.87031 3.53434 6.31867C2.88916 6.49766 2.29821 6.83332 1.81405 7.29581C1.33834 7.75353 0.993769 8.31796 0.813769 8.93638C0.381374 11.2658 0.171287 13.631 0.18634 16.0001C0.170912 18.3671 0.380483 20.7315 0.813769 23.0638C0.989912 23.6797 1.3332 24.2415 1.8102 24.6954C2.2872 25.1492 2.8812 25.4771 3.53434 25.6507C5.98105 26.2858 15.6072 26.2858 15.6072 26.2858C19.6452 26.3318 23.6822 26.13 27.6955 25.6815C28.3407 25.5149 28.9327 25.1865 29.4158 24.7275C29.8854 24.2823 30.2253 23.718 30.3993 23.0947C30.843 20.7662 31.0588 18.4 31.0435 16.0297C31.0769 13.6493 30.8614 11.272 30.4006 8.93638V8.93767ZM12.5318 20.4024V11.5991L20.5803 16.0014L12.5318 20.4024Z" fill="#26BBFB"/>
</g>
<defs>
<clipPath id="clip0_116_5211">
<rect width="30.8571" height="30.8571" fill="white" transform="translate(0.186523 0.571289)"/>
</clipPath>
</defs>
</svg>
