<svg width="340" height="196" viewBox="0 0 340 196" fill="none" xmlns="http://www.w3.org/2000/svg">
<rect x="15.2051" y="23.457" width="29.1425" height="5.94745" transform="rotate(16.76 15.2051 23.457)" fill="#3BCC83"/>
<rect width="29.1425" height="5.94745" transform="matrix(-0.957521 0.288363 0.288363 0.957521 41.3945 155.9)" fill="#3BCC83"/>
<rect y="93.7539" width="29.1425" height="5.94745" fill="#3BCC83"/>
<rect width="29.1425" height="5.94745" transform="matrix(-0.957521 0.288363 0.288363 0.957521 324.795 23.457)" fill="#3BCC83"/>
<rect x="298.605" y="155.9" width="29.1425" height="5.94745" transform="rotate(16.76 298.605 155.9)" fill="#3BCC83"/>
<rect width="29.1425" height="5.94745" transform="matrix(-1 0 0 1 340 93.7539)" fill="#3BCC83"/>
<path d="M224.72 74.8829C221.73 67.8096 217.449 61.4588 211.993 56.0054C206.538 50.55 200.187 46.2688 193.116 43.2788C185.795 40.1793 178.018 38.6113 169.999 38.6113C161.981 38.6113 154.204 40.1793 146.883 43.2788C139.81 46.2688 133.459 50.55 128.005 56.0054C122.55 61.4607 118.269 67.8115 115.279 74.8829C112.179 82.204 110.611 89.9806 110.611 97.9993C110.611 106.018 112.179 113.795 115.279 121.116C118.269 128.189 122.55 134.54 128.005 139.993C133.461 145.449 139.811 149.73 146.883 152.72C154.204 155.819 161.981 157.387 169.999 157.387C178.018 157.387 185.795 155.819 193.116 152.72C200.189 149.73 206.54 145.449 211.993 139.993C217.449 134.538 221.73 128.187 224.72 121.116C227.819 113.795 229.387 106.018 229.387 97.9993C229.387 89.9806 227.819 82.204 224.72 74.8829ZM162.455 134.377L146.679 120.835L131.485 107.795L144.986 92.0655L158.95 104.05L191.775 61.6221L208.508 73.8548L162.455 134.377Z" fill="#3BCC83"/>
<path d="M268 98.0461L257.055 80.7289L260.562 60.5467L243.84 48.7195L239.324 28.7428L219.346 24.231L207.546 7.48643L187.359 10.9395L170.046 0L152.729 10.9453L132.545 7.43839L120.718 24.1599L100.741 28.6756L96.231 48.6541L79.4864 60.4545L82.9395 80.6405L72 97.9539L82.9453 115.271L79.4384 135.455L96.1599 147.282L100.676 167.259L120.654 171.769L132.454 188.514L152.641 185.061L169.954 196L187.271 185.055L207.453 188.562L219.281 171.84L239.257 167.324L243.769 147.346L260.514 135.546L257.061 115.359L268 98.0461ZM170 167.686C131.513 167.686 100.314 136.487 100.314 98C100.314 59.5129 131.513 28.3143 170 28.3143C208.487 28.3143 239.686 59.5129 239.686 98C239.686 136.487 208.487 167.686 170 167.686Z" fill="#3BCC83"/>
</svg>
